<svg width="12" height="7" viewBox="0 0 12 7" fill="none" xmlns="http://www.w3.org/2000/svg">
<path d="M10.2002 6.99995C10.5184 6.99995 10.8235 6.87357 11.0486 6.6486C11.2735 6.42357 11.3999 6.1184 11.3999 5.8002C11.3999 5.48201 11.2735 5.17684 11.0486 4.95181L6.84819 0.75155C6.62315 0.526585 6.31799 0.400206 5.99979 0.400206C5.68159 0.400206 5.37642 0.526585 5.15139 0.75155L0.965954 4.93684C0.851341 5.04754 0.759922 5.17995 0.697031 5.32635C0.63414 5.47276 0.601037 5.63022 0.599652 5.78956C0.598268 5.94889 0.628631 6.10691 0.688968 6.25438C0.749305 6.40186 0.838408 6.53584 0.951079 6.64851C1.06375 6.76118 1.19773 6.85029 1.34521 6.91062C1.49233 6.97082 1.64993 7.00118 1.80887 6.99995L10.2002 6.99995Z" fill="#5F647A"/>
</svg>
