<svg width="14" height="14" viewBox="0 0 18 14" fill="none" xmlns="http://www.w3.org/2000/svg">
<path fill-rule="evenodd" clip-rule="evenodd" d="M7.77527 0.724074C8.01935 0.968152 8.01935 1.36388 7.77527 1.60796L3.00888 6.37435H16.5C16.8452 6.37435 17.125 6.65417 17.125 6.99935C17.125 7.34453 16.8452 7.62435 16.5 7.62435H3.00888L7.77527 12.3907C8.01935 12.6348 8.01935 13.0305 7.77527 13.2746C7.5312 13.5187 7.13547 13.5187 6.89139 13.2746L1.05818 7.44142C1.05814 7.44137 1.0581 7.44133 1.05806 7.44129C1.05762 7.44085 1.05718 7.44041 1.05673 7.43996C0.997469 7.38035 0.952699 7.31176 0.922424 7.23859C0.891866 7.1649 0.875 7.08409 0.875 6.99935C0.875 6.91461 0.891866 6.8338 0.922424 6.76011C0.952924 6.68639 0.998135 6.61733 1.05806 6.55741L6.89139 0.724074C7.13547 0.479996 7.5312 0.479996 7.77527 0.724074Z" fill="#566DED"/>
</svg>
