<svg width="20" height="20" viewBox="0 0 20 20" fill="none" xmlns="http://www.w3.org/2000/svg">
<path fill-rule="evenodd" clip-rule="evenodd" d="M5.29303 7.29357C5.48056 7.1061 5.73487 7.00078 6.00003 7.00078C6.26519 7.00078 6.5195 7.1061 6.70703 7.29357L10 10.5866L13.293 7.29357C13.3853 7.19806 13.4956 7.12188 13.6176 7.06947C13.7396 7.01706 13.8709 6.98947 14.0036 6.98832C14.1364 6.98717 14.2681 7.01247 14.391 7.06275C14.5139 7.11303 14.6255 7.18728 14.7194 7.28117C14.8133 7.37507 14.8876 7.48672 14.9379 7.60962C14.9881 7.73251 15.0134 7.86419 15.0123 7.99697C15.0111 8.12975 14.9835 8.26097 14.9311 8.38297C14.8787 8.50498 14.8025 8.61532 14.707 8.70757L10.707 12.7076C10.5195 12.895 10.2652 13.0004 10 13.0004C9.73487 13.0004 9.48056 12.895 9.29303 12.7076L5.29303 8.70757C5.10556 8.52004 5.00024 8.26573 5.00024 8.00057C5.00024 7.73541 5.10556 7.4811 5.29303 7.29357Z" fill="#4C5462"/>
</svg>
