<svg width="44" height="45" viewBox="0 0 44 45" fill="none" xmlns="http://www.w3.org/2000/svg">
    <path fill="#3486FA" fill-rule="evenodd"
          d="M.457 8.396A32.885 32.885 0 0022 0a32.885 32.885 0 0021.544 8.399c.302 1.786.456 3.627.456 5.499C44 28.258 34.815 40.474 22 45 9.185 40.47 0 28.255 0 13.895c0-1.874.157-3.71.457-5.5z"
          clip-rule="evenodd"/>
    <mask id="assurance_mask0" width="44" height="45" x="0" y="0" maskUnits="userSpaceOnUse">
        <path fill="#3486FA" fill-rule="evenodd"
              d="M.457 8.396A32.885 32.885 0 0022 0a32.885 32.885 0 0021.544 8.399c.302 1.786.456 3.627.456 5.499C44 28.258 34.815 40.474 22 45 9.185 40.47 0 28.255 0 13.895c0-1.874.157-3.71.457-5.5z"
              clip-rule="evenodd"/>
    </mask>
    <g mask="url(#assurance_mask0)">
        <path fill="#3486FA" fill-rule="evenodd"
              d="M.457 8.396A32.885 32.885 0 0022 0a32.885 32.885 0 0021.544 8.399c.302 1.786.456 3.627.456 5.499C44 28.258 34.815 40.474 22 45 9.185 40.47 0 28.255 0 13.895c0-1.874.157-3.71.457-5.5z"
              clip-rule="evenodd"/>
        <path fill="#0052CB" d="M35.574 15.469l7.022 15L29.72 44.043 14.525 28.826l21.05-13.357z"/>
        <path fill="#0052CB" d="M13.23 19.811L31.363 38.44l-1.874 5.623-7.02 1.876L9.36 23.686l3.87-3.875z"/>
    </g>
    <path fill="#fff" d="M0 0H5.621V24.202H0z" transform="rotate(45.041 1.704 43.989)"/>
    <path fill="#fff" d="M0 0H5.621V12.916H0z" transform="rotate(-45.041 33.218 .543)"/>
</svg>
