<svg width="14" height="10" viewBox="0 0 14 10" fill="none" xmlns="http://www.w3.org/2000/svg">
    <path fillRule="evenodd" clipRule="evenodd" d="M13.707 0.292787C13.8944 0.480314 13.9998 0.734622 13.9998 0.999786C13.9998 1.26495 13.8944 1.51926 13.707 1.70679L5.70698 9.70679C5.51945 9.89426 5.26514 9.99957 4.99998 9.99957C4.73481 9.99957 4.48051 9.89426 4.29298 9.70679L0.29298 5.70679C0.110822 5.51818 0.0100275 5.26558 0.0123059 5.00339C0.0145843 4.74119 0.119753 4.49038 0.305161 4.30497C0.490569 4.11956 0.741382 4.01439 1.00358 4.01211C1.26577 4.00983 1.51838 4.11063 1.70698 4.29279L4.99998 7.58579L12.293 0.292787C12.4805 0.105316 12.7348 0 13 0C13.2651 0 13.5194 0.105316 13.707 0.292787Z" fill="#566DED" />
</svg>