<svg
    width="43"
    height="21"
    viewBox="0 0 43 21"
    fill="none"
    xmlns="http://www.w3.org/2000/svg"
>
    <path
        fillRule="evenodd"
        clipRule="evenodd"
        d="M19.3308 8.17293H28.4017C28.9933 8.17293 29.4665 7.69967 29.4665 7.10809C29.4665 6.51651 28.9933 6.04325 28.4017 6.04325H19.3308C18.7393 6.04325 18.266 6.51651 18.266 7.10809C18.266 7.69967 18.7393 8.17293 19.3308 8.17293ZM36.0922 16.6128C36.0922 17.8354 35.1457 18.7424 34.0414 18.7424C32.9371 18.7424 31.9906 17.8354 31.9906 16.6128C31.9906 15.3902 32.9371 14.4831 34.0414 14.4831C35.1457 14.4831 36.0922 15.3902 36.0922 16.6128ZM9.8656 18.7424C10.9699 18.7424 11.9164 17.8354 11.9164 16.6128C11.9164 15.3902 10.9699 14.4831 9.8656 14.4831C8.76132 14.4831 7.8148 15.3902 7.8148 16.6128C7.8148 17.8354 8.72188 18.7424 9.8656 18.7424ZM33.2921 8.01517C33.8836 8.01517 34.3569 7.54191 34.3569 6.95034C34.3569 6.35876 33.8836 5.8855 33.2921 5.8855C32.7005 5.8855 32.2272 6.35876 32.2272 6.95034C32.2272 7.54191 32.7005 8.01517 33.2921 8.01517ZM21.3816 0.482422C20.8295 0.482422 20.3168 0.600737 19.8041 0.876807L13.8489 4.1502C13.77 4.18964 13.6517 4.22908 13.5334 4.26852L3.20049 6.35876C1.7807 6.63483 0.755302 7.81798 0.597548 9.23777L0.163725 13.6549C0.00597131 15.2719 1.268 16.6522 2.88498 16.6522H5.60624C5.60624 19.0185 7.49929 20.951 9.82616 20.951C12.153 20.951 14.0855 18.9791 14.0855 16.6128H24.6945C25.2861 16.6128 25.7593 16.1395 25.7593 15.5479C25.7593 14.9564 25.2861 14.4831 24.6945 14.4831H13.4939C12.7446 13.2211 11.4037 12.3534 9.82616 12.3534C8.24862 12.3534 6.90771 13.2211 6.15838 14.4831H2.84554C2.53004 14.4831 2.25397 14.207 2.2934 13.8521L2.41172 12.6295H3.27937C3.87094 12.6295 4.34421 12.1562 4.34421 11.5646C4.34421 10.9731 3.87094 10.4998 3.27937 10.4998H2.64835L2.76667 9.4744C2.8061 9.00114 3.16105 8.60675 3.63431 8.52788L13.9672 6.43763C14.2827 6.35876 14.5982 6.24044 14.8743 6.08269L20.8295 2.80929C20.9873 2.73042 21.1844 2.69098 21.3422 2.69098H29.8609C30.0187 2.69098 30.1764 2.73042 30.2947 2.76985L38.1036 6.16157C38.3402 6.24044 38.5374 6.31932 38.774 6.35876L39.9177 6.59539C40.4304 6.71371 40.7854 7.14753 40.7854 7.66023V13.3788C40.7854 13.9704 40.3121 14.4437 39.7205 14.4437H37.7092C36.9599 13.1816 35.6189 12.314 34.0414 12.314C31.7145 12.314 29.8215 14.2465 29.8215 16.6128C29.8215 18.9791 31.7145 20.9116 34.0414 20.9116C36.3683 20.9116 38.2613 18.9791 38.2613 16.6128H39.7205C41.5347 16.6128 42.9545 15.1535 42.9545 13.3788V7.66023C42.9545 6.12213 41.8502 4.78122 40.3121 4.46571L39.1684 4.22908C39.0895 4.22908 39.0107 4.18964 38.9318 4.1502L31.123 0.75849C30.7286 0.561298 30.2553 0.482422 29.8215 0.482422H21.3816Z"
        fill="#566DED"
    />
</svg>
