<?xml version="1.0" encoding="utf-8"?>
<svg viewBox="29.471 11.137 32.773 35.94" xmlns="http://www.w3.org/2000/svg">
  <path class="cls-1" d="M24.03,28.58h5.76c.62,0,1.07,.28,1.24,.77,.17,.5,.06,.94-.33,1.28-.59,.52-1.2,1.03-1.82,1.51-.22,.16-.49,.25-.77,.26-2.74,.02-5.48,.02-8.22,0-.29,0-.62-.15-.87-.33-.57-.42-1.09-.89-1.63-1.34-.46-.39-.61-.87-.43-1.37,.18-.5,.61-.77,1.21-.77,1.95,0,3.9,0,5.85,0Zm-6.01,1.12l-.03,.07c.07,.07,.15,.14,.22,.21,.44,.37,.89,.73,1.32,1.11,.08,.08,.18,.14,.29,.18,.11,.04,.22,.06,.34,.05,2.43,0,4.86-.02,7.3,0,.51,0,.92-.11,1.28-.47,.34-.32,.7-.62,1.08-.9,.08-.05,.17-.09,.27-.12l-.1-.14h-11.97Z" transform="matrix(1, 0, 0, 1, 21.851233, 6.487895)" style="fill: rgb(86, 109, 237);"/>
  <path class="cls-1" d="M34.95,32.4h-2.05c-.57,0-.99-.28-1.17-.77s-.04-.98,.4-1.35c.55-.46,1.1-.91,1.65-1.37,.27-.23,.62-.35,.97-.34,.76,0,1.52,0,2.27,0,.74,0,1.19,.46,1.2,1.2,0,.48,0,.96,0,1.44,0,.73-.45,1.18-1.18,1.18-.69,0-1.39,0-2.08,0Zm2.15-2.74c-.83,0-1.64,0-2.45,0-.09,0-.17,.08-.24,.14-.5,.41-1,.83-1.5,1.25-.07,.07-.14,.15-.2,.24h4.39v-1.63Z" transform="matrix(1, 0, 0, 1, 21.851233, 6.487895)" style="fill: rgb(86, 109, 237);"/>
  <path class="cls-1" d="M13.02,32.4h-2.05c-.73,0-1.18-.45-1.18-1.18,0-.5,0-1,0-1.5,0-.67,.45-1.13,1.12-1.14,.81-.01,1.63-.03,2.43,.01,.29,.02,.58,.12,.82,.3,.6,.44,1.16,.94,1.73,1.42,.42,.35,.55,.86,.38,1.33-.17,.47-.6,.77-1.14,.77-.7,0-1.4,0-2.11,0Zm-2.12-1.12h4.33l.09-.12c-.1-.04-.19-.09-.28-.15-.32-.26-.65-.49-.93-.78-.2-.22-.44-.38-.71-.48-.27-.1-.57-.13-.86-.09-.45,.05-.92,0-1.37,.01-.09,0-.18,.01-.27,.02v1.59Z" transform="matrix(1, 0, 0, 1, 21.851233, 6.487895)" style="fill: rgb(86, 109, 237);"/>
  <path class="cls-1" d="M39.44,12v.91c-.01,.11-.02,.22-.04,.33-.18,1.69-.9,3.27-2.05,4.51-1.16,1.24-2.69,2.07-4.36,2.37-.29,.05-.59,.08-.89,.12h-.91c-.26-.03-.52-.06-.78-.1-1.63-.27-3.04-.97-4.21-2.14-1.75-1.75-2.52-3.87-2.3-6.34,.14-1.64,.82-3.18,1.93-4.39,1.47-1.63,3.31-2.51,5.5-2.61,1.5-.08,3,.3,4.28,1.09,2.02,1.23,3.26,3.02,3.7,5.35,.05,.29,.08,.59,.12,.88Zm-7.79-6.36c-1.35,0-2.67,.4-3.79,1.15-1.12,.75-1.99,1.81-2.51,3.06-.52,1.25-.65,2.62-.39,3.94,.26,1.32,.91,2.54,1.87,3.49,.95,.95,2.17,1.6,3.49,1.87,1.32,.26,2.69,.13,3.94-.39,1.25-.52,2.31-1.39,3.06-2.51,.75-1.12,1.15-2.44,1.15-3.79,0-1.81-.72-3.54-2-4.82-1.28-1.28-3.01-2-4.82-2Z" transform="matrix(1, 0, 0, 1, 21.851233, 6.487895)" style="fill: rgb(86, 109, 237);"/>
  <path class="cls-1" d="M31.01,15.69c0-.32,0-.31-.31-.4-.35-.09-.67-.26-.95-.49-.23-.19-.27-.47-.1-.68,.04-.05,.09-.1,.14-.13,.06-.03,.12-.05,.18-.06,.06,0,.13,0,.19,.02,.06,.02,.12,.05,.17,.09,.59,.45,1.23,.51,1.91,.24,.19-.08,.36-.2,.5-.35,.31-.34,.26-.74-.09-1.04-.35-.3-.75-.39-1.18-.4-.45,0-.89-.11-1.29-.31-.56-.29-.97-.71-1.09-1.36-.12-.63,.12-1.14,.58-1.56,.33-.3,.73-.5,1.17-.58,.13-.03,.19-.07,.18-.22-.01-.12,0-.24,0-.36,0-.13,.05-.25,.14-.34,.09-.09,.21-.14,.34-.14,.13,0,.25,.05,.34,.14,.09,.09,.14,.21,.14,.34,0,.12,0,.23,0,.35-.02,.15,.05,.21,.19,.24,.38,.08,.74,.25,1.05,.5,.25,.2,.3,.48,.12,.71-.04,.05-.09,.1-.15,.13-.06,.03-.12,.05-.19,.06-.07,0-.13,0-.2-.03-.06-.02-.12-.06-.17-.1-.55-.45-1.49-.49-2.12-.12-.62,.38-.62,1.04,0,1.42,.32,.18,.69,.28,1.06,.27,.58,0,1.14,.19,1.6,.54,.47,.36,.76,.82,.75,1.42-.01,.67-.36,1.15-.91,1.49-.28,.15-.57,.27-.88,.36-.13,.04-.17,.09-.16,.22,0,.12,0,.23,0,.35,0,.13-.05,.25-.14,.34-.09,.09-.22,.14-.34,.14-.13,0-.25-.05-.34-.14-.09-.09-.14-.22-.14-.34,0-.07,0-.13,0-.2Z" transform="matrix(1, 0, 0, 1, 21.851233, 6.487895)" style="fill: rgb(86, 109, 237);"/>
  <path class="cls-1" d="M39.84,27.25c-.58-.58-1.16-1.16-1.74-1.74-.05-.05-.1-.12-.17-.21,.33,0,.61,0,.88,0,.4-.01,.79-.18,1.08-.46,.29-.28,.47-.66,.5-1.06,.05-.83-.52-1.65-1.35-1.71-.89-.07-1.85-.28-2.61,.51-.05-.15-.09-.26-.13-.37-.11-.33-.22-.66-.33-1-.33,.17-.66,.32-1,.45,.25,.76,.51,1.52,.76,2.27,.03,.08,.04,.16,.07,.26H12.22c.02-.09,.04-.17,.06-.25,.44-1.33,.89-2.67,1.34-4,.27-.8,.81-1.2,1.65-1.2h9.12c-.28-.35-.53-.71-.75-1.1-2.81,0-5.62,0-8.43,0-1.26,0-2.21,.71-2.62,1.92-.3,.89-.59,1.78-.89,2.67-.03,.1-.08,.2-.13,.34-.43-.45-.93-.58-1.49-.55-.29,.02-.58,0-.86,0-.67,.02-1.15,.35-1.45,.94-.06,.11-.1,.23-.15,.34v.64c.24,.78,.72,1.28,1.58,1.34,.28,.02,.56,0,.95,0-.26,.26-.46,.44-.65,.64-.36,.36-.71,.73-1.08,1.08-.35,.33-.66,.69-.79,1.17v7.81c.18,.51,.46,.96,.98,1.2,.06,.03,.1,.17,.1,.26,.01,.47,0,.94,0,1.41,0,1.05,.69,1.74,1.75,1.74h3.58c1.1,0,1.77-.68,1.77-1.78v-1.47h16.39v1.55c0,1,.7,1.7,1.69,1.7,1.24,0,2.48,0,3.71,0,.99,0,1.69-.7,1.7-1.69,0-.49,0-.98,0-1.47,0-.06,.03-.11,.05-.16,.03-.05,.07-.09,.12-.12,.61-.35,.91-.87,.91-1.57v-6.98c0-.25-.04-.5-.13-.73-.09-.23-.24-.44-.42-.62Zm-2.72-3.56c.01-.37,.21-.57,.58-.58,.34,0,.68,0,1.03,0,.34,0,.58,.25,.58,.55,0,.07-.02,.14-.05,.21-.03,.07-.07,.13-.12,.17-.05,.05-.11,.09-.18,.11-.07,.03-.14,.04-.21,.03-.52,0-1.04,0-1.61,0,0-.19,0-.35,0-.51Zm-27.92,.5c-.14,0-.26-.07-.35-.17-.09-.1-.14-.23-.14-.37,0-.14,.06-.28,.15-.38,.1-.1,.23-.16,.37-.16,.37-.01,.75-.01,1.12,0,.07,0,.14,.01,.2,.04,.06,.03,.12,.06,.17,.11,.05,.05,.09,.11,.12,.17,.03,.06,.04,.13,.04,.2,.01,.18,0,.35,0,.56-.58,0-1.13,.02-1.68,0Zm5.5,14.86c-.02,.28-.25,.45-.54,.45-1.27,0-2.54,0-3.81,0-.07,0-.14,0-.21-.03-.07-.02-.13-.06-.18-.11-.05-.05-.09-.11-.12-.17-.03-.06-.04-.13-.04-.2-.02-.54,0-1.08,0-1.65h4.91c0,.58,.02,1.15-.01,1.72Zm23.5-.05c-.01,.3-.25,.5-.56,.5-1.25,0-2.51,0-3.77,0-.34,0-.56-.22-.57-.56-.01-.52,0-1.04,0-1.6h4.92c0,.56,.01,1.12,0,1.67Zm1.1-3.52c0,.56-.18,.74-.75,.75H9.55c-.7,0-.85-.14-.85-.84,0-2.23,0-4.46,0-6.69,0-.14,.02-.28,.08-.42s.14-.25,.24-.35c.82-.81,1.63-1.63,2.45-2.44,.13-.12,.29-.19,.46-.2,8.05,0,16.09,0,24.14,0,.17,0,.34,.08,.46,.2,.83,.81,1.65,1.64,2.48,2.46,.1,.09,.17,.2,.23,.32,.05,.12,.08,.25,.07,.39-.01,2.27,0,4.55,0,6.82Z" transform="matrix(1, 0, 0, 1, 21.851233, 6.487895)" style="fill: rgb(86, 109, 237);"/>
</svg>