<?xml version="1.0" encoding="UTF-8"?><svg id="Capa_1" xmlns="http://www.w3.org/2000/svg" viewBox="0 0 48 48"><defs><style>.cls-1{fill:#566ded;}</style></defs><path class="cls-1" d="M22.91,17.37c1.27-1.27,2.49-2.49,3.71-3.71,.08-.08,.16-.16,.25-.24,.1-.08,.23-.12,.36-.12,.13,0,.25,.06,.35,.15,.09,.09,.15,.21,.16,.34,0,.13-.03,.26-.11,.36-.06,.07-.12,.14-.19,.21-1.32,1.32-2.65,2.65-3.97,3.97-.43,.43-.64,.43-1.08-.01-.27-.27-.55-.54-.82-.82-.27-.27-.31-.59-.08-.83,.24-.25,.55-.22,.85,.08,.19,.19,.37,.4,.57,.62Z"/><path class="cls-1" d="M24.26,24.83h-3.98c-.13,0-.25,0-.37-.02-.12-.02-.23-.08-.31-.17-.08-.09-.12-.21-.12-.33,0-.12,.03-.23,.1-.33,.07-.09,.17-.16,.29-.18,.12-.03,.25-.04,.37-.04h8.12c.11,0,.23,0,.34,.03,.27,.06,.4,.25,.41,.52,0,.13-.04,.25-.13,.35-.09,.09-.2,.15-.33,.16-.19,.02-.38,.02-.56,.01-1.28,0-2.55,0-3.83,0Z"/><path class="cls-1" d="M40.36,25.24v-.56c-.29-.72-.85-.97-1.59-.92-.52,.03-1.04,0-1.61,0,0-.42-.02-.83,0-1.23,.04-.81-.2-1.46-.96-1.85-.07-.04-.1-.21-.1-.32,0-2.58,0-5.17,0-7.75v-.31c-.02-.89-.6-1.5-1.48-1.62-2.74-.38-5.47-.83-8.12-1.69-.64-.21-1.26-.5-1.88-.75h-.63c-.69,.27-1.36,.59-2.06,.81-2.56,.81-5.2,1.25-7.85,1.63-1.05,.15-1.57,.73-1.57,1.79v7.87c0,.21-.07,.31-.24,.45-.28,.22-.52,.5-.7,.81-.12,.2-.12,.48-.13,.73-.02,.48,0,.95,0,1.45-.69,0-1.33-.02-1.96,0-1.03,.03-1.55,.98-1.04,1.87,.22,.38,.44,.75,.68,1.13,.05,.06,.07,.14,.07,.21s-.03,.15-.07,.21c-.22,.35-.43,.72-.65,1.07-.26,.42-.33,.86-.08,1.3s.67,.63,1.18,.63c.96,0,1.93,0,2.89,0h.38c.64,2.11,1.43,3.51,2.77,4.97,2.18,2.35,4.88,3.9,7.85,5.02,.55,.22,1.16,.21,1.71-.01,1.79-.66,3.48-1.54,5.05-2.62,2.05-1.44,3.77-3.18,4.85-5.48,.28-.6,.48-1.24,.73-1.88,.99,0,2.01-.03,3.02,0,.75,.02,1.27-.23,1.55-.94v-.5c-.29-.52-.57-1.04-.88-1.55-.05-.07-.07-.15-.07-.23s.03-.16,.07-.23c.3-.5,.59-1.01,.88-1.51ZM14.01,12.11c3.4-.54,6.78-1.17,10.02-2.37,.14-.05,.3-.04,.44,0,3.12,1.14,6.37,1.78,9.64,2.3,.8,.13,.8,.11,.8,.92v7.58H13.59v-.37c0-2.53,0-5.06,0-7.59,0-.33,.11-.42,.43-.47h0Zm-2.88,17.01h-1.51c-.36,0-.39-.06-.2-.38,.22-.37,.44-.74,.66-1.1,.13-.2,.2-.43,.2-.67s-.07-.47-.2-.67c-.23-.39-.46-.77-.69-1.16-.12-.2-.11-.32,.15-.32h1.9c0,.5,0,.96,0,1.42-.01,.74,.27,1.29,.94,1.64,.04,.02,.07,.05,.1,.08,.03,.03,.05,.07,.06,.12,.04,.33,.05,.66,.08,1.03h-1.48Zm22.74,2.47c-1.15,2.3-2.93,3.98-5,5.38-1.33,.9-2.76,1.66-4.25,2.25-.24,.08-.5,.08-.73,0-2.72-1.12-5.21-2.6-7.26-4.78-1.58-1.68-2.65-3.64-2.96-5.99-.01-.11-.03-.21-.03-.32,0-.06,0-.13,0-.22h21.24c-.09,1.28-.43,2.53-1.01,3.68h0Zm1.47-4.61H13.32c-.66,0-.81-.15-.81-.81v-3.83c0-.54,.18-.72,.71-.73h22.15c.54,0,.72,.18,.72,.72v3.92c0,.54-.18,.72-.74,.72h0Zm3.75,2.14c-1.03,0-2.07,0-3.12,0,.03-.37,.04-.72,.08-1.06,0-.07,.1-.15,.18-.18,.61-.33,.91-.84,.91-1.53,0-.49,0-.98,0-1.51h1.93c.22,0,.24,.11,.14,.29-.23,.38-.46,.77-.69,1.16-.29,.46-.29,.92,0,1.39,.24,.38,.46,.77,.69,1.16,.09,.16,.11,.29-.12,.3h0Z"/></svg>