<svg viewBox="0 0 35 16" fill="none" xmlns="http://www.w3.org/2000/svg">
<path d="M3.2267 6.4723C3.4566 6.47075 3.65983 6.31057 3.73153 6.07441L4.94491 2.17225H8.24571C8.54232 2.16607 8.77936 1.90467 8.77936 1.5843C8.77936 1.26367 8.54232 1.00228 8.24571 0.996094H4.56373C4.33383 0.997381 4.13061 1.15757 4.0589 1.39346L2.7219 5.69297C2.62541 5.99815 2.77312 6.33063 3.05376 6.44007C3.10927 6.46145 3.16788 6.47227 3.22672 6.47227L3.2267 6.4723Z" fill="#5F647A"/>
<path d="M1.37253 10.0336L0.035766 14.3334C-0.0202203 14.5129 0.00598643 14.7107 0.106282 14.866C0.205152 15.0197 0.367389 15.1117 0.540592 15.1122H8.24658C8.54319 15.106 8.78023 14.8443 8.78023 14.524C8.78023 14.2036 8.54319 13.942 8.24658 13.9358H1.28771L2.38241 10.4151C2.47889 10.1099 2.33118 9.77741 2.05054 9.66823C1.91594 9.61775 1.76823 9.62831 1.64053 9.69707C1.51307 9.76584 1.41658 9.88713 1.37275 10.0337L1.37253 10.0336Z" fill="#5F647A"/>
<path d="M30.1082 1.39346C30.0365 1.15757 29.8333 0.997379 29.6034 0.996094H25.9214C25.6248 1.00227 25.3878 1.26367 25.3878 1.5843C25.3878 1.90467 25.6248 2.16606 25.9214 2.17225H29.2225L30.4358 6.07441H30.4356C30.5073 6.31056 30.7105 6.47075 30.9404 6.4723C30.9993 6.4723 31.0579 6.46148 31.1134 6.44011C31.394 6.33065 31.5417 5.99818 31.4452 5.69301L30.1082 1.39346Z" fill="#5F647A"/>
<path d="M25.3877 14.524C25.3849 14.8457 25.6236 15.1091 25.9214 15.1122H33.6274C33.8006 15.1117 33.9628 15.0198 34.0617 14.866C34.162 14.7107 34.1882 14.5129 34.1322 14.3334L32.7954 10.0339V10.0337C32.7516 9.88713 32.6551 9.76584 32.5276 9.69707C32.4 9.62831 32.2522 9.61776 32.1176 9.66823C31.837 9.77742 31.6893 10.1099 31.7858 10.4151L32.8805 13.9358H25.9216C25.6238 13.9391 25.3851 14.2023 25.3879 14.524L25.3877 14.524Z" fill="#5F647A"/>
<path d="M24.8535 3.6429C24.8507 3.96456 25.0894 4.22801 25.3872 4.2311H27.6226L29.9414 11.5834H27.5218C27.2252 11.5896 26.9882 11.851 26.9882 12.1716C26.9882 12.492 27.2252 12.7534 27.5218 12.7596H30.6916C30.8653 12.7591 31.0278 12.6669 31.1264 12.5123C31.2267 12.3565 31.2524 12.1582 31.1957 11.9785L28.506 3.45C28.4336 3.21513 28.2311 3.05623 28.0019 3.05469H25.387H25.3872C25.0894 3.05804 24.8507 3.32124 24.8535 3.64289L24.8535 3.6429Z" fill="#5F647A"/>
<path d="M8.81273 4.2311C9.1091 4.22492 9.34638 3.96352 9.34638 3.64289C9.34638 3.32252 9.1091 3.06113 8.81273 3.05469H6.19781C5.96887 3.05623 5.76613 3.21513 5.6937 3.45L3.0042 11.9785C2.9475 12.1582 2.97323 12.3565 3.07329 12.5123C3.17216 12.6669 3.33464 12.7591 3.50831 12.7596H7.47859C7.77496 12.7534 8.01224 12.492 8.01224 12.1716C8.01224 11.851 7.77496 11.5896 7.47859 11.5834H4.25878L6.57759 4.2311L8.81273 4.2311Z" fill="#5F647A"/>
<path d="M21.8859 0.486071C21.8357 0.34211 21.7339 0.225964 21.6036 0.163899C21.4733 0.101834 21.3254 0.0990007 21.1931 0.156173L20.3784 0.512595H17.9524C16.5373 0.512595 15.3951 0.864381 14.5578 1.55841C14.1235 1.91818 13.2008 2.92774 12.8172 3.35292C9.4895 3.37738 8.41474 5.98154 8.30948 7.41212C8.26135 7.73918 8.228 8.30808 8.49078 8.65163H8.49102C8.62014 8.82444 8.81526 8.92487 9.02086 8.9241C9.52879 8.92513 10.0103 8.92616 10.481 8.92719C10.6263 9.60428 11.048 10.1734 11.6272 10.4747C12.2066 10.7763 12.8811 10.7776 13.4614 10.4783C14.0417 10.1791 14.4651 9.61151 14.6125 8.93495C15.9152 8.93701 17.0195 8.93856 17.9548 8.93933H17.955C18.1035 9.6143 18.5271 10.1806 19.1067 10.4791C19.6863 10.7773 20.3598 10.776 20.9385 10.4752C21.5172 10.1744 21.9386 9.60655 22.0849 8.93079C23.142 8.92049 23.1863 8.90091 23.2504 8.87001C24.1533 8.41135 24.2882 7.68304 24.2882 7.29004V4.94003C24.2917 4.50067 24.1524 4.07393 23.8944 3.73479C23.6361 3.39537 23.2759 3.16488 22.8764 3.08401L21.4017 1.33071L21.587 1.24959C21.8624 1.12571 21.9954 0.786033 21.886 0.486006L21.8859 0.486071ZM12.5479 9.52549C12.2579 9.53167 11.978 9.41244 11.7698 9.19457C11.5613 8.97644 11.4422 8.6777 11.4384 8.36427C11.4346 8.05111 11.5468 7.74902 11.7498 7.5252C11.9528 7.30166 12.2298 7.1747 12.5198 7.17263C12.8097 7.17057 13.0882 7.29367 13.2938 7.51438C13.4996 7.73534 13.6152 8.03588 13.6152 8.34903C13.618 8.65807 13.507 8.95552 13.3069 9.17623C13.1068 9.39694 12.8337 9.52235 12.5479 9.52545L12.5479 9.52549ZM20.0191 9.52549C19.7291 9.53167 19.4492 9.41244 19.241 9.19457C19.0325 8.97644 18.9134 8.6777 18.9096 8.36427C18.9058 8.05111 19.018 7.74902 19.221 7.5252C19.4239 7.30166 19.701 7.1747 19.9909 7.17263C20.2809 7.17057 20.5594 7.29367 20.765 7.51438C20.9708 7.73534 21.0863 8.03588 21.0863 8.34903C21.0892 8.65807 20.9782 8.95552 20.7781 9.17623C20.5779 9.39694 20.3049 9.52235 20.019 9.52545L20.0191 9.52549ZM22.2283 4.04369C22.3236 4.15727 22.457 4.22499 22.5987 4.23144C22.9487 4.24792 23.2239 4.56133 23.221 4.94016V7.28991C23.221 7.37309 23.221 7.56032 22.8953 7.75218C22.7541 7.7545 22.4713 7.7563 22.0827 7.75759V7.75785C21.9341 7.08386 21.5112 6.51859 20.9328 6.22014C20.3541 5.92166 19.6815 5.92217 19.1033 6.22117C18.5249 6.52042 18.1027 7.08621 17.9548 7.76072C16.8856 7.76021 15.7389 7.75892 14.6114 7.75738C14.4629 7.08445 14.0412 6.52017 13.464 6.22145C12.8868 5.92271 12.2156 5.92168 11.6377 6.21835C11.0597 6.51529 10.6366 7.07826 10.486 7.75066C10.0744 7.74989 9.69081 7.74911 9.34939 7.74834C9.35273 7.69194 9.35845 7.63374 9.36631 7.58224C9.36917 7.56369 9.37131 7.54412 9.3725 7.52506C9.3806 7.39861 9.60431 4.43105 13.0245 4.531V4.53125C13.1729 4.53563 13.3161 4.47177 13.4185 4.35587C13.7816 3.94897 14.8094 2.82225 15.1996 2.49881C15.8478 1.96134 16.7743 1.68888 17.9527 1.68888H20.2479L22.2283 4.04369Z" fill="#5F647A"/>
</svg>
