<svg width="77" height="61" viewBox="0 0 77 61" fill="none" xmlns="http://www.w3.org/2000/svg">
<g clip-path="url(#clip0_3307_16969)">
<path d="M10.512 32.9584C9.81008 38.702 7.50677 40.9569 1.89561 41.4004V46.2466H3.3667C4.80837 46.2466 6.25005 46.2466 7.69172 46.2466C8.57228 46.2466 8.9989 46.5365 9.01361 47.1249C9.02832 47.7134 8.57014 48.0497 7.65386 48.0518C6.02935 48.0518 4.40481 48.0518 2.7782 48.0518H2.01331C1.80316 49.4031 2.97581 50.8279 4.46581 50.9939C5.26861 51.0885 6.08823 51.0402 6.89943 51.0633C7.71063 51.0864 8.13306 51.4353 8.07212 52.0132C7.99646 52.7004 7.52564 52.9085 6.89728 52.8811C5.90534 52.837 4.89236 52.9127 3.92565 52.7299C2.84358 52.5326 1.86438 51.9639 1.15689 51.1217C0.449395 50.2795 0.0580114 49.2168 0.0503873 48.1169C0.0377779 45.3429 -0.10723 42.5352 0.260543 39.8031C0.909924 34.999 5.19507 31.3696 10.0518 31.1489C11.7792 31.0711 13.5508 31.1217 15.1459 30.3882C16.5834 29.7283 18.0335 28.9928 19.2692 28.024C22.0012 25.8951 24.5777 23.5896 27.2298 21.3725C30.0425 18.9604 33.6246 17.633 37.3299 17.6297C38.5615 17.6192 39.793 17.6297 41.0245 17.6297C41.6655 17.6297 42.1972 17.7536 42.2497 18.5165C42.2917 19.1301 41.863 19.4244 40.9888 19.4517C39.0532 19.5126 37.1029 19.4622 35.1863 19.6807C32.5425 19.9792 30.2561 21.1897 28.2302 22.9024C25.6916 25.0523 23.1339 27.1812 20.5995 29.3395C17.838 31.6911 14.6647 32.9122 11.029 32.9227C10.8693 32.9269 10.7137 32.9458 10.512 32.9584ZM8.54907 33.2631C5.46399 33.8935 2.27175 37.0817 2.32218 39.4606C5.68467 39.7548 8.83068 36.6466 8.54907 33.2631Z" fill="#566DED"/>
<path d="M42.4683 32.9356H56.3679C56.6033 32.9356 56.9122 32.8538 57.0594 32.9715C57.3746 33.2215 57.7866 33.562 57.8139 33.8919C57.837 34.1609 57.3935 34.5224 57.0804 34.7325C56.8997 34.8586 56.5718 34.7745 56.3091 34.7745H20.3053C20.0699 34.7745 19.7925 34.8439 19.6075 34.7452C19.3091 34.5875 18.9246 34.3542 18.8489 34.0768C18.8226 33.9057 18.8384 33.7308 18.8948 33.5671C18.9511 33.4035 19.0465 33.256 19.1725 33.1374C23.569 30.2456 27.2635 26.4881 31.3847 23.2601C32.8217 22.0939 34.6055 21.4382 36.4557 21.3961C38.6035 21.3519 40.7514 21.3624 42.9012 21.3624C43.4981 21.3624 43.952 21.6146 43.9372 22.2766C43.9225 22.9386 43.498 23.176 42.8865 23.176C42.7454 23.1846 42.605 23.2022 42.4662 23.2286L42.4683 32.9356ZM40.5769 32.9021V23.1908H37.1703C35.2902 23.1681 33.4681 23.8418 32.055 25.0822C30.0649 26.7845 28.0516 28.4594 26.0488 30.149C24.998 31.0317 23.9473 31.9185 22.7831 32.9084L40.5769 32.9021Z" fill="#566DED"/>
<path d="M25.8849 52.7344C25.8823 54.3189 25.4098 55.8671 24.527 57.1829C23.6441 58.4986 22.3907 59.523 20.9255 60.1261C19.4602 60.7292 17.849 60.8839 16.2957 60.5708C14.7424 60.2577 13.317 59.4908 12.1998 58.3671C11.0826 57.2435 10.324 55.8136 10.0198 54.2585C9.71572 52.7035 9.87981 51.0932 10.4914 49.6314C11.1029 48.1697 12.1344 46.9223 13.4553 46.0471C14.7762 45.1719 16.3271 44.7083 17.9116 44.7149C20.031 44.7255 22.0598 45.5752 23.5542 47.0782C25.0485 48.5812 25.8866 50.615 25.8849 52.7344ZM17.8737 58.9067C19.094 58.9067 20.287 58.5452 21.3021 57.8678C22.3171 57.1904 23.1088 56.2275 23.5771 55.1006C24.0455 53.9737 24.1696 52.7334 23.9336 51.536C23.6977 50.3387 23.1123 49.2382 22.2515 48.3732C21.3906 47.5083 20.2928 46.9177 19.0967 46.6761C17.9005 46.4345 16.6595 46.5526 15.5304 47.0155C14.4013 47.4785 13.4347 48.2655 12.7525 49.2774C12.0703 50.2892 11.7031 51.4805 11.6973 52.7008C11.6939 54.343 12.3429 55.9193 13.5016 57.0831C14.6602 58.2469 16.2337 58.9028 17.8759 58.9067H17.8737Z" fill="#566DED"/>
<path d="M53.3459 52.7414C53.3463 51.156 53.8172 49.6063 54.6989 48.2886C55.5805 46.9709 56.8333 45.9444 58.2986 45.3392C59.764 44.7339 61.376 44.5771 62.9306 44.8885C64.4851 45.1999 65.9123 45.9655 67.0315 47.0885C68.1506 48.2114 68.9114 49.6412 69.2175 51.1969C69.5236 52.7525 69.3612 54.364 68.7509 55.8273C68.1406 57.2905 67.1099 58.5398 65.7892 59.4169C64.4685 60.2941 62.9172 60.7596 61.3318 60.7546C59.2105 60.7502 57.1777 59.9036 55.6802 58.401C54.1827 56.8985 53.3431 54.8628 53.3459 52.7414ZM61.3318 58.9074C62.5519 58.9061 63.7443 58.5435 64.7585 57.8654C65.7728 57.1873 66.5634 56.2239 67.0308 55.0969C67.4981 53.9699 67.6213 52.7297 67.3847 51.5328C67.148 50.3359 66.5622 49.236 65.7011 48.3717C64.84 47.5073 63.7422 46.9174 62.5462 46.6762C61.3502 46.4351 60.1095 46.5537 58.9808 47.0168C57.8521 47.48 56.8858 48.267 56.2038 49.2787C55.5219 50.2904 55.1549 51.4814 55.149 52.7015C55.144 53.5161 55.3005 54.3236 55.6093 55.0774C55.9181 55.8313 56.3731 56.5164 56.9481 57.0934C57.5231 57.6704 58.2068 58.1278 58.9596 58.4391C59.7123 58.7505 60.5194 58.9096 61.334 58.9074H61.3318Z" fill="#566DED"/>
<path d="M74.8679 48.0382C73.6175 48.0382 72.3629 48.0382 71.1082 48.0382C70.3159 48.0382 69.8641 47.7103 69.904 47.1324C69.9545 46.3779 70.4799 46.2287 71.1251 46.235C72.386 46.2455 73.6301 46.235 74.9205 46.235V45.0224C74.3362 45.0224 73.7457 45.0224 73.1552 45.0224C71.6505 44.9993 70.8266 44.1818 70.8077 42.6813C70.7972 41.8953 70.7867 41.1094 70.8182 40.3234C70.8182 40.0538 70.8713 39.7868 70.9745 39.5377C71.0777 39.2886 71.2289 39.0621 71.4196 38.8715C71.6102 38.6808 71.8366 38.5296 72.0857 38.4264C72.3348 38.3233 72.6018 38.2702 72.8715 38.2702C73.5229 38.2428 74.1765 38.2702 74.8154 38.2702C75.2042 36.9336 75.0151 36.4522 74.0526 35.6684C72.407 34.3297 70.8014 32.9363 69.1811 31.5745C68.6915 31.1542 68.4014 30.6856 68.8806 30.0888C69.2651 29.6117 69.7968 29.7021 70.4441 30.2506C72.1443 31.688 73.8424 33.1255 75.5762 34.5209C76.3937 35.1787 76.8245 35.9606 76.8203 37.0134C76.8098 40.6302 76.8202 44.249 76.8097 47.8658C76.8219 49.0849 76.3847 50.2659 75.5815 51.183C74.7783 52.1002 73.6654 52.6894 72.4554 52.8381C71.8249 52.9264 71.31 52.773 71.1944 52.1026C71.0788 51.4322 71.5369 51.1295 72.159 51.0223C73.8571 50.7218 74.9289 49.5618 74.8679 48.0382ZM74.9141 40.1153C74.2647 40.1153 73.6932 40.088 73.1257 40.1321C72.9471 40.1447 72.634 40.3423 72.6319 40.4684C72.615 41.309 72.6613 42.1748 72.6886 43.028C73.3485 43.0763 74.0105 43.1268 74.6725 43.1667C74.7397 43.1667 74.8111 43.1226 74.9141 43.089V40.1153Z" fill="#566DED"/>
<path d="M39.5282 52.8992C35.9934 52.8992 32.4579 52.8992 28.9217 52.8992C28.308 52.8992 27.8057 52.7668 27.73 52.0586C27.7107 51.9473 27.7147 51.8333 27.7418 51.7237C27.7689 51.6141 27.8185 51.5114 27.8875 51.422C27.9565 51.3327 28.0434 51.2587 28.1425 51.2047C28.2417 51.1507 28.351 51.1181 28.4635 51.1086C28.749 51.0701 29.0373 51.0567 29.3252 51.0687H50.3785C50.9985 51.0687 51.4987 51.2789 51.4882 51.9892C51.4777 52.6995 51.0027 52.895 50.368 52.895C46.7562 52.895 43.1429 52.8964 39.5282 52.8992Z" fill="#566DED"/>
<path d="M38.1012 37.8029C38.5993 37.8029 39.0995 37.7756 39.5934 37.8029C40.1314 37.8386 40.4782 38.135 40.4845 38.7024C40.4947 38.8216 40.4794 38.9414 40.4396 39.0542C40.3998 39.167 40.3365 39.27 40.2538 39.3563C40.171 39.4426 40.0708 39.5103 39.9598 39.5549C39.8488 39.5994 39.7296 39.6197 39.6102 39.6145C38.6161 39.6544 37.62 39.6523 36.6259 39.6145C36.0984 39.5935 35.7328 39.2908 35.737 38.715C35.737 38.1055 36.1132 37.8218 36.689 37.7945C37.1598 37.7735 37.6305 37.7945 38.1012 37.7945V37.8029Z" fill="#566DED"/>
<path fill-rule="evenodd" clip-rule="evenodd" d="M59 28C65.6274 28 71 22.6274 71 16C71 9.37258 65.6274 4 59 4C52.3726 4 47 9.37258 47 16C47 22.6274 52.3726 28 59 28ZM59 30C66.732 30 73 23.732 73 16C73 8.26801 66.732 2 59 2C51.268 2 45 8.26801 45 16C45 23.732 51.268 30 59 30Z" fill="#566DED"/>
<path d="M56.7048 18.6339C59.0233 16.314 61.2395 14.0962 63.4573 11.88C63.6014 11.727 63.7542 11.5823 63.9149 11.4467C64.0976 11.2969 64.3291 11.2195 64.5653 11.2294C64.8014 11.2392 65.0256 11.3356 65.1953 11.5001C65.3649 11.6647 65.4681 11.8859 65.4852 12.1217C65.5022 12.3574 65.4319 12.5912 65.2876 12.7784C65.1814 12.9121 65.0651 13.0375 64.9398 13.1536C62.5329 15.5605 60.1266 17.9669 57.7207 20.3728C56.9413 21.1507 56.5538 21.1461 55.7622 20.3545C55.2649 19.8573 54.7646 19.363 54.2704 18.8627C53.7763 18.3624 53.7061 17.7859 54.1179 17.3588C54.5511 16.9012 55.1109 16.9501 55.66 17.5007C56.0062 17.8515 56.3265 18.2236 56.7048 18.6339Z" fill="#566DED"/>
</g>
<defs>
<clipPath id="clip0_3307_16969">
<rect width="76.8203" height="60.7539" fill="white"/>
</clipPath>
</defs>
</svg>
