<svg viewBox="0 0 30 30" fill="none" xmlns="http://www.w3.org/2000/svg">
<path d="M5.06776 10.4527C5.06776 10.27 4.91892 10.1219 4.73698 10.1219H4.03472C4.11655 8.46693 4.80386 6.97086 5.88568 5.85246L6.45806 6.42389C6.52258 6.48841 6.60774 6.52067 6.69206 6.52067C6.77639 6.52067 6.86168 6.48841 6.92606 6.42389C7.05511 6.29484 7.05511 6.0848 6.92606 5.95657L6.36874 5.39911C7.44389 4.48761 8.81357 3.91867 10.3114 3.84419V4.55383C10.3114 4.73659 10.4603 4.88461 10.6422 4.88461C10.8241 4.88461 10.973 4.73659 10.973 4.55383V3.85334C12.2607 3.91703 13.4881 4.32977 14.5342 5.09062C14.6814 5.19654 14.8883 5.16511 14.9966 5.01779C15.1042 4.86977 15.0719 4.6629 14.9237 4.55547C13.6732 3.64645 12.1927 3.16602 10.6419 3.16602C6.62404 3.16602 3.35449 6.43468 3.35449 10.4534C3.35449 10.6361 3.50334 10.7842 3.68527 10.7842H4.73565C4.91952 10.7835 5.06754 10.6353 5.06754 10.4525L5.06776 10.4527Z" fill="#5F647A"/>
<path d="M16.4162 7.20083C16.9199 8.09155 17.1962 9.09648 17.2474 10.1221H16.5486C16.3658 10.1221 16.2178 10.2701 16.2178 10.4529C16.2178 10.6356 16.3666 10.7836 16.5486 10.7836H17.5997C17.7825 10.7836 17.9305 10.6356 17.9305 10.4529C17.9305 9.19896 17.6054 7.96168 16.9926 6.87493C16.9016 6.71612 16.6989 6.6599 16.5419 6.75004C16.3831 6.83949 16.3269 7.04206 16.4162 7.20088L16.4162 7.20083Z" fill="#5F647A"/>
<path d="M10.6323 20.4777H10.6431C16.0738 20.4777 20.496 16.0636 20.501 10.6372C20.5051 5.2001 16.0925 0.771116 10.6512 0.763672C5.21308 0.763672 0.786575 5.18273 0.785157 10.6159C0.783495 16.048 5.19997 20.4731 10.6321 20.4781L10.6323 20.4777ZM10.6629 1.4251C15.727 1.43257 19.8434 5.56484 19.8384 10.6361C19.8351 15.6985 15.7097 19.8166 10.643 19.8166V20.1474L10.6322 19.8166C5.56591 19.811 1.4453 15.684 1.44778 10.6145C1.44944 5.54712 5.57725 1.42474 10.6631 1.42474L10.6629 1.4251Z" fill="#5F647A"/>
<path d="M8.94687 10.8108C8.91461 11.2739 9.10568 11.7363 9.48451 12.1143C9.83441 12.4617 10.2414 12.6461 10.6631 12.6461C11.1494 12.6461 11.6077 12.4079 11.9897 11.9571C12.0815 11.848 12.1741 11.7371 12.2576 11.6205C16.7065 5.44968 16.7022 5.43727 16.632 5.2331C16.5856 5.0999 16.4601 5.00977 16.3194 5.00977C16.0382 5.00977 9.71684 9.55608 9.65481 9.60181C9.22974 9.92276 8.97828 10.352 8.94684 10.811L8.94687 10.8108ZM10.0535 10.1301C10.9558 9.45112 13.3906 7.74652 14.9918 6.63993C13.9084 8.16592 12.3039 10.4238 11.7215 11.232C11.647 11.3346 11.566 11.4322 11.4842 11.5288C11.2327 11.8257 10.949 11.9837 10.6637 11.9837C10.4213 11.9837 10.1749 11.8663 9.95239 11.6446C9.71174 11.4039 9.58935 11.1244 9.60748 10.8555C9.62576 10.5867 9.77959 10.3369 10.0533 10.1302L10.0535 10.1301Z" fill="#5F647A"/>
<path d="M13.4149 15.3125H7.8718C7.68903 15.3125 7.54102 15.4605 7.54102 15.6433C7.54102 15.826 7.68986 15.9741 7.8718 15.9741H13.4149C13.5976 15.9741 13.7456 15.826 13.7456 15.6433C13.7458 15.4605 13.5978 15.3125 13.415 15.3125H13.4149Z" fill="#5F647A"/>
<path d="M12.7223 16.877H8.56125C8.37848 16.877 8.23047 17.025 8.23047 17.2077C8.23047 17.3905 8.37931 17.5385 8.56125 17.5385H12.7223C12.905 17.5385 13.053 17.3905 13.053 17.2077C13.053 17.025 12.905 16.877 12.7223 16.877Z" fill="#5F647A"/>
</svg>
