<svg viewBox="0 0 35 19" fill="none" xmlns="http://www.w3.org/2000/svg">
<path d="M0.128757 13.6773C0.128757 13.3858 0.187408 12.6479 0.578766 12.2801C1.57386 11.3503 7.24874 9.98994 9.31701 9.44866C9.84539 9.18601 13.538 7.27918 14.7176 6.80641C15.5562 6.46754 18.8715 6.08929 22.2648 6.08929H22.2651C24.2441 6.0656 26.2216 6.20537 28.1746 6.50695C28.3702 5.01497 29.4185 3.05825 29.8238 2.41215C30.3465 1.57965 31.6715 1.37727 32.0376 1.07775V1.07799C32.5865 0.596305 33.2619 0.260974 33.9944 0.106144C34.1399 0.0651046 34.2972 0.0815196 34.4295 0.151639C34.5617 0.221994 34.6581 0.339716 34.696 0.477844C34.7342 0.616207 34.7105 0.76301 34.6309 0.884485C34.5513 1.00619 34.4225 1.09203 34.274 1.12251C33.7129 1.23906 33.1968 1.49796 32.7812 1.87109C32.2221 2.3176 31.0733 2.50145 30.7965 2.94541C30.3325 3.68084 29.3988 5.54312 29.2815 6.7356C30.805 7.21869 32.7059 8.76832 33.2901 9.3225C34.0224 10.0002 33.8939 11.2558 34.1035 11.6706C34.682 12.7527 34.5872 13.1915 34.6374 14.0108C34.6878 14.8302 34.6094 15.5394 33.0944 16.112C32.5498 16.2832 31.9878 16.4002 31.4172 16.4615C31.1469 17.2354 30.5556 17.8741 29.7774 18.2332C28.9992 18.592 28.0997 18.6406 27.2828 18.3678C26.4659 18.0953 25.8007 17.5243 25.4378 16.7846L9.22452 17.2337C8.62975 18.0473 7.64914 18.5364 6.59858 18.5437C5.54809 18.5512 4.55995 18.0756 3.95244 17.2705C3.01198 17.2428 2.0763 17.1338 1.15705 16.9448C0.796394 16.866 0.374332 16.1568 0.209358 15.86C-0.148556 15.2296 0.0583572 14.0294 0.128246 13.6774L0.128757 13.6773ZM28.3626 17.4858C28.9226 17.4872 29.46 17.2792 29.8566 16.9075C30.2532 16.5361 30.4758 16.0316 30.4758 15.5054C30.4758 14.9794 30.253 14.4747 29.8566 14.1033C29.46 13.7318 28.9227 13.5238 28.3626 13.525C27.8025 13.5264 27.2664 13.7372 26.8718 14.1108C26.4774 14.4842 26.2575 14.9898 26.2605 15.516C26.2613 16.0404 26.4832 16.5429 26.8778 16.9137C27.2724 17.2844 27.8075 17.4931 28.3653 17.4938L28.3626 17.4858ZM6.55849 17.4858C7.11856 17.4872 7.65594 17.2792 8.05253 16.9075C8.44913 16.5361 8.67176 16.0316 8.67176 15.5054C8.67176 14.9794 8.44888 14.4747 8.05253 14.1033C7.65594 13.7318 7.11859 13.5238 6.55849 13.525C5.99841 13.5264 5.46231 13.7372 5.06769 14.1108C4.67334 14.4842 4.45345 14.9898 4.45645 15.516C4.4572 16.0404 4.67908 16.5429 5.07368 16.9137C5.46829 17.2844 6.00342 17.4931 6.56122 17.4938L6.55849 17.4858ZM1.18583 15.3846C1.29066 15.5847 1.4162 15.7748 1.56046 15.9519C2.1752 16.0675 2.79696 16.1482 3.42217 16.1937C3.19879 15.296 3.42291 14.3518 4.03066 13.6281C4.63841 12.9047 5.56388 12.4805 6.54479 12.476C7.5259 12.4716 8.45563 12.8871 9.07087 13.605C9.68635 14.323 9.91997 15.2651 9.70607 16.1647L25.159 15.7419C25.0896 14.6628 25.6382 13.6308 26.5981 13.0349C27.558 12.4387 28.7835 12.3691 29.8128 12.8522C30.8421 13.3353 31.519 14.2977 31.5884 15.3767C31.9682 15.3301 32.3426 15.2501 32.7065 15.1378C33.5955 14.8015 33.5843 14.6307 33.5451 14.0871C33.4947 13.2992 33.601 13.0365 33.1286 12.1541C32.8016 11.542 32.8994 10.4417 32.5136 10.0792C31.8093 9.41997 29.8607 7.89658 28.6587 7.67331C26.5584 7.29106 24.4217 7.11494 22.2824 7.14801C18.6988 7.14801 15.7019 7.56567 15.1684 7.77837C13.9748 8.25912 9.85715 10.3866 9.81249 10.4049C9.53295 10.5468 2.4352 12.1778 1.38988 13.0314C1.26684 13.1916 1.26134 13.7774 1.24737 13.8482C1.11883 14.3946 1.06841 15.1666 1.18871 15.3899L1.18583 15.3846Z" fill="#5F647A"/>
</svg>
