<svg width="40" height="40" viewBox="0 0 40 40" fill="none" xmlns="http://www.w3.org/2000/svg">
<path fill-rule="evenodd" clip-rule="evenodd" d="M20 6.25C16.3533 6.25 12.8559 7.69866 10.2773 10.2773C7.69866 12.8559 6.25 16.3533 6.25 20C6.25 21.8057 6.60565 23.5937 7.29666 25.2619C7.98766 26.9301 9.00048 28.4459 10.2773 29.7227C11.5541 30.9995 13.0699 32.0123 14.7381 32.7033C16.4063 33.3943 18.1943 33.75 20 33.75C21.8057 33.75 23.5937 33.3943 25.2619 32.7033C26.9301 32.0123 28.4459 30.9995 29.7227 29.7227C30.9995 28.4459 32.0123 26.9301 32.7033 25.2619C33.3943 23.5937 33.75 21.8057 33.75 20C33.75 16.3533 32.3013 12.8559 29.7227 10.2773C27.1441 7.69866 23.6467 6.25 20 6.25ZM8.50951 8.50951C11.557 5.46205 15.6902 3.75 20 3.75C24.3098 3.75 28.443 5.46205 31.4905 8.50951C34.5379 11.557 36.25 15.6902 36.25 20C36.25 22.134 35.8297 24.2471 35.013 26.2186C34.1964 28.1901 32.9994 29.9815 31.4905 31.4905C29.9815 32.9994 28.1901 34.1964 26.2186 35.013C24.2471 35.8297 22.134 36.25 20 36.25C17.866 36.25 15.7529 35.8297 13.7814 35.013C11.8099 34.1964 10.0185 32.9994 8.50951 31.4905C7.00056 29.9815 5.8036 28.1901 4.98696 26.2186C4.17032 24.2471 3.75 22.134 3.75 20C3.75 15.6902 5.46205 11.557 8.50951 8.50951ZM25.8839 15.7828C26.372 16.2709 26.372 17.0624 25.8839 17.5505L19.2172 24.2172C18.7291 24.7054 17.9376 24.7054 17.4494 24.2172L14.1161 20.8839C13.628 20.3957 13.628 19.6043 14.1161 19.1161C14.6043 18.628 15.3957 18.628 15.8839 19.1161L18.3333 21.5656L24.1161 15.7828C24.6043 15.2946 25.3957 15.2946 25.8839 15.7828Z" fill="#566DED"/>
</svg>
