<svg width="20" height="20" viewBox="0 0 40 40" fill="none" xmlns="http://www.w3.org/2000/svg">
<path fill-rule="evenodd" clip-rule="evenodd" d="M10.5861 14.586C10.9611 14.211 11.4697 14.0004 12.0001 14.0004C12.5304 14.0004 13.039 14.211 13.4141 14.586L20.0001 21.172L26.5861 14.586C26.7706 14.395 26.9912 14.2426 27.2353 14.1378C27.4793 14.033 27.7417 13.9778 28.0073 13.9755C28.2728 13.9732 28.5362 14.0238 28.782 14.1243C29.0278 14.2249 29.2511 14.3734 29.4389 14.5612C29.6266 14.749 29.7751 14.9723 29.8757 15.2181C29.9763 15.4639 30.0269 15.7272 30.0246 15.9928C30.0223 16.2583 29.9671 16.5208 29.8623 16.7648C29.7574 17.0088 29.6051 17.2295 29.4141 17.414L21.4141 25.414C21.039 25.7889 20.5304 25.9996 20.0001 25.9996C19.4697 25.9996 18.9611 25.7889 18.5861 25.414L10.5861 17.414C10.2111 17.0389 10.0005 16.5303 10.0005 16C10.0005 15.4697 10.2111 14.961 10.5861 14.586Z" fill="#2F365B"/>
</svg>
