<svg width="20" height="20" viewBox="0 0 28 28" fill="#87899C" xmlns="http://www.w3.org/2000/svg">
    <path fill-rule="evenodd" clip-rule="evenodd"
        d="M3.79175 6.99999C3.79175 5.22808 5.22817 3.79166 7.00008 3.79166H9.33341C11.1053 3.79166 12.5417 5.22808 12.5417 6.99999V9.33332C12.5417 11.1052 11.1053 12.5417 9.33341 12.5417H7.00008C5.22817 12.5417 3.79175 11.1052 3.79175 9.33332V6.99999ZM7.00008 5.54166C6.19467 5.54166 5.54175 6.19457 5.54175 6.99999V9.33332C5.54175 10.1387 6.19467 10.7917 7.00008 10.7917H9.33341C10.1388 10.7917 10.7917 10.1387 10.7917 9.33332V6.99999C10.7917 6.19457 10.1388 5.54166 9.33341 5.54166H7.00008ZM15.4584 6.99999C15.4584 5.22808 16.8948 3.79166 18.6667 3.79166H21.0001C22.772 3.79166 24.2084 5.22808 24.2084 6.99999V9.33332C24.2084 11.1052 22.772 12.5417 21.0001 12.5417H18.6667C16.8948 12.5417 15.4584 11.1052 15.4584 9.33332V6.99999ZM18.6667 5.54166C17.8613 5.54166 17.2084 6.19457 17.2084 6.99999V9.33332C17.2084 10.1387 17.8613 10.7917 18.6667 10.7917H21.0001C21.8055 10.7917 22.4584 10.1387 22.4584 9.33332V6.99999C22.4584 6.19457 21.8055 5.54166 21.0001 5.54166H18.6667ZM3.79175 18.6667C3.79175 16.8947 5.22817 15.4583 7.00008 15.4583H9.33341C11.1053 15.4583 12.5417 16.8947 12.5417 18.6667V21C12.5417 22.7719 11.1053 24.2083 9.33341 24.2083H7.00008C5.22817 24.2083 3.79175 22.7719 3.79175 21V18.6667ZM7.00008 17.2083C6.19467 17.2083 5.54175 17.8612 5.54175 18.6667V21C5.54175 21.8054 6.19467 22.4583 7.00008 22.4583H9.33341C10.1388 22.4583 10.7917 21.8054 10.7917 21V18.6667C10.7917 17.8612 10.1388 17.2083 9.33341 17.2083H7.00008ZM15.4584 18.6667C15.4584 16.8947 16.8948 15.4583 18.6667 15.4583H21.0001C22.772 15.4583 24.2084 16.8947 24.2084 18.6667V21C24.2084 22.7719 22.772 24.2083 21.0001 24.2083H18.6667C16.8948 24.2083 15.4584 22.7719 15.4584 21V18.6667ZM18.6667 17.2083C17.8613 17.2083 17.2084 17.8612 17.2084 18.6667V21C17.2084 21.8054 17.8613 22.4583 18.6667 22.4583H21.0001C21.8055 22.4583 22.4584 21.8054 22.4584 21V18.6667C22.4584 17.8612 21.8055 17.2083 21.0001 17.2083H18.6667Z"
        fill="current" />
</svg>