<svg width="20" height="20" viewBox="0 0 28 28" fill="#87899C" xmlns="http://www.w3.org/2000/svg">
    <path fill-rule="evenodd" clip-rule="evenodd"
        d="M10.3249 7.00001C10.3249 6.51676 10.7167 6.12501 11.1999 6.12501H23.0999C23.5832 6.12501 23.9749 6.51676 23.9749 7.00001C23.9749 7.48326 23.5832 7.87501 23.0999 7.87501H11.1999C10.7167 7.87501 10.3249 7.48326 10.3249 7.00001ZM10.3249 14C10.3249 13.5168 10.7167 13.125 11.1999 13.125H23.0999C23.5832 13.125 23.9749 13.5168 23.9749 14C23.9749 14.4833 23.5832 14.875 23.0999 14.875H11.1999C10.7167 14.875 10.3249 14.4833 10.3249 14ZM10.3249 21C10.3249 20.5168 10.7167 20.125 11.1999 20.125H23.0999C23.5832 20.125 23.9749 20.5168 23.9749 21C23.9749 21.4833 23.5832 21.875 23.0999 21.875H11.1999C10.7167 21.875 10.3249 21.4833 10.3249 21Z"
        fill="current" />
    <path fill-rule="evenodd" clip-rule="evenodd"
        d="M4.48621 5.18631C4.78158 4.89094 5.18219 4.72501 5.5999 4.72501H6.9999C7.41762 4.72501 7.81823 4.89094 8.1136 5.18631C8.40897 5.48168 8.5749 5.88229 8.5749 6.30001V7.70001C8.5749 8.11772 8.40897 8.51833 8.1136 8.8137C7.81823 9.10907 7.41762 9.27501 6.9999 9.27501H5.5999C5.18219 9.27501 4.78158 9.10907 4.48621 8.8137C4.19084 8.51833 4.0249 8.11772 4.0249 7.70001V6.30001C4.0249 5.88229 4.19084 5.48168 4.48621 5.18631ZM5.7749 6.47501V7.52501H6.8249V6.47501H5.7749Z"
        fill="current" />
    <path fill-rule="evenodd" clip-rule="evenodd"
        d="M4.48621 12.1863C4.78158 11.8909 5.18219 11.725 5.5999 11.725H6.9999C7.41762 11.725 7.81823 11.8909 8.1136 12.1863C8.40897 12.4817 8.5749 12.8823 8.5749 13.3V14.7C8.5749 15.1177 8.40897 15.5183 8.1136 15.8137C7.81823 16.1091 7.41762 16.275 6.9999 16.275H5.5999C5.18219 16.275 4.78158 16.1091 4.48621 15.8137C4.19084 15.5183 4.0249 15.1177 4.0249 14.7V13.3C4.0249 12.8823 4.19084 12.4817 4.48621 12.1863ZM5.7749 13.475V14.525H6.8249V13.475H5.7749Z"
        fill="current" />
    <path fill-rule="evenodd" clip-rule="evenodd"
        d="M4.48621 19.1863C4.78158 18.8909 5.18219 18.725 5.5999 18.725H6.9999C7.41762 18.725 7.81823 18.8909 8.1136 19.1863C8.40897 19.4817 8.5749 19.8823 8.5749 20.3V21.7C8.5749 22.1177 8.40897 22.5183 8.1136 22.8137C7.81823 23.1091 7.41762 23.275 6.9999 23.275H5.5999C5.18219 23.275 4.78158 23.1091 4.48621 22.8137C4.19084 22.5183 4.0249 22.1177 4.0249 21.7V20.3C4.0249 19.8823 4.19084 19.4817 4.48621 19.1863ZM5.7749 20.475V21.525H6.8249V20.475H5.7749Z"
        fill="current" />
</svg>