<svg width="70" height="70" viewBox="0 0 70 70" fill="none" xmlns="http://www.w3.org/2000/svg">
<path d="M42.7498 11.2C42.7847 11.2265 42.8149 11.2638 42.8535 11.2771C44.2339 11.735 44.8826 12.6111 44.885 14.0609C44.8898 17.6701 44.8862 21.2794 44.8862 24.8887C44.8862 26.8133 44.8862 28.739 44.8862 30.6636C44.8862 30.8262 44.8862 30.9877 44.8862 31.2757C45.8712 30.0249 47.0564 29.6163 48.5237 29.9947C48.8143 29.1753 49.299 28.5317 50.0694 28.1304C50.8277 27.7364 51.6175 27.6918 52.4602 27.9244C52.5205 27.7942 52.5772 27.6773 52.6302 27.5592C53.1414 26.4156 54.0577 25.8263 55.2755 25.754C56.4618 25.6829 57.4662 26.1336 58.034 27.2013C59.4435 29.8513 60.9674 32.4495 61.9995 35.2827C62.4251 36.4517 62.7566 37.6556 63.1449 38.8378C63.4258 39.691 63.6802 40.5574 64.0334 41.3805C64.9196 43.4461 64.1528 45.8744 62.2165 46.983C61.7535 47.2482 61.3894 47.1831 61.1712 46.7963C60.9602 46.4227 61.0711 46.1106 61.516 45.8298C62.9905 44.8982 63.4089 43.3509 62.718 41.7517C62.3274 40.8479 62.0513 39.891 61.7812 38.9414C61.1832 36.8421 60.4562 34.7934 59.4664 32.846C58.6369 31.2131 57.7784 29.5934 56.9284 27.9702C56.6138 27.3688 56.111 27.0567 55.4286 27.0832C54.7643 27.1085 54.2434 27.405 53.9275 28.0015C53.7226 28.3907 53.6767 28.7836 53.9143 29.1994C54.2699 29.826 54.5894 30.4731 54.9222 31.1119C55.2321 31.706 55.179 32.0567 54.7498 32.2675C54.3374 32.47 54.0252 32.3133 53.7322 31.7566C53.4103 31.1456 53.0655 30.5443 52.7749 29.9188C52.4988 29.3247 52.031 29.1307 51.4282 29.1487C50.6722 29.1716 49.991 29.7115 49.8439 30.4515C49.7981 30.6816 49.8319 30.9672 49.9331 31.1793C50.2743 31.8976 50.665 32.5929 51.0315 33.2991C51.2823 33.7848 51.2015 34.1403 50.8097 34.3367C50.4142 34.5355 50.0838 34.3994 49.8295 33.9209C49.5051 33.3112 49.1615 32.7086 48.8758 32.082C48.5768 31.4288 48.0836 31.1745 47.3976 31.2215C46.7429 31.2661 46.1244 31.7506 45.9171 32.3736C45.776 32.7954 45.8134 33.1991 46.0244 33.592C46.3511 34.2005 46.6718 34.8127 46.9877 35.4273C47.2349 35.907 47.1517 36.2576 46.7586 36.4601C46.3644 36.6626 46.0412 36.53 45.7832 36.0395C43.9615 32.5688 42.1421 29.0957 40.3228 25.6238C40.2601 25.5045 40.1986 25.384 40.1347 25.2647C39.644 24.3621 38.9073 24.0608 38.0862 24.4272C37.2097 24.8176 36.7841 25.7841 37.106 26.6747C37.1772 26.8711 37.2797 27.0579 37.3761 27.2435C39.4173 31.142 41.4597 35.0405 43.5009 38.939C43.5359 39.0053 43.5696 39.0728 43.607 39.1378C43.7963 39.4632 43.8614 39.7922 43.5708 40.0899C43.2803 40.3875 42.9535 40.3237 42.6208 40.1453C41.573 39.5873 40.5217 39.0366 39.4728 38.4835C39.3799 38.4341 39.2859 38.3871 39.1918 38.3401C38.255 37.8665 37.3653 38.146 36.9143 39.0535C36.4622 39.9633 36.7552 40.8744 37.6751 41.3311C40.9967 42.9821 44.3208 44.6295 47.652 46.2624C48.631 46.742 49.3809 47.4265 49.9018 48.3906C50.7735 50.0018 52.5024 50.5285 54.1421 49.6933C55.4141 49.0462 56.668 48.3641 57.9412 47.7194C58.1377 47.6193 58.4367 47.5446 58.6103 47.6254C58.8045 47.7158 59.0106 47.9881 59.0275 48.1966C59.0444 48.3966 58.8792 48.7148 58.702 48.8112C57.2371 49.6054 55.7818 50.4321 54.2615 51.1081C52.2963 51.9818 49.8789 51.1238 48.8384 49.239C48.3561 48.3665 47.7123 47.7447 46.8044 47.3518C46.1775 47.0807 45.5746 46.7529 44.8862 46.4142C44.8862 46.683 44.8862 46.8601 44.8862 47.0361C44.8862 49.5017 44.8874 51.9686 44.8862 54.4342C44.885 56.331 43.818 57.4 41.9263 57.4C35.1119 57.4 28.2986 57.4 21.4842 57.4C19.5419 57.4 18.9306 56.9974 18.2 55.2344V13.3655C18.5219 12.2436 19.2429 11.5205 20.3665 11.2H22.8936C23.224 11.4145 23.4265 11.6868 23.2879 12.1038C23.1528 12.5135 22.8237 12.5629 22.4548 12.5569C21.9134 12.5485 21.3721 12.5436 20.8319 12.5605C20.1977 12.5798 19.6504 12.9919 19.5949 13.5981C19.5298 14.3224 19.5792 15.0563 19.5792 15.7842H43.5322C43.5322 15.231 43.5322 14.708 43.5322 14.185C43.5298 13.0076 43.0729 12.5545 41.8913 12.5545C36.8263 12.5545 31.7601 12.5545 26.6951 12.5569C26.3298 12.5569 25.9958 12.5268 25.8559 12.1146C25.7161 11.6989 25.9126 11.4241 26.2333 11.2C31.7384 11.2 37.2447 11.2 42.7498 11.2ZM36.7829 42.4699C35.4519 43.8052 33.8266 44.5921 31.9108 44.6656C27.2075 44.8464 23.6845 40.9129 24.332 36.2396C24.8757 32.3133 28.8544 29.4536 32.7572 30.1839C35.9956 30.7913 38.3431 33.2449 38.7867 36.4746C38.8036 36.5975 38.8892 36.7626 38.9893 36.812C39.6331 37.1313 40.289 37.4242 40.9413 37.7255C41.0799 37.7893 41.2186 37.8544 41.432 37.9532C41.3693 37.805 41.35 37.7496 41.3235 37.6989C39.6717 34.5464 38.0223 31.3926 36.3561 28.2473C36.2814 28.1063 36.045 27.9762 35.8811 27.9714C34.9346 27.9448 33.9858 27.9581 33.0393 27.9581C29.6707 27.9581 26.3008 27.9605 22.9322 27.9569C21.9218 27.9557 21.225 27.3447 21.2093 26.3818C21.1816 24.7586 21.1816 23.1341 21.2105 21.5108C21.2274 20.5997 21.9074 19.9622 22.8152 19.961C28.6362 19.955 34.4572 19.955 40.2781 19.961C41.1872 19.961 41.8395 20.6202 41.8636 21.5241C41.8793 22.0953 41.9179 22.6725 41.8588 23.2377C41.6852 24.8996 42.0324 26.4156 42.9885 27.793C43.1669 28.0497 43.2863 28.3486 43.4322 28.6269L43.5021 28.5884V17.1989H19.5877V48.4256H43.5322C43.5322 47.6398 43.5202 46.8782 43.5383 46.1154C43.5455 45.8334 43.4479 45.6912 43.1935 45.5695C41.0679 44.5524 38.9483 43.5196 36.7817 42.4699H36.7829ZM43.5105 49.8355H19.5539C19.5539 51.4443 19.5503 53.0206 19.5551 54.5957C19.5575 55.5308 20.0711 56.043 21.0104 56.043C28.031 56.0454 35.0516 56.0454 42.0734 56.043C43.0066 56.043 43.5214 55.5369 43.5298 54.5921C43.5419 53.1038 43.5335 51.6167 43.5322 50.1284C43.5322 50.0404 43.5202 49.9524 43.5118 49.8355H43.5105ZM35.8063 41.4661C35.306 40.6334 35.1709 39.7356 35.4856 38.7992C35.8087 37.8387 36.5104 37.2386 37.4195 36.8831C37.4581 34.4524 35.1938 31.9759 32.5438 31.518C29.6984 31.0263 26.9049 32.6725 25.9331 35.4117C24.9674 38.1328 26.1224 41.172 28.6543 42.5808C31.0126 43.892 34.2884 43.3882 35.8063 41.4649V41.4661ZM40.5133 23.5739C40.5133 22.9509 40.4928 22.399 40.5205 21.8482C40.541 21.4397 40.4108 21.3023 39.9852 21.3035C34.3631 21.3168 28.7423 21.3168 23.1203 21.3035C22.6899 21.3035 22.5367 21.424 22.544 21.8627C22.5657 23.2449 22.5512 24.6272 22.5524 26.0107C22.5524 26.5951 22.5645 26.606 23.1697 26.606C27.1532 26.606 31.1368 26.606 35.1191 26.606H35.6014C35.1987 23.8945 38.1031 21.9145 40.5133 23.5727V23.5739Z" fill="#566DED"/>
<path d="M31.5034 54.7273C30.8572 54.7273 30.2098 54.7442 29.5635 54.7237C28.4748 54.69 27.7876 53.9801 27.79 52.9209C27.7912 51.8616 28.4808 51.1337 29.5671 51.1132C30.8898 51.0879 32.2148 51.0855 33.5374 51.1156C34.6237 51.1409 35.2856 51.8676 35.276 52.9462C35.2663 54.0018 34.6092 54.6863 33.535 54.7225C32.8586 54.7454 32.181 54.7261 31.5046 54.7273H31.5034ZM31.4998 53.3764C32.1449 53.3764 32.7899 53.3764 33.4361 53.3764C33.7472 53.3764 33.9811 53.2619 33.9775 52.9197C33.9739 52.581 33.7388 52.4605 33.4301 52.4605C32.169 52.4593 30.909 52.4581 29.6479 52.4605C29.3441 52.4605 29.1102 52.5702 29.1114 52.9233C29.1114 53.2812 29.3501 53.374 29.6539 53.3752C30.2688 53.3764 30.8849 53.3752 31.4998 53.3752V53.3764Z" fill="#566DED"/>
<path d="M30.0892 38.8941C31.5095 37.4697 32.867 36.1079 34.2258 34.7462C34.3428 34.6293 34.4525 34.5015 34.5851 34.4063C34.8853 34.1894 35.1867 34.228 35.4411 34.481C35.6955 34.7329 35.7353 35.0318 35.5243 35.3367C35.4568 35.4343 35.3652 35.5162 35.2808 35.6018C33.7821 37.1009 32.2835 38.6013 30.7836 40.098C30.2435 40.6379 29.9578 40.6379 29.4236 40.1065C28.8473 39.534 28.271 38.9628 27.7019 38.3832C27.339 38.0132 27.3234 37.6722 27.6344 37.3612C27.9322 37.0636 28.306 37.0805 28.6629 37.4348C29.1319 37.8999 29.5864 38.3771 30.0904 38.8941H30.0892Z" fill="#566DED"/>
</svg>
