<svg viewBox="-3 -5 16 16" fill="currentColor"
    xmlns="http://www.w3.org/2000/svg">
    <path fill-rule="evenodd" clip-rule="evenodd" d="M0.292787 0.334585C0.480314 0.147114 0.734622 0.0417988 0.999786 0.0417989C1.26495 0.0417989 1.51926 0.147114 1.70679 0.334586L4.99979 3.62759L8.29279 0.334587C8.38503 0.239077 8.49538 0.162894 8.61738 0.110485C8.73939 0.0580763 8.87061 0.03049 9.00339 0.0293362C9.13616 0.0281824 9.26784 0.0534839 9.39074 0.103765C9.51364 0.154046 9.62529 0.228299 9.71918 0.322192C9.81307 0.416084 9.88733 0.527736 9.93761 0.650633C9.98789 0.773529 10.0132 0.905209 10.012 1.03799C10.0109 1.17077 9.9833 1.30199 9.93089 1.42399C9.87848 1.546 9.8023 1.65634 9.70679 1.74859L5.70679 5.74859C5.51926 5.93606 5.26495 6.04137 4.99979 6.04137C4.73462 6.04137 4.48031 5.93606 4.29279 5.74859L0.292786 1.74858C0.105315 1.56106 -2.23357e-07 1.30675 -1.76994e-07 1.04159C-1.30631e-07 0.776421 0.105315 0.522113 0.292787 0.334585V0.334585Z" fill="currentColor" stroke="inherit"/>
</svg>