<svg width="14" height="19" viewBox="0 0 14 19" fill="none" xmlns="http://www.w3.org/2000/svg">
    <path d="M8.68461 2.38359C8.25352 1.74962 7.87314 1.16638 7.51812 0.633851C7.4674 0.557776 7.39133 0.4817 7.31525 0.430983C7.01095 0.228115 6.60522 0.329549 6.40235 0.633851C6.07269 1.16638 5.69231 1.72427 5.23586 2.38359C3.23254 5.32517 0.240234 9.76291 0.240234 12.2988C0.240234 14.1499 1.00099 15.8236 2.2182 17.0408C3.4354 18.2326 5.10906 18.9934 6.96023 18.9934C8.81141 18.9934 10.4851 18.2326 11.7023 17.0154C12.9195 15.7982 13.6802 14.1246 13.6802 12.2734C13.6802 9.73755 10.6879 5.32517 8.68461 2.38359ZM10.7894 16.1025C9.80039 17.0915 8.45639 17.6748 6.96023 17.6748C5.46408 17.6748 4.12008 17.0662 3.1311 16.1025C2.14212 15.1136 1.55888 13.7696 1.55888 12.2734C1.55888 10.1433 4.42439 5.90842 6.32627 3.09363C6.5545 2.76396 6.75737 2.4343 6.96023 2.15536C7.1631 2.4343 7.36597 2.76396 7.5942 3.09363C9.49608 5.93378 12.3616 10.1433 12.3616 12.2734C12.3616 13.7696 11.753 15.1136 10.7894 16.1025Z"
          fill="#0052CB"/>
</svg>
