<svg width="23" height="23" viewBox="0 0 23 23" fill="none" xmlns="http://www.w3.org/2000/svg">
<path d="M14.375 11.5C14.375 12.2625 14.0721 12.9938 13.5329 13.5329C12.9938 14.0721 12.2625 14.375 11.5 14.375C10.7375 14.375 10.0062 14.0721 9.46707 13.5329C8.9279 12.9938 8.625 12.2625 8.625 11.5C8.625 10.7375 8.9279 10.0062 9.46707 9.46707C10.0062 8.9279 10.7375 8.625 11.5 8.625C12.2625 8.625 12.9938 8.9279 13.5329 9.46707C14.0721 10.0062 14.375 10.7375 14.375 11.5V11.5Z" stroke="#566DED" stroke-linecap="round" stroke-linejoin="round"/>
<path d="M2.35547 11.4993C3.57639 7.61139 7.20943 4.79102 11.4999 4.79102C15.7913 4.79102 19.4234 7.61139 20.6443 11.4993C19.4234 15.3873 15.7913 18.2077 11.4999 18.2077C7.20943 18.2077 3.57639 15.3873 2.35547 11.4993Z" stroke="#566DED" stroke-linecap="round" stroke-linejoin="round"/>
</svg>
