<svg width="18" height="18" viewBox="0 0 18 18" fill="none" xmlns="http://www.w3.org/2000/svg">
    <path d="M3 9L1 9M3 9C3 9.53043 3.21071 10.0391 3.58579 10.4142C3.96086 10.7893 4.46957 11 5 11C5.53043 11 6.03914 10.7893 6.41421 10.4142C6.78929 10.0391 7 9.53043 7 9M3 9C3 8.46957 3.21071 7.96086 3.58579 7.58579C3.96086 7.21071 4.46957 7 5 7C5.53043 7 6.03914 7.21071 6.41421 7.58579C6.78929 7.96086 7 8.46957 7 9M7 9L17 9M15 15C15 14.4696 14.7893 13.9609 14.4142 13.5858C14.0391 13.2107 13.5304 13 13 13C12.4696 13 11.9609 13.2107 11.5858 13.5858C11.2107 13.9609 11 14.4696 11 15M15 15C15 15.5304 14.7893 16.0391 14.4142 16.4142C14.0391 16.7893 13.5304 17 13 17C12.4696 17 11.9609 16.7893 11.5858 16.4142C11.2107 16.0391 11 15.5304 11 15M15 15L17 15M11 15L1 15M15 3C15 2.46957 14.7893 1.96086 14.4142 1.58579C14.0391 1.21071 13.5304 1 13 1C12.4696 1 11.9609 1.21071 11.5858 1.58579C11.2107 1.96086 11 2.46957 11 3M15 3C15 3.53043 14.7893 4.03914 14.4142 4.41421C14.0391 4.78929 13.5304 5 13 5C12.4696 5 11.9609 4.78929 11.5858 4.41421C11.2107 4.03914 11 3.53043 11 3M15 3L17 3M11 3L1 3"
          stroke="#566DED" stroke-width="1.5" stroke-linecap="round" stroke-linejoin="round"/>
</svg>
