<svg width="70" height="70" viewBox="0 0 70 70" fill="none" xmlns="http://www.w3.org/2000/svg">
<path d="M20.9819 56.3412C20.6372 56.213 20.2748 56.1202 19.9522 55.9512C18.7248 55.3126 18.0829 54.2819 18.01 52.9042C17.9879 52.4777 18.01 52.0491 18.01 51.6226C18.01 40.3206 18.01 29.0189 18.01 17.7176C18.01 15.7654 19.1943 14.3369 21.0592 14.0375C21.2914 14.0071 21.5256 13.9949 21.7596 14.0011C30.377 14.0011 38.9911 14.0011 47.6019 14.0011C49.8689 14.0011 51.346 15.4826 51.346 17.7574C51.346 24.0569 51.346 30.3542 51.346 36.6493C51.346 37.4437 51.1449 37.6436 50.3384 37.6436C49.1432 37.6382 47.9599 37.8804 46.8629 38.355C45.766 38.8296 44.7793 39.5263 43.965 40.4012C43.1507 41.2762 42.5265 42.3103 42.1317 43.4384C41.737 44.5665 41.5802 45.7642 41.6713 46.9559C41.974 51.2226 45.5127 54.6785 49.8236 54.9204C54.1345 55.1624 58.0344 52.0899 58.7901 47.8498C59.453 44.11 57.7427 40.5305 54.4063 38.6877C54.3212 38.6413 54.2339 38.5982 54.1544 38.5462C53.8119 38.3253 53.7014 37.9541 53.8716 37.6149C54.0417 37.2758 54.435 37.1277 54.825 37.3188C55.8794 37.836 56.8293 38.5436 57.6267 39.4058C59.118 40.9773 60.0499 42.9964 60.2782 45.1507C60.2951 45.2445 60.3191 45.3368 60.35 45.4269V47.1625C60.3246 47.273 60.2904 47.3725 60.2738 47.4796C59.6518 51.5674 57.4014 54.3503 53.5269 55.7888C52.7767 56.0672 51.958 56.1622 51.1703 56.3412H49.4303C48.6017 56.1489 47.7499 56.0263 46.9489 55.7534C42.6745 54.2951 39.9357 50.0659 40.2627 45.4899C40.5787 41.0442 43.9914 37.2327 48.3973 36.414C48.8834 36.3234 49.3772 36.2759 49.9329 36.1997V35.7909C49.9329 29.769 49.9329 23.7472 49.9329 17.7253C49.9329 16.2758 49.0679 15.4053 47.6217 15.4053H21.7431C20.2781 15.4053 19.4142 16.2758 19.4142 17.7507C19.4142 29.3673 19.4142 40.9838 19.4142 52.6004C19.4142 54.0642 20.2858 54.9281 21.7607 54.9281H40.8593C40.9698 54.9281 41.0802 54.9281 41.1907 54.9281C41.5918 54.906 41.9398 54.9845 42.0878 55.4176C42.2359 55.8507 41.9685 56.1091 41.657 56.3378L20.9819 56.3412Z" fill="#566DED"/>
<path d="M34.7111 17.9695C38.0321 17.9695 41.3527 17.9695 44.673 17.9695C46.1711 17.9695 47.0273 18.8268 47.0296 20.3271C47.0296 21.3192 47.0296 22.3113 47.0296 23.3034C47.0296 23.9343 46.7798 24.2624 46.3125 24.2558C45.8452 24.2491 45.6209 23.9398 45.6209 23.3277C45.6209 22.3212 45.6209 21.3159 45.6209 20.3094C45.6209 19.6245 45.3801 19.3792 44.7073 19.3792C38.0255 19.3792 31.343 19.3792 24.6597 19.3792C23.9814 19.3792 23.7361 19.6211 23.735 20.2984C23.7306 21.8009 23.7306 23.303 23.735 24.8048C23.735 25.4986 23.9825 25.7362 24.694 25.7362H43.7914C43.9295 25.7362 44.0676 25.7307 44.2046 25.7362C44.3857 25.7399 44.5582 25.8144 44.6852 25.9436C44.8121 26.0728 44.8835 26.2466 44.8841 26.4278C44.8843 26.6017 44.8205 26.7697 44.7047 26.8995C44.5889 27.0293 44.4294 27.112 44.2565 27.1315C44.1331 27.1431 44.0091 27.1465 43.8853 27.1414H24.7028C23.1815 27.1414 22.3231 26.2819 22.3209 24.7606C22.3209 23.2729 22.3209 21.7847 22.3209 20.2962C22.3209 18.8279 23.1925 17.9651 24.6663 17.9651C28.0146 17.9673 31.3628 17.9687 34.7111 17.9695Z" fill="#566DED"/>
<path d="M34.6493 46.5594C35.1729 46.5594 35.6977 46.5439 36.2203 46.5594C36.7019 46.5638 37.1621 46.7591 37.4998 47.1026C37.8374 47.4461 38.0249 47.9095 38.0211 48.3911C38.0332 49.1347 38.0343 49.8793 38.0211 50.6228C38.0199 51.1043 37.8289 51.5659 37.4895 51.9074C37.15 52.2489 36.6896 52.4427 36.2081 52.4468C35.1608 52.4645 34.1138 52.4645 33.0672 52.4468C32.5857 52.4434 32.1247 52.251 31.7836 51.9111C31.4425 51.5712 31.2484 51.1109 31.2432 50.6294C31.227 49.8715 31.227 49.1136 31.2432 48.3557C31.2491 47.8886 31.4347 47.4416 31.7613 47.1076C32.088 46.7735 32.5306 46.578 32.9976 46.5616C33.55 46.5362 34.1024 46.5616 34.6548 46.5616L34.6493 46.5594ZM34.6438 47.9691C34.1477 47.9691 33.6494 47.9691 33.1567 47.9691C32.8175 47.9691 32.6496 48.1503 32.6474 48.4828C32.6474 49.1568 32.6474 49.8317 32.6474 50.5057C32.6474 50.857 32.8197 51.046 33.1777 51.0471C34.1411 51.0471 35.1044 51.0471 36.0678 51.0471C36.4445 51.0471 36.6202 50.8614 36.6202 50.4858C36.6147 49.8229 36.6202 49.1601 36.6202 48.5038C36.6202 48.147 36.4523 47.9669 36.0932 47.968L34.6438 47.9691Z" fill="#566DED"/>
<path d="M34.668 38.0757C35.1508 38.0757 35.6325 38.068 36.1153 38.0757C37.2323 38.0978 38.0101 38.8756 38.0222 39.9848C38.031 40.6874 38.031 41.3905 38.0222 42.0938C38.0101 43.1655 37.2687 43.9532 36.1882 43.9874C35.1564 44.0195 34.1212 44.0183 33.0882 43.9874C31.9922 43.9543 31.2476 43.1577 31.2387 42.0629C31.2321 41.3735 31.2321 40.6845 31.2387 39.9958C31.2487 38.891 32.0298 38.0989 33.1379 38.0757C33.6483 38.0669 34.1576 38.0757 34.668 38.0757ZM34.625 42.5854C35.0801 42.5854 35.5342 42.591 35.9883 42.5854C36.47 42.5788 36.6114 42.4407 36.6147 41.9745C36.6191 41.3404 36.6191 40.7066 36.6147 40.0732C36.6147 39.6534 36.4611 39.4931 36.0457 39.4898C35.1103 39.4825 34.1738 39.4825 33.2362 39.4898C32.7998 39.4898 32.6518 39.6522 32.6485 40.0997C32.643 40.7327 32.6419 41.3669 32.6485 41.9999C32.6485 42.4209 32.802 42.5744 33.2207 42.5832C33.687 42.5932 34.1565 42.5854 34.625 42.5854Z" fill="#566DED"/>
<path d="M25.696 35.5147C25.1999 35.5147 24.7017 35.5236 24.2089 35.5147C23.1539 35.496 22.3728 34.7613 22.3308 33.7095C22.2999 32.9539 22.301 32.1938 22.3308 31.437C22.3717 30.383 23.1517 29.6351 24.2001 29.624C25.2202 29.613 26.2399 29.613 27.2593 29.624C28.2956 29.6362 29.07 30.3775 29.1054 31.4072C29.1308 32.1805 29.1308 32.9538 29.1054 33.7217C29.0722 34.7535 28.3055 35.4894 27.2681 35.5137C26.7433 35.5247 26.2197 35.5147 25.696 35.5147ZM25.7369 31.0293C25.2552 31.0293 24.7735 31.036 24.2918 31.0293C23.9084 31.0227 23.7394 31.2171 23.7339 31.5817C23.7339 32.2446 23.7339 32.9075 23.7339 33.5637C23.7339 33.9051 23.893 34.1072 24.2609 34.1061C25.2375 34.1061 26.2153 34.1061 27.1919 34.1061C27.5322 34.1061 27.699 33.9316 27.699 33.5958C27.699 32.9075 27.699 32.2191 27.699 31.5309C27.699 31.1928 27.5189 31.0293 27.182 31.0304L25.7369 31.0293Z" fill="#566DED"/>
<path d="M25.7546 38.0756C26.2374 38.0756 26.719 38.0678 27.2018 38.0756C28.3188 38.0966 29.0888 38.8611 29.1109 39.9813C29.1242 40.684 29.1242 41.3867 29.1109 42.0893C29.0888 43.1941 28.3453 43.9674 27.2416 43.9906C26.2363 44.0149 25.2301 44.0149 24.2233 43.9906C23.1075 43.9663 22.3452 43.1819 22.3231 42.0661C22.3106 41.3775 22.3106 40.6884 22.3231 39.999C22.3441 38.8677 23.1318 38.0911 24.2664 38.0745C24.7624 38.069 25.2585 38.0756 25.7546 38.0756ZM25.7479 39.4864H24.3029C23.9339 39.4864 23.7361 39.6665 23.7339 40.0388C23.7339 40.7017 23.7339 41.3645 23.7339 42.0208C23.7339 42.3909 23.9228 42.582 24.294 42.5831C25.2441 42.5831 26.1939 42.5831 27.1433 42.5831C27.5079 42.5831 27.7067 42.4152 27.7034 42.0307C27.6979 41.3678 27.7034 40.705 27.7034 40.0487C27.6979 39.6355 27.5465 39.4963 27.1157 39.4864C26.6572 39.4798 26.202 39.4864 25.7479 39.4864Z" fill="#566DED"/>
<path d="M25.7413 46.5593C26.265 46.5593 26.7897 46.5438 27.3123 46.5593C28.3298 46.598 29.0722 47.3326 29.1043 48.3524C29.1286 49.1257 29.1297 49.8991 29.1043 50.6669C29.0689 51.6911 28.2845 52.4346 27.2548 52.4512C26.2495 52.4622 25.243 52.46 24.2377 52.4512C23.166 52.4423 22.3706 51.6944 22.3297 50.6283C22.301 49.8715 22.2999 49.1124 22.3297 48.3557C22.3717 47.3205 23.1351 46.588 24.1702 46.5559C24.6928 46.5394 25.2165 46.5559 25.7402 46.5559L25.7413 46.5593ZM25.7788 47.969C25.2839 47.969 24.7846 47.969 24.2929 47.969C23.9118 47.9635 23.735 48.1535 23.7339 48.5214C23.7339 49.1843 23.7339 49.8472 23.7339 50.5034C23.7339 50.8724 23.925 51.0558 24.3017 51.0558C25.2518 51.0507 26.2016 51.0507 27.151 51.0558C27.5288 51.0558 27.7034 50.8724 27.7034 50.4979C27.699 49.835 27.699 49.1743 27.7034 48.5159C27.7034 48.1314 27.5178 47.9635 27.1433 47.9734C26.6881 47.9734 26.2329 47.9679 25.7788 47.969Z" fill="#566DED"/>
<path d="M34.6304 35.5125C34.0935 35.5125 33.5555 35.5269 33.0186 35.5125C32.5517 35.4994 32.1074 35.308 31.7772 34.9776C31.4471 34.6472 31.2559 34.203 31.2431 33.736C31.2221 32.9627 31.2244 32.1893 31.2431 31.4215C31.2512 30.9472 31.4438 30.4947 31.78 30.1601C32.1162 29.8255 32.5697 29.6352 33.044 29.6295C34.1046 29.6118 35.1656 29.6118 36.2269 29.6295C36.7012 29.6349 37.1545 29.8261 37.4895 30.162C37.8245 30.4978 38.0145 30.9516 38.0188 31.4259C38.0354 32.1838 38.0343 32.9417 38.0188 33.6996C38.0162 34.1807 37.8237 34.6414 37.4831 34.9813C37.1426 35.3213 36.6815 35.513 36.2004 35.5147C35.6767 35.528 35.153 35.5147 34.6293 35.5147L34.6304 35.5125ZM34.636 34.105C35.1176 34.105 35.5993 34.105 36.081 34.105C36.4379 34.105 36.6158 33.9326 36.6147 33.5747C36.6147 32.9118 36.6202 32.2489 36.6147 31.5927C36.6147 31.174 36.4633 31.0315 36.0346 31.0293C35.0978 31.0249 34.1617 31.0249 33.2263 31.0293C32.8031 31.0293 32.654 31.1784 32.6485 31.5982C32.6418 32.2442 32.6418 32.8912 32.6485 33.5393C32.6485 33.9536 32.8042 34.0972 33.2318 34.1017C33.6991 34.1094 34.1675 34.105 34.636 34.105Z" fill="#566DED"/>
<path d="M43.6036 35.5126C43.081 35.5126 42.5562 35.5258 42.0336 35.5126C41.5596 35.5051 41.1073 35.3126 40.7733 34.9761C40.4393 34.6396 40.2501 34.1859 40.2461 33.7118C40.2307 32.9539 40.2307 32.196 40.2461 31.4381C40.2463 31.1996 40.2935 30.9635 40.3851 30.7433C40.4767 30.5231 40.6109 30.3231 40.7799 30.1549C40.949 29.9867 41.1496 29.8535 41.3702 29.7629C41.5909 29.6724 41.8272 29.6263 42.0657 29.6273C43.1116 29.6119 44.1586 29.6119 45.2066 29.6273C45.6813 29.63 46.1363 29.8175 46.4751 30.1499C46.814 30.4824 47.0101 30.9337 47.0218 31.4083C47.0461 32.1816 47.045 32.955 47.0218 33.7228C47.011 34.1968 46.8168 34.648 46.4802 34.9818C46.1435 35.3156 45.6906 35.5058 45.2166 35.5126C44.6796 35.5258 44.1416 35.5137 43.6036 35.5126ZM43.6224 34.1051C44.1041 34.1051 44.5857 34.1051 45.0674 34.1051C45.4497 34.1051 45.6198 33.915 45.6198 33.546C45.6198 32.8832 45.6198 32.2203 45.6198 31.5641C45.6198 31.216 45.4486 31.0271 45.0873 31.0282C44.1239 31.0282 43.1602 31.0282 42.1961 31.0282C41.816 31.0282 41.6437 31.2127 41.6503 31.5883C41.6558 32.2512 41.6503 32.9141 41.6503 33.5704C41.6503 33.9261 41.8171 34.1062 42.1762 34.1051C42.6579 34.104 43.1396 34.1051 43.6224 34.1051Z" fill="#566DED"/>
<path d="M41.995 21.9876C41.8669 21.9323 41.7067 21.9158 41.6525 21.8318C41.5144 21.6109 41.3133 21.3534 41.3432 21.138C41.373 20.9225 41.647 20.7381 41.8315 20.5569C41.8768 20.5127 41.9895 20.5337 42.0723 20.5303C43.1009 20.495 43.4655 20.5303 43.4091 21.8152C43.3804 22.4781 43.4092 23.141 43.4014 23.8038C43.3959 24.2734 43.1307 24.5717 42.7275 24.586C42.3242 24.6004 42.0061 24.2855 41.9972 23.8127C41.9862 23.2006 41.995 22.5952 41.995 21.9876Z" fill="#566DED"/>
<path d="M49.596 41.6021C49.596 41.2972 49.5871 41.0221 49.596 40.7481C49.6136 40.3118 49.8865 40.0378 50.2887 40.0345C50.6908 40.0311 50.9681 40.3074 50.9991 40.7382C51.009 40.8752 50.9991 41.0133 50.9991 41.1514V41.5657C51.3559 41.7005 51.7249 41.7867 52.0342 41.9701C52.4089 42.1968 52.7534 42.47 53.0595 42.7832C53.1265 42.8484 53.1792 42.9269 53.2142 43.0136C53.2493 43.1003 53.266 43.1934 53.2632 43.2869C53.2603 43.3804 53.2381 43.4723 53.1979 43.5567C53.1577 43.6412 53.1005 43.7163 53.0297 43.7775C52.7369 44.047 52.3215 44.0128 52.0011 43.6913C51.262 42.9522 50.2058 42.7423 49.2722 43.1842C49.0116 43.3059 48.7799 43.4817 48.5928 43.7002C48.1619 44.2283 48.3266 44.9519 48.9574 45.2049C49.4767 45.4137 50.0379 45.5176 50.5792 45.67C51.0819 45.8103 51.6045 45.9053 52.0828 46.1042C53.8328 46.8311 54.182 48.9766 52.7325 50.1985C52.253 50.6029 51.6277 50.8382 50.9979 51.1929C50.9979 51.3431 51.0079 51.6182 50.9979 51.8922C50.9781 52.3463 50.6853 52.6346 50.2721 52.6236C49.8589 52.6125 49.6093 52.3341 49.5949 51.8922C49.5849 51.6193 49.5949 51.3453 49.5949 51.0713C49.332 50.9874 49.0723 50.9542 48.8668 50.8283C48.4051 50.565 47.969 50.2591 47.5642 49.9146C47.4862 49.8505 47.4234 49.7698 47.3805 49.6784C47.3376 49.5869 47.3157 49.487 47.3164 49.386C47.317 49.285 47.3401 49.1855 47.3842 49.0946C47.4282 49.0037 47.492 48.9238 47.5709 48.8607C47.8747 48.601 48.2725 48.6463 48.5984 48.9789C48.9685 49.3526 49.4507 49.5951 49.9714 49.6695C50.4922 49.7439 51.023 49.6461 51.483 49.3909C51.6393 49.3041 51.7819 49.1947 51.9061 49.0661C52.4386 48.5027 52.295 47.6807 51.5669 47.4233C50.8388 47.1659 50.081 47.03 49.3385 46.8278C49.0327 46.7487 48.7332 46.6467 48.4426 46.5229C46.8119 45.8048 46.454 43.8339 47.7079 42.5656C48.215 42.0529 48.8502 41.7712 49.596 41.6021Z" fill="#566DED"/>
</svg>
