<svg viewBox="0 -4.5 36 36" fill="none" xmlns="http://www.w3.org/2000/svg">
<path stroke="inherit" fill-rule="evenodd" clip-rule="evenodd" d="M25.4999 2.76147L10.4999 2.7617C9.71296 2.7617 9.07848 3.21741 8.68585 4.39528L8.67982 4.41294L7.16186 8.75H28.8381L27.3202 4.41294L27.3141 4.39528C26.9215 3.21732 26.287 2.76147 25.4999 2.76147ZM32.3618 11.25H34C34.6904 11.25 35.25 10.6904 35.25 10C35.25 9.30964 34.6904 8.75 34 8.75H31.4868L29.6828 3.59545C29.0739 1.77752 27.7093 0.261475 25.4999 0.261475L10.4999 0.261696C8.29084 0.261705 6.92617 1.77742 6.31726 3.5954L4.51315 8.75H2C1.30964 8.75 0.75 9.30964 0.75 10C0.75 10.6904 1.30964 11.25 2 11.25H3.63816L2.82018 13.5871C2.77373 13.7198 2.75 13.8594 2.75 14L2.75 19.496L2.74999 19.5L2.74999 23.75C2.74999 24.3894 2.98835 25.0168 3.43432 25.4906C3.88272 25.967 4.50763 26.25 5.17646 26.25H6.82352C7.49236 26.25 8.11727 25.967 8.56566 25.4906C8.89421 25.1415 9.11007 24.7092 9.20098 24.25L26.799 24.25C26.8899 24.7092 27.1058 25.1415 27.4343 25.4906C27.8827 25.967 28.5076 26.25 29.1765 26.25H30.8235C31.4924 26.25 32.1173 25.967 32.5657 25.4906C33.0116 25.0168 33.25 24.3894 33.25 23.75V14C33.25 13.8594 33.2263 13.7198 33.1798 13.5871L32.3618 11.25ZM29.7131 11.25H6.28686L5.25 14.2125L5.25 19.6667C5.25 20.2192 5.46949 20.7491 5.86019 21.1398C6.2509 21.5305 6.7808 21.75 7.33333 21.75H9.9702C10.0156 21.6896 10.0672 21.6324 10.1249 21.5794L11.9971 19.8596C12.3994 19.469 12.9382 19.2501 13.4997 19.25H22.4705C23.034 19.2501 23.575 19.4706 23.9777 19.8637L25.8234 21.5861C25.8782 21.6372 25.9273 21.6921 25.9709 21.75H28.6667C29.2192 21.75 29.7491 21.5305 30.1398 21.1398C30.5305 20.7491 30.75 20.2192 30.75 19.6667V14.2125L29.7131 11.25ZM7.74999 15C7.74999 14.3097 8.30964 13.75 8.99999 13.75H11.5C12.1904 13.75 12.75 14.3097 12.75 15C12.75 15.6904 12.1904 16.25 11.5 16.25H8.99999C8.30964 16.25 7.74999 15.6904 7.74999 15ZM23.25 15C23.25 14.3097 23.8096 13.75 24.5 13.75H27C27.6903 13.75 28.25 14.3097 28.25 15C28.25 15.6904 27.6903 16.25 27 16.25H24.5C23.8096 16.25 23.25 15.6904 23.25 15Z" fill="currentColor"/>
</svg>
