<svg width="48.908" height="48.908" viewBox="0 0 48.908 48.908" xmlns="http://www.w3.org/2000/svg">
    <circle cx="23.444" cy="23.444" r="23.444" fill="#e4e8ed" transform="rotate(-87.475 24.477 23.421)"/>
    <path fill="#fff"
          d="M20.821 6.251L7.532 19.931v21.887s.391 3.91 2.344 4.3h28.363s2.931-.417 2.931-2.737V10.155A4.127 4.127 0 0037.213 6.2z"/>
    <path fill="#3b5b7a"
          d="M38.281 46.706h-28.4c-2.426-.472-2.884-4.382-2.929-4.827V19.695L20.58 5.667l16.639-.052a4.7 4.7 0 014.545 4.537v33.233c0 2.238-2.247 3.148-3.435 3.316zM8.118 20.171v21.645c.089.843.631 3.476 1.874 3.725l28.2-.011c.318-.055 2.391-.474 2.391-2.15V10.154a3.537 3.537 0 00-3.43-3.373l-16.085.052z"/>
    <path fill="#3b5b7a" d="M0 0H1.173V16.344H0z" transform="translate(9.438 22.325)"/>
    <path fill="#3b5b7a" d="M0 0H1.173V1.393H0z" transform="translate(9.364 41.233)"/>
    <path fill="#3b5b7a"
          d="M33.052 14.336H21.911l-.093-5.35h14.813v2.015zm-9.989-1.171h9.526l2.87-2.676v-.331H23.011z"/>
    <path fill="#fff"
          d="M18.599 21.298l4.507 4.508h4.58l4.306-4.306 2.18 2.181-4.213 4.215v5.2l3.92 3.92-2.235 2.236-3.627-3.629H22.85l-4.2 4.2-2.657-2.658 4.25-4.249v-4.948l-4.2-4.2z"/>
    <path fill="#3b5b7a"
          d="M18.653 40.653l-3.486-3.488 4.493-4.493v-4.461l-4.444-4.442 3.387-3.293 4.745 4.743h4.095l4.548-4.546 3.011 3.008-4.457 4.457v4.717l4.163 4.163-3.064 3.064-3.87-3.87h-4.682zm-1.827-3.488l1.827 1.828 3.954-3.952h5.651l3.386 3.385 1.406-1.407-3.677-3.677v-5.689l3.971-3.972-1.352-1.351-4.062 4.062h-5.068l-4.27-4.27-1.707 1.656 3.947 3.947v5.433z"/>
    <path fill="#a1d5fc" d="M15.521 6.349l-8.869 8.866-2.821-2.82 8.757-8.686z"/>
    <path fill="#fff" stroke="#3b5b7a" stroke-miterlimit="10"
          d="M6.652 16.045l-2.546-2.547s-.231-.186-.237-1.147.422-1.239.422-1.239l7.007-6.952a1.768 1.768 0 011.371-.333 4.515 4.515 0 011.021.084l2.681 2.414z"/>
</svg>
