<svg viewBox="0 0 20 20" fill="none" xmlns="http://www.w3.org/2000/svg">
<path fill-rule="evenodd" clip-rule="evenodd" d="M8.19434 16.8496C10.3161 16.8496 12.3509 16.0068 13.8512 14.5065C15.3515 13.0062 16.1943 10.9713 16.1943 8.84961C16.1943 6.72788 15.3515 4.69305 13.8512 3.19276C12.3509 1.69246 10.3161 0.849609 8.19434 0.849609C6.0726 0.849609 4.03777 1.69246 2.53748 3.19276C1.03719 4.69305 0.194336 6.72788 0.194336 8.84961C0.194336 10.9713 1.03719 13.0062 2.53748 14.5065C4.03777 16.0068 6.0726 16.8496 8.19434 16.8496ZM11.9013 7.55661C12.0835 7.36801 12.1843 7.11541 12.182 6.85321C12.1797 6.59101 12.0746 6.3402 11.8892 6.15479C11.7037 5.96938 11.4529 5.86421 11.1907 5.86194C10.9285 5.85966 10.6759 5.96045 10.4873 6.14261L7.19434 9.43561L5.90134 8.14261C5.71273 7.96045 5.46013 7.85966 5.19793 7.86194C4.93574 7.86421 4.68493 7.96938 4.49952 8.15479C4.31411 8.3402 4.20894 8.59101 4.20666 8.85321C4.20438 9.11541 4.30518 9.36801 4.48734 9.55661L6.48734 11.5566C6.67486 11.7441 6.92917 11.8494 7.19434 11.8494C7.4595 11.8494 7.71381 11.7441 7.90134 11.5566L11.9013 7.55661Z" fill="#4BEA9E"/>
</svg>
