<svg width="18" height="16" viewBox="0 0 18 16" fill="none">
    <path d="M8.99938 15.68C8.75337 15.68 8.5162 15.591 8.33136 15.4292C7.63329 14.8193 6.96027 14.2462 6.36648 13.7407L6.36345 13.7381C4.62255 12.2558 3.11923 10.9758 2.07324 9.71485C0.903989 8.30519 0.359375 6.96864 0.359375 5.50854C0.359375 4.08993 0.846245 2.78117 1.73021 1.82318C2.62471 0.853856 3.8521 0.32 5.18668 0.32C6.18415 0.32 7.09764 0.635071 7.90171 1.25639C8.3075 1.57001 8.67532 1.95384 8.99938 2.40155C9.32356 1.95384 9.69125 1.57001 10.0972 1.25639C10.9012 0.635071 11.8147 0.32 12.8122 0.32C14.1466 0.32 15.3742 0.853856 16.2687 1.82318C17.1526 2.78117 17.6394 4.08993 17.6394 5.50854C17.6394 6.96864 17.0949 8.30519 15.9256 9.71472C14.8797 10.9758 13.3765 12.2557 11.6358 13.7378C11.041 14.2441 10.3669 14.8182 9.66726 15.4295C9.48255 15.591 9.24525 15.68 8.99938 15.68ZM5.18668 1.33134C4.13819 1.33134 3.175 1.74941 2.47429 2.50864C1.76316 3.27933 1.37148 4.34467 1.37148 5.50854C1.37148 6.73655 1.82829 7.83482 2.85252 9.06956C3.84248 10.2631 5.31496 11.5168 7.01986 12.9684L7.02302 12.9711C7.61905 13.4786 8.29471 14.0539 8.99792 14.6683C9.70536 14.0527 10.3821 13.4765 10.9793 12.9682C12.6841 11.5165 14.1564 10.2631 15.1464 9.06956C16.1705 7.83482 16.6273 6.73655 16.6273 5.50854C16.6273 4.34467 16.2356 3.27933 15.5245 2.50864C14.8239 1.74941 13.8606 1.33134 12.8122 1.33134C12.0441 1.33134 11.3389 1.57528 10.7163 2.05632C10.1614 2.48519 9.77483 3.02735 9.54821 3.4067C9.43167 3.60178 9.22653 3.71821 8.99938 3.71821C8.77222 3.71821 8.56709 3.60178 8.45054 3.4067C8.22405 3.02735 7.83751 2.48519 7.28248 2.05632C6.65981 1.57528 5.95462 1.33134 5.18668 1.33134Z"
          fill="#0052CB" stroke="#0052CB" strokeWidth="0.4"/>
</svg>
