<svg width="23" height="22" viewBox="0 0 23 22" fill="none" xmlns="http://www.w3.org/2000/svg">
<path d="M7.32292 19.25C6.35046 19.25 5.41783 18.8637 4.73019 18.1761C4.04256 17.4884 3.65625 16.5558 3.65625 15.5833V4.58333C3.65625 4.0971 3.8494 3.63079 4.19322 3.28697C4.53704 2.94315 5.00335 2.75 5.48958 2.75H9.15625C9.64248 2.75 10.1088 2.94315 10.4526 3.28697C10.7964 3.63079 10.9896 4.0971 10.9896 4.58333V15.5833C10.9896 16.5558 10.6033 17.4884 9.91564 18.1761M7.32292 19.25C8.29538 19.25 9.22801 18.8637 9.91564 18.1761M7.32292 19.25H18.3229C18.8091 19.25 19.2755 19.0568 19.6193 18.713C19.9631 18.3692 20.1563 17.9029 20.1563 17.4167V13.75C20.1563 13.2638 19.9631 12.7975 19.6193 12.4536C19.2755 12.1098 18.8091 11.9167 18.3229 11.9167H16.1752M9.91564 18.1761L13.8049 14.2869L17.6941 10.3978C18.0378 10.0539 18.2309 9.58772 18.2309 9.10158C18.2309 8.61545 18.0378 8.14922 17.6941 7.80542L15.1008 5.21217C14.757 4.86847 14.2908 4.67539 13.8047 4.67539C13.3185 4.67539 12.8523 4.86847 12.5085 5.21217L10.9896 6.73108M7.32292 15.5833H7.33208" stroke="#566DED" stroke-linecap="round" stroke-linejoin="round"/>
</svg>
