<svg viewBox="0.5 0 16 16" fill="none" xmlns="http://www.w3.org/2000/svg">
    <path fill-rule="evenodd" clip-rule="evenodd" d="m 16.499962,8 c 0,2.1217 -0.8428,4.1566 -2.3431,5.6569 C 12.656562,15.1571 10.621762,16 8.500002,16 6.378272,16 4.343432,15.1571 2.843142,13.6569 1.342852,12.1566 0.5,10.1217 0.5,8 0.5,5.87827 1.342852,3.84344 2.843142,2.34315 4.343432,0.842855 6.378272,0 8.500002,0 c 2.12176,0 4.15656,0.842855 5.65686,2.34315 1.5003,1.50029 2.3431,3.53512 2.3431,5.65685 z M 9.500002,4 c 0,0.26522 -0.10536,0.51957 -0.2929,0.70711 C 9.019572,4.89464 8.765212,5 8.500002,5 8.234782,5 7.980432,4.89464 7.792892,4.70711 7.605352,4.51957 7.500002,4.26522 7.500002,4 c 0,-0.26522 0.10535,-0.51957 0.29289,-0.70711 C 7.980432,3.10536 8.234782,3 8.500002,3 c 0.26521,0 0.51957,0.10536 0.7071,0.29289 0.18754,0.18754 0.2929,0.44189 0.2929,0.70711 z m -2,3 C 7.234782,7 6.980432,7.10536 6.792892,7.29289 6.605352,7.48043 6.500002,7.73478 6.500002,8 c 0,0.26522 0.10535,0.51957 0.29289,0.70711 C 6.980432,8.89464 7.234782,9 7.500002,9 v 3 c 0,0.2652 0.10535,0.5196 0.29289,0.7071 C 7.980432,12.8946 8.234782,13 8.500002,13 h 1 c 0.26521,0 0.51956,-0.1054 0.70706,-0.2929 0.1876,-0.1875 0.2929,-0.4419 0.2929,-0.7071 0,-0.2652 -0.1053,-0.5196 -0.2929,-0.7071 C 10.019562,11.1054 9.765212,11 9.500002,11 V 8 c 0,-0.26522 -0.10536,-0.51957 -0.2929,-0.70711 C 9.019572,7.10536 8.765212,7 8.500002,7 Z" fill="#566DED" />
</svg>