<svg width="34" height="33" viewBox="0 0 34 33" fill="none" xmlns="http://www.w3.org/2000/svg">
<g clip-path="url(#clip0_3458_16662)">
<path d="M15.7895 9.35762C17.0938 8.05243 18.3406 6.80475 19.5883 5.55792C19.6694 5.47184 19.7554 5.39044 19.8458 5.31418C19.9486 5.22986 20.0788 5.18634 20.2117 5.19188C20.3445 5.19741 20.4707 5.25165 20.5661 5.34422C20.6616 5.4368 20.7196 5.56126 20.7292 5.69388C20.7388 5.8265 20.6992 5.95802 20.6181 6.06336C20.5583 6.13858 20.4929 6.20915 20.4224 6.27445C19.0683 7.62855 17.7145 8.98233 16.361 10.3359C15.9225 10.7735 15.7045 10.771 15.2591 10.3256C14.9794 10.0459 14.6979 9.7678 14.4199 9.48634C14.1419 9.20488 14.1024 8.88052 14.3341 8.64025C14.5778 8.38282 14.8927 8.41029 15.2016 8.72007C15.3964 8.91744 15.5766 9.12679 15.7895 9.35762Z" fill="#566DED"/>
<path d="M17.1787 16.9943C15.8194 16.9943 14.4602 16.9943 13.1009 16.9943C12.9727 16.9995 12.8443 16.9927 12.7173 16.9738C12.5937 16.9576 12.4806 16.8958 12.4001 16.8006C12.3196 16.7053 12.2776 16.5835 12.2823 16.4589C12.2733 16.3393 12.3079 16.2204 12.3799 16.1245C12.4519 16.0285 12.5562 15.9619 12.6736 15.9371C12.7987 15.9096 12.9266 15.8975 13.0546 15.9011C15.8274 15.9011 18.5995 15.9011 21.3706 15.9011C21.488 15.8976 21.6054 15.9071 21.7207 15.9294C21.9996 15.9921 22.1343 16.1869 22.1437 16.4606C22.1459 16.5911 22.0985 16.7175 22.0111 16.8144C21.9236 16.9112 21.8027 16.9713 21.6727 16.9823C21.4809 16.9987 21.2883 17.0038 21.096 16.9978C19.7899 16.9966 18.4842 16.9955 17.1787 16.9943Z" fill="#566DED"/>
<path d="M33.6604 17.4122V16.8338C33.3626 16.0924 32.7946 15.8436 32.03 15.8899C31.4971 15.9234 30.9608 15.8968 30.3773 15.8968C30.3773 15.4677 30.3618 15.0507 30.3773 14.6388C30.4142 13.8116 30.1765 13.1448 29.3896 12.7458C29.3166 12.7081 29.2832 12.5313 29.2823 12.4189C29.2772 9.77531 29.2757 7.13145 29.278 4.48731C29.278 4.38005 29.278 4.27367 29.278 4.1664C29.2557 3.25938 28.6653 2.62949 27.766 2.50335C24.9591 2.10947 22.1634 1.64955 19.4586 0.768264C18.803 0.554593 18.1715 0.259387 17.533 0.00195312H16.8912C16.1892 0.28084 15.501 0.602624 14.7828 0.830024C12.1655 1.66411 9.46245 2.10691 6.75167 2.49564C5.67559 2.6501 5.14616 3.24132 5.1453 4.32855C5.1453 7.01731 5.1453 9.70439 5.1453 12.3897C5.1453 12.6025 5.07579 12.7072 4.90245 12.8453C4.61493 13.0752 4.37133 13.3552 4.18336 13.6717C4.06322 13.876 4.06151 14.1643 4.05121 14.4174C4.03233 14.904 4.04605 15.3922 4.04605 15.8977C3.34068 15.8977 2.68765 15.8813 2.03548 15.9019C0.984289 15.9337 0.447117 16.9068 0.969708 17.8147C1.19453 18.2043 1.42454 18.587 1.66567 18.9689C1.71389 19.0314 1.74 19.1082 1.74 19.1872C1.74 19.2663 1.71389 19.343 1.66567 19.4056C1.43655 19.7669 1.23059 20.1427 1.00319 20.5057C0.732022 20.9348 0.669367 21.3853 0.925085 21.8409C1.1808 22.2966 1.6116 22.4845 2.1342 22.482C3.11931 22.476 4.10785 22.482 5.08953 22.482H5.48256C6.13901 24.6376 6.94132 26.0792 8.32288 27.568C10.554 29.9707 13.318 31.5599 16.3583 32.7107C16.9206 32.9308 17.5461 32.9265 18.1054 32.6987C19.9337 32.0251 21.6699 31.1238 23.273 30.0162C25.3753 28.5437 27.1344 26.7648 28.2328 24.4067C28.5186 23.7914 28.7271 23.1401 28.9802 22.482C29.998 22.482 31.0397 22.4562 32.0738 22.4906C32.8375 22.5154 33.379 22.2546 33.6578 21.5235V21.0086C33.3609 20.4791 33.07 19.9454 32.762 19.4219C32.7127 19.3543 32.6861 19.2727 32.6861 19.189C32.6861 19.1052 32.7127 19.0237 32.762 18.956C33.0726 18.442 33.3626 17.9271 33.6604 17.4122ZM6.68475 3.97588C10.1661 3.42326 13.6277 2.78227 16.9452 1.55259C17.0913 1.50549 17.2488 1.50698 17.394 1.55686C20.5888 2.72733 23.9105 3.37949 27.2623 3.91152C28.0827 4.04196 28.0853 4.02481 28.0853 4.85117V12.6068H6.25226V12.2241C6.25226 9.63343 6.25912 7.04364 6.24367 4.453C6.24196 4.11147 6.36039 4.02567 6.68475 3.97161V3.97588ZM3.738 21.3862C3.22314 21.3862 2.70827 21.3862 2.1934 21.3862C1.82441 21.3862 1.79267 21.3235 1.98574 20.9991C2.20971 20.6216 2.43624 20.2466 2.66193 19.8707C2.79542 19.6681 2.86657 19.4307 2.86657 19.1881C2.86657 18.9454 2.79542 18.7081 2.66193 18.5055C2.42509 18.1108 2.19168 17.7143 1.95055 17.323C1.82612 17.1213 1.83814 17.0003 2.10759 16.9995C2.7383 16.9995 3.369 16.9995 4.04777 16.9995C4.04777 17.5143 4.05378 17.9829 4.04777 18.4514C4.0349 19.204 4.32408 19.7755 5.00971 20.129C5.04935 20.1501 5.08421 20.1791 5.11212 20.2142C5.14002 20.2494 5.16038 20.2899 5.17191 20.3333C5.21224 20.6705 5.22769 21.0112 5.25772 21.3862H3.738ZM27.0169 23.9184C25.8396 26.2705 24.0135 27.9893 21.8965 29.4258C20.5332 30.3477 19.0746 31.1202 17.5459 31.7299C17.3037 31.8161 17.0388 31.8134 16.7985 31.7221C14.019 30.5774 11.4628 29.062 9.36724 26.8309C7.74969 25.1061 6.65128 23.1041 6.33807 20.6988C6.32434 20.5907 6.31146 20.4817 6.30288 20.3736C6.29773 20.3075 6.30288 20.2406 6.30288 20.1462H28.0483C27.96 21.4585 27.6092 22.7398 27.0169 23.9142V23.9184ZM28.5195 19.1937H5.97853C5.30319 19.1937 5.14786 19.0383 5.14786 18.3604C5.14786 17.055 5.14786 15.7495 5.14786 14.444C5.14786 13.894 5.33493 13.7026 5.87554 13.7017C13.4332 13.7017 20.9901 13.7017 28.5461 13.7017C29.0944 13.7017 29.2806 13.8897 29.2806 14.4372C29.2806 15.7752 29.2806 17.113 29.2806 18.4506C29.2789 19.0075 29.0927 19.1894 28.5195 19.1894V19.1937ZM32.3621 21.3827C31.3049 21.3896 30.2477 21.3827 29.1691 21.3827C29.1982 21 29.2145 20.6499 29.2549 20.3024C29.2634 20.232 29.3621 20.1539 29.4385 20.1136C30.0675 19.7789 30.3653 19.2495 30.3721 18.5484C30.3764 18.0473 30.3721 17.5452 30.3721 16.9978C31.0586 16.9978 31.7005 16.9978 32.3458 16.9978C32.5706 16.9978 32.5964 17.1153 32.4908 17.2904C32.2531 17.6843 32.0214 18.0824 31.7794 18.4728C31.4851 18.9482 31.4842 19.4168 31.7794 19.893C32.0206 20.2843 32.2523 20.6816 32.49 21.0755C32.5801 21.2351 32.6015 21.3767 32.3621 21.3784V21.3827Z" fill="#566DED"/>
</g>
<defs>
<clipPath id="clip0_3458_16662">
<rect width="32.8949" height="32.8692" fill="white" transform="translate(0.765625)"/>
</clipPath>
</defs>
</svg>
