<svg width="34" height="33" viewBox="0 0 34 33" fill="none" xmlns="http://www.w3.org/2000/svg">
<path d="M33.6605 17.4122V16.8338C33.3628 16.0924 32.7947 15.8436 32.0301 15.8899C31.4972 15.9234 30.9609 15.8968 30.3774 15.8968C30.3774 15.4677 30.362 15.0507 30.3774 14.6388C30.4143 13.8116 30.1766 13.1448 29.3897 12.7458C29.3168 12.7081 29.2833 12.5313 29.2824 12.4189C29.2773 9.77531 29.2759 7.13145 29.2782 4.48731C29.2782 4.38005 29.2782 4.27367 29.2782 4.1664C29.2558 3.25938 28.6655 2.62949 27.7661 2.50335C24.9593 2.10947 22.1635 1.64955 19.4587 0.768264C18.8031 0.554593 18.1716 0.259387 17.5331 0.00195312H16.8913C16.1893 0.28084 15.5011 0.602624 14.7829 0.830024C12.1657 1.66411 9.46257 2.10691 6.75179 2.49564C5.67572 2.6501 5.14628 3.24132 5.14542 4.32855C5.14542 7.01731 5.14542 9.70439 5.14542 12.3897C5.14542 12.6025 5.07591 12.7072 4.90257 12.8453C4.61505 13.0752 4.37145 13.3552 4.18348 13.6717C4.06335 13.876 4.06163 14.1643 4.05133 14.4174C4.03245 14.904 4.04618 15.3922 4.04618 15.8977C3.34081 15.8977 2.68777 15.8813 2.0356 15.9019C0.984411 15.9337 0.447239 16.9068 0.96983 17.8147C1.19466 18.2043 1.42466 18.587 1.66579 18.9689C1.71401 19.0314 1.74012 19.1082 1.74012 19.1872C1.74012 19.2663 1.71401 19.343 1.66579 19.4056C1.43667 19.7669 1.23071 20.1427 1.00331 20.5057C0.732144 20.9348 0.669489 21.3853 0.925207 21.8409C1.18092 22.2966 1.61173 22.4845 2.13432 22.482C3.11943 22.476 4.10797 22.482 5.08966 22.482H5.48268C6.13914 24.6376 6.94144 26.0792 8.323 27.568C10.5541 29.9707 13.3181 31.5599 16.3584 32.7107C16.9208 32.9308 17.5462 32.9265 18.1055 32.6987C19.9338 32.0251 21.67 31.1238 23.2731 30.0162C25.3755 28.5437 27.1346 26.7648 28.233 24.4067C28.5187 23.7914 28.7272 23.1401 28.9804 22.482C29.9981 22.482 31.0399 22.4562 32.0739 22.4906C32.8376 22.5154 33.3791 22.2546 33.658 21.5235V21.0086C33.3611 20.4791 33.0702 19.9454 32.7621 19.4219C32.7128 19.3543 32.6862 19.2727 32.6862 19.189C32.6862 19.1052 32.7128 19.0237 32.7621 18.956C33.0727 18.442 33.3628 17.9271 33.6605 17.4122ZM6.68488 3.97588C10.1662 3.42326 13.6279 2.78227 16.9453 1.55259C17.0915 1.50549 17.2489 1.50698 17.3941 1.55686C20.5889 2.72733 23.9106 3.37949 27.2624 3.91152C28.0828 4.04196 28.0854 4.02481 28.0854 4.85117V12.6068H6.25238V12.2241C6.25238 9.63343 6.25924 7.04364 6.24379 4.453C6.24208 4.11147 6.36051 4.02567 6.68488 3.97161V3.97588ZM3.73813 21.3862C3.22326 21.3862 2.70839 21.3862 2.19352 21.3862C1.82453 21.3862 1.79279 21.3235 1.98587 20.9991C2.20983 20.6216 2.43636 20.2466 2.66205 19.8707C2.79554 19.6681 2.86669 19.4307 2.86669 19.1881C2.86669 18.9454 2.79554 18.7081 2.66205 18.5055C2.42521 18.1108 2.1918 17.7143 1.95067 17.323C1.82624 17.1213 1.83826 17.0003 2.10771 16.9995C2.73842 16.9995 3.36913 16.9995 4.04789 16.9995C4.04789 17.5143 4.0539 17.9829 4.04789 18.4514C4.03502 19.204 4.3242 19.7755 5.00984 20.129C5.04947 20.1501 5.08433 20.1791 5.11224 20.2142C5.14015 20.2494 5.16051 20.2899 5.17203 20.3333C5.21236 20.6705 5.22781 21.0112 5.25784 21.3862H3.73813ZM27.017 23.9184C25.8397 26.2705 24.0136 27.9893 21.8967 29.4258C20.5333 30.3477 19.0747 31.1202 17.546 31.7299C17.3039 31.8161 17.0389 31.8134 16.7986 31.7221C14.0192 30.5774 11.4629 29.062 9.36736 26.8309C7.74982 25.1061 6.65141 23.1041 6.33819 20.6988C6.32446 20.5907 6.31158 20.4817 6.303 20.3736C6.29785 20.3075 6.303 20.2406 6.303 20.1462H28.0485C27.9601 21.4585 27.6094 22.7398 27.017 23.9142V23.9184ZM28.5196 19.1937H5.97865C5.30331 19.1937 5.14798 19.0383 5.14798 18.3604C5.14798 17.055 5.14798 15.7495 5.14798 14.444C5.14798 13.894 5.33505 13.7026 5.87566 13.7017C13.4334 13.7017 20.9902 13.7017 28.5462 13.7017C29.0945 13.7017 29.2807 13.8897 29.2807 14.4372C29.2807 15.7752 29.2807 17.113 29.2807 18.4506C29.279 19.0075 29.0928 19.1894 28.5196 19.1894V19.1937ZM32.3622 21.3827C31.305 21.3896 30.2478 21.3827 29.1692 21.3827C29.1983 21 29.2147 20.6499 29.255 20.3024C29.2636 20.232 29.3623 20.1539 29.4386 20.1136C30.0676 19.7789 30.3654 19.2495 30.3722 18.5484C30.3765 18.0473 30.3722 17.5452 30.3722 16.9978C31.0587 16.9978 31.7006 16.9978 32.3459 16.9978C32.5707 16.9978 32.5965 17.1153 32.4909 17.2904C32.2532 17.6843 32.0215 18.0824 31.7795 18.4728C31.4852 18.9482 31.4844 19.4168 31.7795 19.893C32.0207 20.2843 32.2524 20.6816 32.4901 21.0755C32.5802 21.2351 32.6016 21.3767 32.3622 21.3784V21.3827Z" fill="#566DED"/>
</svg>
