<svg width="70" height="70" viewBox="0 0 70 70" fill="none" xmlns="http://www.w3.org/2000/svg">
<path d="M45.48 11C46.4628 11.3069 47.1881 11.8762 47.4139 12.9363C47.4551 13.1532 47.4742 13.3737 47.4709 13.5945C47.4709 16.3783 47.4709 19.1622 47.4709 21.946C47.4709 23.5628 46.4565 24.5646 44.8245 24.5696C44.3844 24.5696 43.9444 24.5696 43.3636 24.5696C43.5805 25.1327 43.7441 25.6196 43.9533 26.0837C44.1081 26.4198 44.2069 26.7279 43.9837 27.0652C43.7606 27.4025 43.4347 27.4608 43.0669 27.4164C41.5453 27.2351 40.404 26.4831 39.7028 25.1073C39.6165 24.9386 39.5442 24.7637 39.4555 24.5696C37.8121 24.5696 36.1682 24.5696 34.5239 24.5696C32.7486 24.5696 31.7862 23.6147 31.7849 21.8559C31.7849 19.2615 31.8318 16.667 31.7659 14.0738C31.7266 12.5598 32.2326 11.5034 33.7061 11H45.48ZM41.8572 25.2379C41.8572 24.7307 41.8382 24.2831 41.8572 23.843C41.8902 23.2217 42.1704 22.9617 42.7842 22.9554C43.4638 22.9478 44.1448 22.9554 44.8245 22.9554C45.5663 22.9554 45.8503 22.6637 45.8516 21.9118C45.8516 19.1601 45.8516 16.4083 45.8516 13.6566C45.8516 12.9072 45.5663 12.6219 44.8194 12.6219C41.3533 12.6219 37.8873 12.6219 34.4212 12.6219C33.6705 12.6219 33.3979 12.8958 33.3979 13.6541C33.3979 16.4058 33.3979 19.1579 33.3979 21.9105C33.3979 22.6903 33.6693 22.9541 34.4605 22.9554C36.2477 22.9554 38.0348 22.9554 39.822 22.9554C40.5511 22.9554 40.7273 23.0961 40.9251 23.7923C41.0913 24.3413 41.3347 24.8423 41.8572 25.2379Z" fill="#566DED"/>
<path d="M59.6254 59.0294C59.4048 59.3782 59.141 59.6634 58.6744 59.5835C58.2749 59.5151 58.0289 59.1892 58.0086 58.7251C57.9833 58.1265 58.0086 57.5191 57.9212 56.9307C57.7246 55.683 57.055 54.6787 55.9112 54.1702C54.505 53.5463 53.0238 53.0936 51.6987 52.6117C50.9974 53.3408 50.437 54.0611 49.7459 54.6178C47.4266 56.4844 44.0091 56.6531 41.4743 55.0959C40.9277 54.7598 40.7654 54.3147 41.0304 53.8772C41.2955 53.4397 41.7557 53.3878 42.315 53.7112C44.8739 55.1897 48.0327 54.5988 49.7662 52.3251C49.879 52.1768 49.978 52.0182 50.0908 51.8534C49.808 51.582 49.5328 51.3462 49.2894 51.0812C48.9089 50.664 48.9089 50.1935 49.2678 49.8651C49.6267 49.5367 50.068 49.562 50.4433 49.9602C50.9952 50.5295 51.683 50.9488 52.4418 51.1788C53.5831 51.5529 54.7168 51.9396 55.8415 52.3555C57.892 53.1164 59.1283 54.5734 59.5443 56.7241C59.5653 56.7985 59.5925 56.871 59.6254 56.9409V59.0294Z" fill="#566DED"/>
<path d="M28.7999 29.6204C28.1773 29.6204 27.7068 29.6204 27.2364 29.6204C25.6957 29.6052 24.6939 28.597 24.6888 27.0513C24.6888 25.47 24.6888 23.8887 24.6888 22.3125C21.7202 21.8813 19.0003 23.0175 17.6764 25.7553C17.4101 26.3056 17.1185 26.643 16.4603 26.6835C15.7071 26.7343 15.1833 27.4317 15.1808 28.2572C15.1732 30.4726 15.1808 32.6866 15.1808 34.9019C15.1808 35.5182 15.1808 36.1357 15.1808 36.752C15.1808 37.1806 15.3381 37.5369 15.7705 37.854C15.7705 37.3708 15.7642 36.9663 15.7705 36.5643C15.7946 35.2848 15.7261 33.994 15.8719 32.7284C16.1255 30.47 18.143 28.663 20.4192 28.5514C21.525 28.4969 22.6346 28.5172 23.7416 28.5248C24.2907 28.5248 24.609 28.8418 24.6128 29.3173C24.6166 29.7928 24.2995 30.1225 23.758 30.134C22.84 30.1542 21.9232 30.1339 21.0051 30.1428C18.8113 30.1568 17.3911 31.5833 17.3873 33.7784C17.3873 35.5663 17.3873 37.3539 17.3873 39.141C17.4 43.2635 20.2417 46.5415 24.3122 47.1299C28.5907 47.7525 32.8678 44.3693 33.1265 40.0515C33.2533 37.8603 33.1836 35.6564 33.1862 33.4576C33.1655 33.1584 33.1196 32.8614 33.0492 32.5699C32.9592 32.0475 33.176 31.6582 33.6427 31.539C34.0802 31.4261 34.4986 31.6886 34.6254 32.2022C34.73 32.5833 34.79 32.9752 34.8042 33.3701C34.8042 35.6323 34.874 37.8983 34.7421 40.1529C34.4961 44.3452 31.0393 48.0252 26.8902 48.6732C25.5116 48.8931 24.1021 48.8223 22.7524 48.4652C22.4063 49.8385 21.7038 50.9709 20.546 51.8306C21.3069 53.0708 22.353 53.8862 23.7162 54.2755C25.4015 54.7561 27.0043 54.5417 28.4918 53.597C28.8075 53.3967 29.1258 53.294 29.4694 53.4778C30.0439 53.7796 30.0401 54.5126 29.4466 54.9095C28.1277 55.8089 26.5435 56.2357 24.9513 56.1205C22.523 55.9595 20.6145 54.8752 19.245 52.8413C19.1881 52.7827 19.1179 52.7388 19.0404 52.7132C18.9629 52.6876 18.8804 52.6811 18.7999 52.6942C17.5851 53.0924 16.369 53.493 15.172 53.9432C14.4274 54.2258 13.7862 54.7279 13.3333 55.383C12.8804 56.0381 12.6372 56.8153 12.6358 57.6118C12.6295 58.0239 12.6511 58.436 12.6244 58.8456C12.6105 59.0452 12.5222 59.2324 12.377 59.3702C12.2318 59.5079 12.0403 59.5863 11.8402 59.5898C11.6401 59.5933 11.4459 59.5217 11.296 59.3891C11.1461 59.2565 11.0514 59.0725 11.0304 58.8735C10.8973 57.0171 11.1661 55.2747 12.5039 53.8443C13.1796 53.128 14.0247 52.5933 14.9614 52.2896C16.1027 51.9092 17.2326 51.5136 18.3688 51.1281C19.77 50.6513 20.7083 49.7332 21.1167 48.2914C21.1991 47.9985 21.1573 47.8565 20.872 47.698C17.9338 46.0622 16.2308 43.5793 15.8389 40.229C15.792 39.8347 15.6754 39.6179 15.281 39.4353C14.2082 38.9356 13.5818 38.053 13.5716 36.8534C13.5437 33.9284 13.5437 31.0021 13.5716 28.0746C13.583 26.6911 14.5202 25.5486 15.8542 25.1302C16.0541 25.0647 16.2255 24.9326 16.3398 24.756C17.8958 22.0322 20.2544 20.6779 23.3713 20.6057C23.7948 20.5955 24.2183 20.6057 24.6913 20.6057C24.6913 19.9146 24.6913 19.2704 24.6913 18.6262C24.6989 17.0931 25.7058 16.071 27.2465 16.0508C28.0683 16.0406 28.895 16.0431 29.7142 16.0508C30.3482 16.0508 30.7071 16.3703 30.6919 16.8915C30.6779 17.3987 30.3419 17.6638 29.7078 17.6688C28.9178 17.6752 28.1265 17.6688 27.3353 17.6688C26.5884 17.6688 26.3094 17.9592 26.3094 18.7125C26.3094 21.465 26.3094 24.2175 26.3094 26.9701C26.3094 27.7183 26.5871 27.9846 27.3454 27.9922C28.0099 27.9922 28.6744 27.9922 29.3389 27.9922C29.9818 27.9998 30.2709 28.2661 30.3038 28.9039C30.3267 29.3401 30.3038 29.7776 30.3038 30.2735C30.8276 29.9057 31.0647 29.4035 31.2207 28.8608C31.435 28.138 31.6112 27.9922 32.3543 27.9909C34.1575 27.9909 35.9611 27.9909 37.7651 27.9909C38.3408 27.9909 38.682 28.2445 38.7428 28.6833C38.8151 29.2171 38.4652 29.6014 37.8666 29.6052C36.3006 29.6141 34.7345 29.6204 33.1748 29.5988C32.821 29.5988 32.6599 29.7016 32.5116 30.0249C31.8357 31.5022 30.6614 32.3011 29.0472 32.4621C28.6921 32.4989 28.3878 32.4317 28.1785 32.1122C27.9693 31.7926 28.0429 31.4997 28.1925 31.1738C28.4068 30.7097 28.5742 30.2075 28.7999 29.6204Z" fill="#566DED"/>
<path d="M49.7586 30.9746C47.6959 32.4032 45.3673 33.4028 42.911 33.914C42.1235 34.0751 41.3208 34.1676 40.5207 34.2563C39.9855 34.3109 39.633 33.9939 39.595 33.5297C39.5569 33.0656 39.8765 32.7004 40.3989 32.6548C43.7113 32.3811 46.8763 31.1653 49.5202 29.1511C50.0781 28.7327 50.6132 28.8975 50.8846 29.5531C51.5009 31.0443 52.5534 32.0601 54.0979 32.5534C54.524 32.6891 54.7738 32.9667 54.77 33.4182C54.7509 35.7096 54.8257 38.0086 54.6761 40.2924C54.4022 44.444 50.7705 48.1544 46.6404 48.6908C45.4324 48.8611 44.203 48.8009 43.0175 48.5133C42.9131 48.4935 42.8077 48.4796 42.7018 48.4714C42.6472 48.6388 42.594 48.7986 42.5407 48.9571C41.9878 50.6056 40.929 51.7976 39.3185 52.476C38.6908 52.741 38.2356 52.6028 38.0391 52.107C37.8527 51.6403 38.0809 51.2396 38.6819 50.986C39.9361 50.456 40.6944 49.5049 41.0697 48.2153C41.1433 47.9617 41.0697 47.8577 40.858 47.6865C39.8638 46.8724 38.6591 46.9256 37.4951 46.7887C37.0246 46.7342 36.5516 46.6949 36.0837 46.6188C35.5917 46.5389 35.2949 46.1623 35.3482 45.7311C35.4065 45.267 35.7933 44.9703 36.3043 45.0236C36.7748 45.0679 37.2439 45.1263 37.7816 45.1859C37.4823 44.7091 37.1882 44.2982 36.9612 43.862C36.6964 43.3419 36.4614 42.8072 36.2574 42.2604C36.0596 41.7354 36.2574 41.3018 36.7139 41.1344C37.1704 40.967 37.5927 41.2003 37.7778 41.7329C38.4119 43.5475 39.5164 44.9855 41.1509 45.9962C46.071 49.0395 52.5864 45.8085 53.0708 40.0362C53.2331 38.1037 53.138 36.1496 53.1469 34.2031C53.1455 34.1377 53.1292 34.0734 53.0994 34.0152C53.0695 33.957 53.0267 33.9063 52.9744 33.8671C51.6162 33.2786 50.4872 32.263 49.7586 30.9746Z" fill="#566DED"/>
<path d="M56.9865 36.7228C56.9865 39.0801 56.9992 41.4362 56.9865 43.7923C56.9869 44.4712 56.7478 45.1285 56.3113 45.6486C55.8747 46.1686 55.2688 46.518 54.6 46.6353C54.0928 46.7291 53.6743 46.4819 53.5729 46.0355C53.4715 45.5891 53.7301 45.2138 54.2006 45.0717C55.1072 44.7978 55.3735 44.4454 55.3735 43.4981C55.3735 39.1169 55.3989 34.7357 55.366 30.3558C55.3406 26.8319 53.7023 24.3134 50.4839 22.8437C49.9044 22.58 49.6875 22.1552 49.9006 21.686C50.1035 21.2384 50.56 21.0989 51.1179 21.3551C54.8106 23.0492 56.8052 25.929 56.9726 29.9868C57.0652 32.2287 56.9891 34.477 56.9891 36.7228H56.9865Z" fill="#566DED"/>
<path d="M39.6786 58.0176C39.6786 58.2712 39.6926 58.5248 39.6786 58.7784C39.6457 59.2641 39.2982 59.6001 38.8633 59.5963C38.4283 59.5925 38.0898 59.2603 38.0682 58.767C38.0441 58.2154 38.0834 57.6549 38.0048 57.1109C37.7728 55.5144 36.8635 54.4366 35.3507 53.8888C34.1778 53.4652 32.996 53.0658 31.8141 52.6689C30.8748 52.3724 30.0261 51.8423 29.3477 51.1282C28.9483 50.6996 28.9217 50.2025 29.278 49.8715C29.6343 49.5405 30.0882 49.5646 30.4902 49.9881C31.0093 50.5238 31.654 50.9214 32.3657 51.1446C33.4283 51.501 34.4884 51.8674 35.5485 52.2301C38.2825 53.1659 39.6799 55.1226 39.6786 58.0176Z" fill="#566DED"/>
<path d="M37.1362 33.805C37.1362 34.5962 37.1362 35.3875 37.1362 36.1775C37.1362 36.7532 36.8306 37.0968 36.3462 37.1032C35.8618 37.1095 35.5258 36.757 35.5233 36.2003C35.5156 34.5873 35.5156 32.9739 35.5233 31.3601C35.5233 30.8402 35.8694 30.4813 36.3208 30.4724C36.7913 30.4636 37.1299 30.8313 37.135 31.3842C37.1426 32.1919 37.1362 32.9985 37.1362 33.805Z" fill="#566DED"/>
<path d="M42.3492 17.7473C42.3521 17.8539 42.3338 17.96 42.2956 18.0595C42.2573 18.159 42.1998 18.25 42.1262 18.3271C42.0527 18.4043 41.9646 18.4662 41.8671 18.5092C41.7696 18.5523 41.6645 18.5757 41.5579 18.578C41.3431 18.5741 41.1381 18.4873 40.9856 18.3359C40.8332 18.1844 40.7452 17.9799 40.74 17.7651C40.7444 17.5584 40.8273 17.3611 40.972 17.2134C41.1166 17.0657 41.3121 16.9787 41.5186 16.97C41.6249 16.9637 41.7313 16.979 41.8314 17.0151C41.9316 17.0512 42.0233 17.1074 42.101 17.1801C42.1787 17.2529 42.2408 17.3407 42.2835 17.4382C42.3262 17.5357 42.3485 17.6409 42.3492 17.7473Z" fill="#566DED"/>
<path d="M37.5179 18.5767C37.3033 18.5768 37.097 18.4933 36.9429 18.3439C36.7888 18.1946 36.699 17.991 36.6924 17.7765C36.6914 17.5703 36.7699 17.3716 36.9116 17.2216C37.0533 17.0717 37.2472 16.9821 37.4532 16.9714C37.5593 16.9638 37.6659 16.9778 37.7664 17.0128C37.8669 17.0477 37.9593 17.1027 38.0378 17.1745C38.1164 17.2463 38.1795 17.3333 38.2233 17.4303C38.2671 17.5273 38.2907 17.6321 38.2927 17.7385C38.2974 17.8446 38.2811 17.9505 38.2446 18.0502C38.2082 18.1499 38.1523 18.2413 38.0802 18.3193C38.0082 18.3973 37.9214 18.4602 37.8248 18.5044C37.7283 18.5486 37.624 18.5731 37.5179 18.5767Z" fill="#566DED"/>
</svg>
