<svg width="21" height="21" viewBox="0 0 21 21" fill="none" xmlns="http://www.w3.org/2000/svg">
    <path d="M10.4803 0.399902C10.1541 0.399902 9.88965 0.664346 9.88965 0.990531V4.7863C9.88965 5.11249 10.1541 5.37693 10.4803 5.37693C10.8065 5.37693 11.0709 5.11249 11.0709 4.7863V0.990531C11.0709 0.664346 10.8065 0.399902 10.4803 0.399902Z"
          fill="#0052CB" stroke="#0052CB" stroke-width="0.5"/>
    <path d="M10.4803 15.583C10.1541 15.583 9.88965 15.8475 9.88965 16.1736V19.9694C9.88965 20.2956 10.1541 20.56 10.4803 20.56C10.8065 20.56 11.0709 20.2956 11.0709 19.9694V16.1736C11.0709 15.8474 10.8065 15.583 10.4803 15.583Z"
          fill="#0052CB" stroke="#0052CB" stroke-width="0.5"/>
    <path d="M8.14461 5.25381L6.24673 1.96657C6.08363 1.68405 5.72241 1.58727 5.43993 1.7504C5.15745 1.91349 5.06066 2.27472 5.22376 2.5572L7.12164 5.84444C7.23103 6.03395 7.42956 6.13983 7.63368 6.13983C7.73389 6.13983 7.83544 6.11432 7.92844 6.06061C8.21092 5.89752 8.30771 5.53629 8.14461 5.25381Z"
          fill="#0052CB" stroke="#0052CB" stroke-width="0.5"/>
    <path d="M15.7364 18.4027L13.8385 15.1155C13.6754 14.833 13.3142 14.7362 13.0317 14.8993C12.7492 15.0624 12.6525 15.4236 12.8156 15.7061L14.7134 18.9933C14.8228 19.1828 15.0213 19.2887 15.2254 19.2887C15.3257 19.2887 15.4272 19.2632 15.5202 19.2095C15.8027 19.0464 15.8995 18.6851 15.7364 18.4027Z"
          fill="#0052CB" stroke="#0052CB" stroke-width="0.5"/>
    <path d="M5.84518 7.12173L2.5579 5.2238C2.27534 5.06063 1.91419 5.15746 1.7511 5.43997C1.58801 5.72245 1.68479 6.08368 1.96727 6.24677L5.25455 8.14474C5.34756 8.19844 5.44911 8.22396 5.54932 8.22396C5.75344 8.22396 5.95197 8.11804 6.06135 7.92853C6.22444 7.64605 6.12766 7.28482 5.84518 7.12173Z"
          fill="#0052CB" stroke="#0052CB" stroke-width="0.5"/>
    <path d="M18.9935 14.7132L15.7063 12.8153C15.4238 12.6522 15.0626 12.749 14.8995 13.0315C14.7364 13.314 14.8332 13.6753 15.1157 13.8383L18.4029 15.7362C18.496 15.7899 18.5975 15.8154 18.6977 15.8154C18.9018 15.8154 19.1004 15.7095 19.2097 15.52C19.3728 15.2374 19.276 14.8762 18.9935 14.7132Z"
          fill="#0052CB" stroke="#0052CB" stroke-width="0.5"/>
    <path d="M4.78683 9.8894H0.991019C0.664835 9.8894 0.400391 10.1539 0.400391 10.48C0.400391 10.8062 0.664835 11.0707 0.991019 11.0707H4.78683C5.11302 11.0707 5.37746 10.8062 5.37746 10.48C5.37746 10.1539 5.11302 9.8894 4.78683 9.8894Z"
          fill="#0052CB" stroke="#0052CB" stroke-width="0.5"/>
    <path d="M19.9703 9.8894H16.1746C15.8484 9.8894 15.584 10.1539 15.584 10.48C15.584 10.8062 15.8484 11.0707 16.1746 11.0707H19.9703C20.2965 11.0707 20.5609 10.8062 20.5609 10.48C20.5609 10.1539 20.2965 9.8894 19.9703 9.8894Z"
          fill="#0052CB" stroke="#0052CB" stroke-width="0.5"/>
    <path d="M6.06135 13.0315C5.89826 12.749 5.53711 12.6522 5.25456 12.8153L1.96727 14.7132C1.68479 14.8763 1.58801 15.2375 1.7511 15.52C1.86049 15.7095 2.05902 15.8154 2.26314 15.8154C2.36335 15.8154 2.4649 15.7899 2.5579 15.7362L5.84518 13.8383C6.12766 13.6752 6.22445 13.314 6.06135 13.0315Z"
          fill="#0052CB" stroke="#0052CB" stroke-width="0.5"/>
    <path d="M19.2097 5.43994C19.0466 5.15742 18.6854 5.06067 18.4029 5.22377L15.1157 7.12165C14.8332 7.28471 14.7364 7.64594 14.8995 7.92841C15.0089 8.11793 15.2075 8.22385 15.4116 8.22385C15.5117 8.22385 15.6133 8.19833 15.7063 8.14462L18.9935 6.24674C19.276 6.08364 19.3728 5.72241 19.2097 5.43994Z"
          fill="#0052CB" stroke="#0052CB" stroke-width="0.5"/>
    <path d="M7.92844 14.8993C7.64597 14.7362 7.2847 14.833 7.12164 15.1155L5.22376 18.4027C5.06066 18.6852 5.15745 19.0465 5.43993 19.2095C5.53293 19.2633 5.63448 19.2888 5.73469 19.2888C5.93881 19.2888 6.13738 19.1829 6.24673 18.9934L8.14461 15.7061C8.30771 15.4237 8.21092 15.0624 7.92844 14.8993Z"
          fill="#0052CB" stroke="#0052CB" stroke-width="0.5"/>
    <path d="M15.5202 1.75042C15.2377 1.58724 14.8765 1.68407 14.7134 1.96659L12.8156 5.25375C12.6524 5.53623 12.7492 5.89746 13.0318 6.06055C13.1248 6.11426 13.2263 6.13977 13.3265 6.13977C13.5306 6.13977 13.7292 6.03385 13.8385 5.84438L15.7364 2.55721C15.8995 2.27474 15.8027 1.91351 15.5202 1.75042Z"
          fill="#0052CB" stroke="#0052CB" stroke-width="0.5"/>
</svg>
