<svg viewBox="0 0 14 17" fill="none" xmlns="http://www.w3.org/2000/svg">
<path fill-rule="evenodd" clip-rule="evenodd" d="M2.05 2.04999C3.36282 0.73717 5.14339 -0.000366211 7 -0.000366211C8.85661 -0.000366211 10.6372 0.73717 11.95 2.04999C13.2628 3.36281 14.0004 5.14338 14.0004 6.99999C14.0004 8.8566 13.2628 10.6372 11.95 11.95L7 16.9L2.05 11.95C1.39992 11.3 0.884236 10.5283 0.532408 9.67894C0.18058 8.82962 -0.00050354 7.9193 -0.00050354 6.99999C-0.00050354 6.08068 0.18058 5.17037 0.532408 4.32104C0.884236 3.47172 1.39992 2.70001 2.05 2.04999ZM7 8.99999C7.53043 8.99999 8.03914 8.78928 8.41422 8.4142C8.78929 8.03913 9 7.53043 9 6.99999C9 6.46956 8.78929 5.96085 8.41422 5.58578C8.03914 5.21071 7.53043 4.99999 7 4.99999C6.46957 4.99999 5.96086 5.21071 5.58579 5.58578C5.21072 5.96085 5 6.46956 5 6.99999C5 7.53043 5.21072 8.03913 5.58579 8.4142C5.96086 8.78928 6.46957 8.99999 7 8.99999Z" fill="#566DED"/>
</svg>
