<svg viewBox="-2 0 21 21" fill="none"
    xmlns="http://www.w3.org/2000/svg">
    <path fill-rule="evenodd" clip-rule="evenodd" d="M9 1.75C7.5661 1.75 6.16441 2.1752 4.97216 2.97182C3.77991 3.76844 2.85066 4.90072 2.30191 6.22546C1.75317 7.5502 1.60957 9.00791 1.88928 10.4143C2.169 11.8206 2.85945 13.1124 3.87335 14.1264L8.11727 18.3693C8.23318 18.4853 8.37114 18.5777 8.52263 18.6405C8.67412 18.7033 8.8365 18.7356 9.0005 18.7356C9.1645 18.7356 9.32689 18.7033 9.47838 18.6405C9.62987 18.5777 9.7675 18.4857 9.88341 18.3696L14.1267 14.1264C14.1267 14.1264 14.1267 14.1264 14.1267 14.1264C15.1405 13.1124 15.831 11.8206 16.1107 10.4143C16.3904 9.00791 16.2468 7.5502 15.6981 6.22546C15.1493 4.90072 14.2201 3.76844 13.0278 2.97182C11.8356 2.1752 10.4339 1.75 9 1.75ZM4.13881 1.72461C5.57773 0.763167 7.26944 0.25 9 0.25C10.7306 0.25 12.4223 0.763167 13.8612 1.72461C15.3001 2.68605 16.4216 4.05259 17.0839 5.65142C17.7462 7.25024 17.9195 9.00955 17.5819 10.7069C17.2443 12.4042 16.411 13.9633 15.1873 15.187L10.9446 19.4298C10.9445 19.4299 10.9447 19.4297 10.9446 19.4298C10.6894 19.6851 10.3862 19.8879 10.0527 20.0262C9.71916 20.1644 9.3616 20.2356 9.0005 20.2356C8.63941 20.2356 8.28184 20.1644 7.94826 20.0262C7.61482 19.888 7.31188 19.6854 7.05674 19.4301C7.05663 19.43 7.05684 19.4302 7.05674 19.4301L2.81274 15.1871C1.58907 13.9634 0.755684 12.4042 0.4181 10.7069C0.0805156 9.00955 0.253821 7.25024 0.916101 5.65142C1.57838 4.05259 2.69989 2.68605 4.13881 1.72461ZM9 6.74971C8.40327 6.74971 7.83097 6.98676 7.40901 7.40872C6.98706 7.83067 6.75 8.40297 6.75 8.99971C6.75 9.59645 6.98706 10.1687 7.40901 10.5907C7.83097 11.0127 8.40327 11.2497 9 11.2497C9.59674 11.2497 10.169 11.0127 10.591 10.5907C11.013 10.1687 11.25 9.59645 11.25 8.99971C11.25 8.40297 11.013 7.83067 10.591 7.40872C10.169 6.98676 9.59674 6.74971 9 6.74971ZM6.34835 6.34806C7.05161 5.64479 8.00544 5.24971 9 5.24971C9.99457 5.24971 10.9484 5.64479 11.6517 6.34806C12.3549 7.05132 12.75 8.00515 12.75 8.99971C12.75 9.99427 12.3549 10.9481 11.6517 11.6514C10.9484 12.3546 9.99457 12.7497 9 12.7497C8.00544 12.7497 7.05161 12.3546 6.34835 11.6514C5.64509 10.9481 5.25 9.99427 5.25 8.99971C5.25 8.00515 5.64509 7.05132 6.34835 6.34806Z" fill="currentColor"/>
</svg>
