<svg width="20" height="20" viewBox="0 0 20 20" fill="none" xmlns="http://www.w3.org/2000/svg">
<path fill-rule="evenodd" clip-rule="evenodd" d="M2.54628 4.21272C2.97605 3.78295 3.55895 3.5415 4.16673 3.5415H15.8334C16.4412 3.5415 17.0241 3.78295 17.4539 4.21272C17.8836 4.64249 18.1251 5.22538 18.1251 5.83317V6.65684C18.1252 6.6629 18.1252 6.66896 18.1251 6.67502V14.1665C18.1251 14.7743 17.8836 15.3572 17.4539 15.787C17.0241 16.2167 16.4412 16.4582 15.8334 16.4582H4.16673C3.55894 16.4582 2.97605 16.2167 2.54628 15.787C2.11651 15.3572 1.87507 14.7743 1.87507 14.1665V6.67505C1.87498 6.66897 1.87498 6.66289 1.87507 6.65681V5.83317C1.87507 5.22538 2.11651 4.64249 2.54628 4.21272ZM3.12507 7.83433V14.1665C3.12507 14.4428 3.23481 14.7077 3.43016 14.9031C3.62551 15.0984 3.89047 15.2082 4.16673 15.2082H15.8334C16.1097 15.2082 16.3746 15.0984 16.57 14.9031C16.7653 14.7077 16.8751 14.4428 16.8751 14.1665V7.83433L11.2719 11.5697C11.2719 11.5698 11.272 11.5697 11.2719 11.5697C10.8954 11.8209 10.4527 11.9551 10.0001 11.9551C9.54743 11.9551 9.10493 11.821 8.72838 11.5699C8.72832 11.5698 8.72844 11.5699 8.72838 11.5699L3.12507 7.83433ZM16.8751 6.33201L10.5784 10.5298C10.4072 10.644 10.2058 10.7051 10.0001 10.7051C9.79429 10.7051 9.59312 10.6441 9.42194 10.5299L3.12507 6.33201V5.83317C3.12507 5.5569 3.23481 5.29195 3.43016 5.0966C3.62551 4.90125 3.89047 4.7915 4.16673 4.7915H15.8334C16.1097 4.7915 16.3746 4.90125 16.57 5.0966C16.7653 5.29195 16.8751 5.5569 16.8751 5.83317V6.33201Z" fill="#5F647A"/>
</svg>
