<svg viewBox="0 0 25 25" fill="none" xmlns="http://www.w3.org/2000/svg">
<path d="M9.65364 5.77344H7.65202C7.12115 5.77344 6.61203 5.98415 6.23665 6.35922C5.86128 6.7343 5.65039 7.243 5.65039 7.77344V19.7734C5.65039 20.3039 5.86128 20.8126 6.23665 21.1877C6.61203 21.5627 7.12115 21.7734 7.65202 21.7734H17.6601C18.191 21.7734 18.7001 21.5627 19.0755 21.1877C19.4509 20.8126 19.6618 20.3039 19.6618 19.7734V7.77344C19.6618 7.243 19.4509 6.7343 19.0755 6.35922C18.7001 5.98415 18.191 5.77344 17.6601 5.77344H15.6585M9.65364 5.77344C9.65364 6.30387 9.86453 6.81258 10.2399 7.18765C10.6153 7.56272 11.1244 7.77344 11.6553 7.77344H13.6569C14.1878 7.77344 14.6969 7.56272 15.0723 7.18765C15.4476 6.81258 15.6585 6.30387 15.6585 5.77344M9.65364 5.77344C9.65364 5.243 9.86453 4.7343 10.2399 4.35922C10.6153 3.98415 11.1244 3.77344 11.6553 3.77344H13.6569C14.1878 3.77344 14.6969 3.98415 15.0723 4.35922C15.4476 4.7343 15.6585 5.243 15.6585 5.77344M9.65364 14.7734L11.6553 16.7734L15.6585 12.7734" stroke="#4C5462" stroke-width="2" stroke-linecap="round" stroke-linejoin="round"/>
</svg>
