<svg viewBox="0 0 25 25" fill="none" xmlns="http://www.w3.org/2000/svg">
<path d="M3.64941 10.7734H21.664H3.64941ZM7.65266 15.7734H8.65348H7.65266ZM12.6567 15.7734H13.6575H12.6567ZM6.65185 19.7734H18.6616C19.4579 19.7734 20.2216 19.4574 20.7846 18.8948C21.3477 18.3321 21.664 17.5691 21.664 16.7734V8.77344C21.664 7.97779 21.3477 7.21473 20.7846 6.65212C20.2216 6.08951 19.4579 5.77344 18.6616 5.77344H6.65185C5.85556 5.77344 5.09187 6.08951 4.52881 6.65212C3.96574 7.21473 3.64941 7.97779 3.64941 8.77344V16.7734C3.64941 17.5691 3.96574 18.3321 4.52881 18.8948C5.09187 19.4574 5.85556 19.7734 6.65185 19.7734Z" stroke="#4C5462" stroke-width="2" stroke-linecap="round" stroke-linejoin="round"/>
</svg>
