<svg viewBox="0 0 25 25" fill="none" xmlns="http://www.w3.org/2000/svg">
<path d="M19.6619 21.7734V5.77344C19.6619 5.243 19.451 4.7343 19.0757 4.35922C18.7003 3.98415 18.1912 3.77344 17.6603 3.77344H7.65217C7.12131 3.77344 6.61219 3.98415 6.23681 4.35922C5.86144 4.7343 5.65055 5.243 5.65055 5.77344V21.7734M19.6619 21.7734H5.65055M19.6619 21.7734H21.6635M19.6619 21.7734H14.6579M5.65055 21.7734H3.64893M5.65055 21.7734H10.6546M14.6579 21.7734V16.7734C14.6579 16.5082 14.5524 16.2539 14.3647 16.0663C14.177 15.8788 13.9225 15.7734 13.657 15.7734H11.6554C11.39 15.7734 11.1354 15.8788 10.9477 16.0663C10.7601 16.2539 10.6546 16.5082 10.6546 16.7734V21.7734M14.6579 21.7734H10.6546M9.6538 7.77344H10.6546M9.6538 11.7734H10.6546M14.6579 7.77344H15.6587M14.6579 11.7734H15.6587" stroke="#4C5462" stroke-width="2" stroke-linecap="round" stroke-linejoin="round"/>
</svg>
