<svg  viewBox="0 0 25 25" fill="none" xmlns="http://www.w3.org/2000/svg">
<path d="M3.64893 5.77344C3.64893 5.243 3.85981 4.7343 4.23519 4.35922C4.61057 3.98415 5.11969 3.77344 5.65055 3.77344H8.93321C9.14318 3.7736 9.34777 3.83973 9.51805 3.96249C9.68832 4.08524 9.81564 4.25839 9.88198 4.45744L11.3812 8.95044C11.4572 9.17878 11.4482 9.42683 11.3559 9.64908C11.2636 9.87134 11.0942 10.0529 10.8788 10.1604L8.61996 11.2904C9.72718 13.739 11.6899 15.7001 14.1404 16.8064L15.2714 14.5494C15.379 14.3342 15.5607 14.1649 15.7831 14.0727C16.0056 13.9805 16.2538 13.9715 16.4823 14.0474L20.979 15.5454C21.1784 15.6118 21.3518 15.7392 21.4746 15.9095C21.5975 16.0798 21.6636 16.2845 21.6635 16.4944V19.7734C21.6635 20.3039 21.4527 20.8126 21.0773 21.1877C20.7019 21.5627 20.1928 21.7734 19.6619 21.7734H18.6611C10.3704 21.7734 3.64893 15.0574 3.64893 6.77344V5.77344Z" stroke="#4C5462" stroke-width="2" stroke-linecap="round" stroke-linejoin="round"/>
</svg>
