<svg
    xmlns="http://www.w3.org/2000/svg"
    width="52"
    height="52"
    fill="none"
    viewBox="0 0 52 52"
>
    <path
        fill="#3486FA"
        d="M22.602 3.73a4.597 4.597 0 016.796 0 4.597 4.597 0 004.794 1.284 4.597 4.597 0 015.886 3.399 4.598 4.598 0 003.51 3.509 4.597 4.597 0 013.398 5.886 4.597 4.597 0 001.284 4.794 4.597 4.597 0 010 6.796 4.597 4.597 0 00-1.284 4.794 4.597 4.597 0 01-3.399 5.886 4.598 4.598 0 00-3.509 3.51 4.597 4.597 0 01-5.886 3.398 4.597 4.597 0 00-4.794 1.284 4.597 4.597 0 01-6.796 0 4.597 4.597 0 00-4.794-1.284 4.597 4.597 0 01-5.886-3.399 4.598 4.598 0 00-3.51-3.509 4.597 4.597 0 01-3.398-5.886 4.597 4.597 0 00-1.284-4.794 4.597 4.597 0 010-6.796 4.597 4.597 0 001.284-4.794 4.597 4.597 0 013.399-5.886 4.598 4.598 0 003.509-3.51 4.597 4.597 0 015.886-3.398 4.597 4.597 0 004.794-1.284z"
    />
    <mask
        id="mechanical_mask0"
        width="48"
        height="48"
        x="2"
        y="2"
        maskUnits="userSpaceOnUse"
    >
        <path
            fill="#3486FA"
            d="M22.602 3.73a4.597 4.597 0 016.796 0 4.597 4.597 0 004.794 1.284 4.597 4.597 0 015.886 3.399 4.598 4.598 0 003.51 3.509 4.597 4.597 0 013.398 5.886 4.597 4.597 0 001.284 4.794 4.597 4.597 0 010 6.796 4.597 4.597 0 00-1.284 4.794 4.597 4.597 0 01-3.399 5.886 4.598 4.598 0 00-3.509 3.51 4.597 4.597 0 01-5.886 3.398 4.597 4.597 0 00-4.794 1.284 4.597 4.597 0 01-6.796 0 4.597 4.597 0 00-4.794-1.284 4.597 4.597 0 01-5.886-3.399 4.598 4.598 0 00-3.51-3.509 4.597 4.597 0 01-3.398-5.886 4.597 4.597 0 00-1.284-4.794 4.597 4.597 0 010-6.796 4.597 4.597 0 001.284-4.794 4.597 4.597 0 013.399-5.886 4.598 4.598 0 003.509-3.51 4.597 4.597 0 015.886-3.398 4.597 4.597 0 004.794-1.284z"
        />
    </mask>
    <g mask="url(#mechanical_mask0)">
        <path
            fill="#0052CB"
            d="M33.965 14.86l2.547 3.82.85-.424L48.4 36.088l-6.793 11.887-14.01 4.246L15.709 35.24l1.698-4.246L33.965 14.86z"
        />
    </g>
    <path
        fill="#fff"
        d="M37.733 34.056l-3.142-5.257a.747.747 0 00-.642-.364h-1.805l-.624-.623a7.514 7.514 0 01-.711-.062l-2.847 2.846 1.01 1.01v1.806c0 .263.138.506.364.641l5.258 3.143c.293.176.669.13.912-.113l2.114-2.115a.747.747 0 00.113-.912z"
    />
    <path
        fill="#fff"
        d="M37.494 18.348a.748.748 0 00-1.233-.278l-3.058 3.058-1.762-.352-.353-1.762 3.058-3.058a.748.748 0 00-.277-1.233 6.005 6.005 0 00-6.235 1.402 6.007 6.007 0 00-1.545 5.774l-6.445 6.445c-2.317-.217-4.73 1.747-4.73 4.474a4.49 4.49 0 004.485 4.485c2.72 0 4.692-2.408 4.474-4.73l6.445-6.445a6.005 6.005 0 005.774-1.545 6.007 6.007 0 001.402-6.235zM19.399 34.313c-.824 0-1.495-.67-1.495-1.495 0-.825.67-1.495 1.495-1.495.825 0 1.495.67 1.495 1.495 0 .824-.67 1.495-1.495 1.495z"
    />
    <path
        fill="#fff"
        d="M24.57 18.748l-3.716-3.716a2.245 2.245 0 00-3.171 0l-2.115 2.114a2.245 2.245 0 000 3.172l4.993 4.993 2.115-2.114-4.553-4.554a.747.747 0 111.057-1.057l4.553 4.553.732-.732a7.497 7.497 0 01.106-2.659z"
    />
</svg>