<svg width="48" height="48" viewBox="0 0 48 48" fill="none" xmlns="http://www.w3.org/2000/svg">
    <path d="M23.784 25.9919C25.9777 25.9919 27.756 24.2135 27.756 22.0199C27.756 19.8262 25.9777 18.0479 23.784 18.0479C21.5903 18.0479 19.812 19.8262 19.812 22.0199C19.812 24.2135 21.5903 25.9919 23.784 25.9919Z"
          stroke="#566DED" stroke-width="1.5" stroke-linecap="round" stroke-linejoin="round"/>
    <path d="M23.784 29.9273C28.1514 29.9273 31.692 26.3868 31.692 22.0193C31.692 17.6519 28.1514 14.1113 23.784 14.1113C19.4165 14.1113 15.876 17.6519 15.876 22.0193C15.876 26.3868 19.4165 29.9273 23.784 29.9273Z"
          stroke="#566DED" stroke-width="1.5" stroke-linecap="round" stroke-linejoin="round"/>
    <path d="M20.256 29.268V34.476L24.024 32.34L27.516 34.32V29.04" stroke="#566DED" stroke-width="1.5"
          stroke-linecap="round" stroke-linejoin="round"/>
</svg>
