<svg
    width="20"
    height="20"
    viewBox="0 0 40 28"
    fill="none"
    xmlns="http://www.w3.org/2000/svg"
>
    <path
        d="M40 13.23C40 5.94171 31.0463 0 20.0006 0C8.95591 0 0.00225079 5.94171 0.00225079 13.23C0.00225079 13.4189 0 13.9391 0 14.0051C0 21.7373 7.82601 28 19.9983 28C32.246 28 40 21.7396 40 14.0063C40 13.7365 40 13.5806 40 13.23Z"
        fill="#253E8B"
    />
    <path
        d="M39.2347 13.2265C39.2347 20.0982 30.6254 25.6688 20.0051 25.6688C9.38468 25.6688 0.775391 20.0982 0.775391 13.2265C0.775391 6.35371 9.38468 0.783081 20.0051 0.783081C30.6254 0.783081 39.2347 6.35371 39.2347 13.2265Z"
        fill="#00AEEF"
    />
    <path
        d="M13.6192 9.29898C13.6091 9.31833 13.4178 9.5198 13.5415 9.68029C13.8454 10.073 14.7829 10.2972 15.7304 10.0821C16.2943 9.95461 17.0179 9.37296 17.719 8.80953C18.4775 8.19942 19.2316 7.58931 19.9889 7.34573C20.7902 7.08734 21.3045 7.19889 21.6444 7.30247C22.0169 7.41402 22.4547 7.66216 23.1536 8.19259C24.4692 9.19312 29.7596 13.8645 30.6735 14.6716C31.4106 14.3346 34.6821 12.9107 39.1286 11.9192C38.7426 9.52208 37.2998 7.32752 35.1132 5.53134C32.0656 6.82668 28.3405 7.50281 24.6987 5.70322C24.6796 5.69525 22.7079 4.75164 20.7643 4.79831C17.8732 4.86546 16.6218 6.13121 15.2972 7.4698L13.6192 9.29898Z"
        fill="white"
    />
    <path
        d="M30.4594 15.181C30.3975 15.1252 24.2382 9.67409 22.8438 8.61437C22.0358 8.00198 21.5867 7.8449 21.1152 7.78458C20.8698 7.75157 20.53 7.79824 20.2936 7.86426C19.6443 8.04296 18.7957 8.61664 18.0417 9.22106C17.2618 9.84938 16.5258 10.4413 15.8438 10.5961C14.9716 10.7941 13.907 10.5596 13.4208 10.2284C13.2239 10.0941 13.0855 9.9393 13.0191 9.78222C12.839 9.36106 13.1699 9.02414 13.225 8.96837L14.9244 7.10845C15.1224 6.90926 15.3205 6.71006 15.5242 6.51314C14.9761 6.58599 14.4686 6.72714 13.9757 6.866C13.3601 7.04129 12.7681 7.20748 12.1683 7.20748C11.9184 7.20748 10.5781 6.98552 10.3237 6.91495C8.78532 6.48924 7.43485 6.07491 5.41926 5.12219C3.00303 6.94227 1.38696 9.21651 0.919922 11.7218C1.26767 11.8151 1.82699 11.9836 2.0622 12.036C7.52938 13.2653 9.23211 14.5322 9.54159 14.7974C9.87583 14.4206 10.3586 14.1827 10.8977 14.1827C11.502 14.1839 12.0479 14.4901 12.3787 14.9658C12.6916 14.7154 13.1237 14.5026 13.6819 14.5026C13.9351 14.5026 14.1985 14.5504 14.4641 14.6414C15.0808 14.8554 15.3993 15.2709 15.5647 15.6465C15.7718 15.552 16.0261 15.4826 16.3255 15.4838C16.6203 15.4838 16.9264 15.5509 17.2348 15.6864C18.2432 16.1235 18.3996 17.1251 18.3084 17.8798C18.3805 17.8718 18.4525 17.8684 18.5256 17.8684C19.7208 17.8695 20.6932 18.8519 20.6932 20.0618C20.6932 20.4363 20.5986 20.788 20.4332 21.0965C20.7584 21.282 21.5878 21.6998 22.316 21.6064C22.8978 21.5325 23.1184 21.331 23.1972 21.2183C23.2512 21.1409 23.3086 21.0498 23.2557 20.985L21.7128 19.2514C21.7128 19.2514 21.4584 19.0078 21.5428 18.9145C21.6295 18.8177 21.787 18.9566 21.8973 19.0499C22.6829 19.7135 23.6417 20.714 23.6417 20.714C23.6575 20.7254 23.7216 20.8518 24.0761 20.9167C24.3811 20.9713 24.9213 20.9394 25.2949 20.6287C25.3894 20.5501 25.484 20.4522 25.5627 20.3509C25.5571 20.3555 25.5515 20.3635 25.5459 20.3657C25.9398 19.8547 25.502 19.3379 25.502 19.3379L23.7002 17.2924C23.7002 17.2924 23.4436 17.0511 23.5303 16.9544C23.6091 16.8701 23.7745 16.9976 23.8882 17.0921C24.4576 17.5747 25.2634 18.392 26.0365 19.1569C26.1862 19.2696 26.866 19.6942 27.764 19.0966C28.3098 18.7346 28.419 18.2907 28.4033 17.9549C28.3661 17.511 28.0229 17.1946 28.0229 17.1946L25.5627 14.6927C25.5627 14.6927 25.3028 14.4684 25.3951 14.3546C25.4705 14.259 25.6393 14.3967 25.7496 14.4901C26.5328 15.1537 28.6553 17.1217 28.6553 17.1217C28.6857 17.1433 29.4184 17.6715 30.3243 17.0876C30.6484 16.8781 30.8555 16.5628 30.8735 16.1952C30.9039 15.5589 30.4594 15.181 30.4594 15.181Z"
        fill="white"
    />
    <path
        d="M18.5254 18.351C18.1439 18.3464 17.7263 18.5752 17.6723 18.5422C17.6419 18.5217 17.6948 18.3669 17.7309 18.277C17.768 18.1882 18.2699 16.6595 17.0455 16.1279C16.108 15.7216 15.5352 16.1792 15.3383 16.3863C15.2865 16.441 15.264 16.4364 15.2572 16.367C15.2392 16.0915 15.1166 15.3471 14.3085 15.0967C13.1527 14.7393 12.4088 15.5554 12.2198 15.8502C12.1354 15.1832 11.5794 14.6664 10.8963 14.6653C10.1547 14.6653 9.55371 15.272 9.55371 16.0221C9.55259 16.7711 10.1535 17.3789 10.8952 17.3789C11.2553 17.38 11.5817 17.2343 11.8225 17.001C11.8304 17.0078 11.8338 17.0203 11.8293 17.0465C11.773 17.3812 11.6695 18.6014 12.9322 19.0988C13.4386 19.2969 13.8696 19.1489 14.2264 18.8962C14.3321 18.8199 14.3502 18.8518 14.3344 18.9531C14.2894 19.2673 14.3468 19.9388 15.2786 20.3201C15.9865 20.6115 16.4063 20.3133 16.6809 20.0572C16.8001 19.9468 16.8328 19.9639 16.8384 20.1346C16.8722 21.0429 17.6183 21.7635 18.5231 21.7646C19.4561 21.7646 20.2124 21.002 20.2124 20.0595C20.2135 19.1159 19.4583 18.3612 18.5254 18.351Z"
        fill="white"
    />
    <path
        d="M18.5252 21.644C17.68 21.6429 16.9924 20.9781 16.9609 20.1324C16.9598 20.0596 16.9519 19.8661 16.791 19.8661C16.7234 19.8661 16.666 19.907 16.5996 19.9674C16.4139 20.1415 16.1776 20.3191 15.8321 20.3191C15.6746 20.3191 15.5046 20.2815 15.3257 20.2075C14.4321 19.8422 14.4197 19.2218 14.4558 18.9725C14.4659 18.9054 14.4693 18.8359 14.4242 18.7824L14.3691 18.7335H14.314C14.2689 18.7335 14.2217 18.7517 14.1587 18.7972C13.8998 18.9805 13.6522 19.0693 13.4001 19.0693C13.2617 19.0693 13.1199 19.0408 12.977 18.9851C11.8021 18.5229 11.8955 17.4006 11.9529 17.0637C11.9608 16.9942 11.9439 16.9419 11.9011 16.9066L11.8178 16.8372L11.7402 16.9123C11.5117 17.1354 11.2112 17.2583 10.8973 17.2583C10.2231 17.2572 9.67507 16.704 9.6762 16.0233C9.6762 15.3415 10.2254 14.7894 10.8984 14.7894C11.5072 14.7894 12.0249 15.2527 12.1026 15.8674L12.1442 16.1986L12.3243 15.9186C12.3445 15.8856 12.8374 15.1309 13.7445 15.1321C13.9167 15.1321 14.0945 15.1594 14.2746 15.2163C14.9971 15.4394 15.1197 16.1019 15.1389 16.3784C15.1513 16.5389 15.2649 16.5469 15.2874 16.5469C15.3493 16.5469 15.3955 16.5071 15.4281 16.4718C15.5643 16.3284 15.8614 16.0893 16.3262 16.0893C16.5389 16.0893 16.7662 16.1406 16.9992 16.2419C18.1482 16.7404 17.6271 18.2167 17.6215 18.2327C17.5225 18.4774 17.518 18.5855 17.6114 18.6481L17.6564 18.6698H17.6901C17.7419 18.6698 17.8061 18.647 17.9119 18.6106C18.0683 18.5559 18.3046 18.474 18.5252 18.474H18.5263C19.3906 18.4842 20.094 19.1956 20.094 20.0607C20.0929 20.9338 19.3895 21.644 18.5252 21.644ZM30.6975 14.5276C28.8001 12.8533 24.4155 8.99799 23.2282 8.09535C22.5496 7.57972 22.0871 7.30654 21.6808 7.18474C21.4985 7.12897 21.2453 7.06522 20.92 7.06522C20.6184 7.06522 20.2943 7.11986 19.9556 7.22913C19.1881 7.475 18.4239 8.08966 17.6834 8.68383L17.6451 8.71456C16.9564 9.26889 16.2451 9.84144 15.7061 9.96323C15.4709 10.0167 15.2289 10.044 14.9881 10.044C14.3837 10.044 13.8424 9.86761 13.6387 9.60582C13.605 9.56142 13.6263 9.49199 13.7051 9.39068L13.7164 9.37703L15.3853 7.55809C16.6919 6.23543 17.9265 4.9879 20.7692 4.92189C20.8154 4.92075 20.8638 4.91961 20.911 4.91961C22.6802 4.92075 24.4482 5.72208 24.6462 5.81428C26.3051 6.63269 28.0179 7.04815 29.7387 7.04929C31.5325 7.05043 33.3838 6.60082 35.3296 5.69476C35.1124 5.51036 34.8862 5.33052 34.6533 5.15409C32.9438 5.90306 31.3153 6.2821 29.7443 6.2821C28.1383 6.27983 26.5358 5.89054 24.9782 5.12222C24.8961 5.08238 22.9435 4.15128 20.911 4.15015C20.8581 4.15015 20.8041 4.15128 20.7512 4.15242C18.3643 4.2082 17.0194 5.06644 16.1146 5.81769C15.2357 5.83932 14.476 6.05331 13.8019 6.24454C13.1987 6.413 12.6788 6.55984 12.1712 6.55984C11.9619 6.55984 11.586 6.54049 11.5522 6.53935C10.9693 6.52114 8.02861 5.79265 5.69004 4.89684C5.45145 5.06758 5.22187 5.24401 4.99792 5.42386C7.44116 6.43691 10.4145 7.22003 11.353 7.28149C11.6141 7.29971 11.8921 7.3293 12.1701 7.3293C12.7913 7.3293 13.4103 7.15401 14.0101 6.98441C14.3635 6.8831 14.754 6.77383 15.1659 6.69415C15.0556 6.80343 14.9464 6.91384 14.8361 7.02425L13.1413 8.87961C13.0074 9.0162 12.717 9.38044 12.9083 9.82778C12.9849 10.0088 13.139 10.1818 13.3551 10.3286C13.758 10.6041 14.4816 10.7896 15.1546 10.7907C15.409 10.7907 15.6509 10.7646 15.8726 10.7145C16.5828 10.5528 17.3289 9.95185 18.1189 9.3167C18.748 8.81131 19.6416 8.16933 20.327 7.98038C20.5183 7.92802 20.7535 7.89501 20.9414 7.89501C20.9977 7.89615 21.0517 7.89729 21.1012 7.90526C21.5536 7.96217 21.9903 8.11811 22.7713 8.71114C24.1634 9.76859 30.3227 15.2186 30.3835 15.2732C30.3869 15.2766 30.7796 15.6181 30.7526 16.1884C30.738 16.5059 30.5636 16.7882 30.2608 16.984C29.9975 17.1525 29.7263 17.2378 29.4528 17.2378C29.0409 17.2378 28.7573 17.0421 28.7382 17.0295C28.7157 17.0102 26.6055 15.0535 25.829 14.3956C25.7052 14.292 25.5848 14.1987 25.4633 14.1987C25.3991 14.1987 25.3417 14.226 25.3023 14.2761C25.1808 14.4286 25.317 14.6392 25.479 14.7781L27.9436 17.2834C27.947 17.2868 28.2509 17.5748 28.2835 17.9595C28.3038 18.375 28.1068 18.7221 27.6983 18.993C27.408 19.1865 27.1131 19.2856 26.825 19.2856C26.4469 19.2856 26.1801 19.1103 26.1216 19.0693L25.7683 18.7164C25.1223 18.0733 24.4549 17.4086 23.9665 16.9965C23.8472 16.8964 23.72 16.8042 23.5985 16.8042C23.5388 16.8042 23.4848 16.8258 23.4432 16.8702C23.388 16.9328 23.3486 17.0455 23.4882 17.2321C23.5445 17.3084 23.612 17.3721 23.612 17.3721L25.4115 19.4165C25.4261 19.4347 25.7818 19.8627 25.452 20.2884L25.3879 20.3692C25.335 20.4295 25.2765 20.4853 25.2213 20.5331C24.9141 20.7881 24.5044 20.8154 24.3424 20.8154C24.2557 20.8154 24.1713 20.8074 24.0993 20.7938C23.9215 20.7619 23.8022 20.7118 23.7437 20.6424L23.7223 20.6196C23.6244 20.5172 22.7173 19.5804 21.9667 18.9475C21.8688 18.8633 21.745 18.7574 21.6178 18.7574C21.5548 18.7574 21.4985 18.7824 21.4546 18.8314C21.3061 18.9953 21.5289 19.2412 21.6234 19.3322L23.1585 21.043C23.1562 21.0578 23.1371 21.0931 23.0999 21.1477C23.0448 21.224 22.8591 21.413 22.302 21.4835C22.2356 21.4926 22.167 21.4961 22.0983 21.4961C21.5244 21.4961 20.9122 21.2138 20.5971 21.0453C20.7411 20.738 20.8154 20.3999 20.8154 20.0619C20.8154 18.7836 19.7901 17.7444 18.5274 17.7444C18.5004 17.7444 18.4723 17.7444 18.4453 17.7455C18.4858 17.1627 18.4048 16.0586 17.2839 15.5726C16.9609 15.4314 16.639 15.3597 16.3273 15.3597C16.082 15.3597 15.8467 15.4018 15.6262 15.4872C15.3932 15.0308 15.0083 14.6984 14.5053 14.5254C14.2273 14.4286 13.9505 14.3785 13.6837 14.3785C13.2167 14.3785 12.7879 14.5174 12.4042 14.7929C12.0373 14.3319 11.4825 14.0575 10.8984 14.0575C10.3874 14.0575 9.89565 14.2647 9.53214 14.6301C9.05385 14.2613 7.15981 13.0434 2.08877 11.8789C1.84343 11.8231 1.28073 11.6592 0.935234 11.5579C0.877839 11.8345 0.833948 12.1157 0.804688 12.3991C0.804688 12.3991 1.73989 12.6256 1.92446 12.6677C7.10466 13.831 8.81527 15.041 9.10562 15.2698C9.00658 15.5077 8.95594 15.7638 8.95594 16.0233C8.95482 17.1047 9.82587 17.9868 10.8961 17.9879C11.0165 17.9879 11.1358 17.9766 11.2518 17.9549C11.4138 18.7517 11.9292 19.3561 12.7159 19.6657C12.9466 19.7545 13.1796 19.8012 13.408 19.8012C13.5554 19.8012 13.7051 19.783 13.8503 19.7454C13.9955 20.1188 14.323 20.5843 15.0545 20.8848C15.3111 20.9895 15.5677 21.0442 15.8164 21.0442C16.0201 21.0442 16.2193 21.0077 16.4094 20.9372C16.7594 21.8011 17.5945 22.3725 18.5241 22.3725C19.1408 22.3737 19.7327 22.1198 20.1649 21.6702C20.534 21.8785 21.3139 22.2541 22.1017 22.2553C22.2041 22.2553 22.2998 22.2473 22.3954 22.2359C23.1787 22.1369 23.5422 21.8262 23.7099 21.586C23.7403 21.5439 23.7673 21.4995 23.7909 21.4528C23.9755 21.5074 24.1781 21.5507 24.411 21.5518C24.8387 21.5518 25.2494 21.4039 25.6636 21.0977C26.071 20.8017 26.3602 20.3749 26.4019 20.0118C26.403 20.0061 26.4041 20.0015 26.4052 19.9958C26.5414 20.0243 26.6832 20.0391 26.8239 20.0391C27.2639 20.0391 27.6961 19.9002 28.1102 19.6259C28.9081 19.0977 29.0465 18.4068 29.0342 17.9538C29.1726 17.9834 29.3155 17.9982 29.4573 17.9982C29.8703 17.9982 30.2766 17.873 30.6626 17.6237C31.1578 17.3039 31.4549 16.8144 31.4999 16.2441C31.5314 15.8571 31.4369 15.4667 31.2343 15.1309C32.5713 14.5481 35.6267 13.4213 39.2246 12.6006C39.2032 12.3183 39.1627 12.0394 39.1132 11.7617C34.7602 12.7394 31.5112 14.1611 30.6975 14.5276Z"
        fill="#253E8B"
    />
</svg>