<svg viewBox="-2 -1 36 36" fill="none" xmlns="http://www.w3.org/2000/svg">
<path fill-rule="evenodd" clip-rule="evenodd" d="M16.332 3.25C12.6853 3.25 9.18794 4.69866 6.60931 7.27728C4.03069 9.85591 2.58203 13.3533 2.58203 17C2.58203 18.8057 2.93769 20.5937 3.62869 22.2619C4.31969 23.9301 5.33251 25.4459 6.60931 26.7227C7.88612 27.9995 9.40191 29.0123 11.0701 29.7033C12.7384 30.3943 14.5264 30.75 16.332 30.75C18.1377 30.75 19.9257 30.3943 21.5939 29.7033C23.2622 29.0123 24.7779 27.9995 26.0547 26.7227C27.3316 25.4459 28.3444 23.9301 29.0354 22.2619C29.7264 20.5937 30.082 18.8057 30.082 17C30.082 13.3533 28.6334 9.85591 26.0547 7.27728C23.4761 4.69866 19.9788 3.25 16.332 3.25ZM4.84155 5.50951C7.88901 2.46205 12.0223 0.75 16.332 0.75C20.6418 0.75 24.775 2.46205 27.8225 5.50951C30.87 8.55698 32.582 12.6902 32.582 17C32.582 19.134 32.1617 21.2471 31.3451 23.2186C30.5284 25.1901 29.3315 26.9815 27.8225 28.4905C26.3136 29.9994 24.5222 31.1964 22.5506 32.013C20.5791 32.8297 18.466 33.25 16.332 33.25C14.1981 33.25 12.085 32.8297 10.1134 32.013C8.14188 31.1964 6.3505 29.9994 4.84155 28.4905C3.33259 26.9815 2.13563 25.1901 1.31899 23.2186C0.50235 21.2471 0.0820312 19.134 0.0820312 17C0.0820314 12.6902 1.79408 8.55698 4.84155 5.50951ZM16.332 7.41667C17.0224 7.41667 17.582 7.97631 17.582 8.66667V9.17331C19.2104 9.41053 20.6779 10.1094 21.6077 11.1807C21.9839 11.6141 22.0166 12.2479 21.6871 12.7178C21.3575 13.1876 20.7504 13.3727 20.2148 13.1666L17.582 12.1536V15.8396C18.6992 16.0019 19.7273 16.3802 20.561 16.9359C21.6894 17.6882 22.582 18.8647 22.582 20.3333C22.582 21.802 21.6894 22.9785 20.561 23.7307C19.7273 24.2864 18.6992 24.6648 17.582 24.8271V25.3333C17.582 26.0237 17.0224 26.5833 16.332 26.5833C15.6417 26.5833 15.082 26.0237 15.082 25.3333V24.8267C13.4537 24.5895 11.9861 23.8906 11.0563 22.8193C10.6802 22.3859 10.6475 21.7521 10.977 21.2822C11.3065 20.8124 11.9136 20.6273 12.4492 20.8334L15.082 21.8464V18.1604C13.9649 17.9981 12.9368 17.6198 12.1031 17.0641C10.9746 16.3118 10.082 15.1353 10.082 13.6667C10.082 12.198 10.9746 11.0215 12.1031 10.2693C12.9368 9.71355 13.9649 9.33522 15.082 9.17288V8.66667C15.082 7.97631 15.6417 7.41667 16.332 7.41667ZM15.082 11.7106C14.4505 11.8435 13.9069 12.0714 13.4897 12.3495C12.8086 12.8035 12.582 13.2937 12.582 13.6667C12.582 14.0397 12.8086 14.5298 13.4897 14.9839C13.9069 15.2619 14.4505 15.4898 15.082 15.6228V11.7106ZM17.582 18.3772V22.2894C18.2136 22.1565 18.7572 21.9286 19.1743 21.6505C19.8554 21.1965 20.082 20.7063 20.082 20.3333C20.082 19.9603 19.8554 19.4702 19.1743 19.0161C18.7572 18.7381 18.2136 18.5102 17.582 18.3772Z" fill="currentColor" stroke="inherit"/>
</svg>
