<svg width="19" height="20" viewBox="0 0 19 20" fill="none" xmlns="http://www.w3.org/2000/svg">
<path fill-rule="evenodd" clip-rule="evenodd" d="M1.55546 1.05546C2.07118 0.539731 2.77065 0.25 3.5 0.25H13.5C14.2293 0.25 14.9288 0.539731 15.4445 1.05546C15.9603 1.57118 16.25 2.27066 16.25 3V7C16.25 7.41421 15.9142 7.75 15.5 7.75C15.0858 7.75 14.75 7.41421 14.75 7V3C14.75 2.66848 14.6183 2.35054 14.3839 2.11612C14.1495 1.8817 13.8315 1.75 13.5 1.75H3.5C3.16848 1.75 2.85054 1.8817 2.61612 2.11612C2.3817 2.35054 2.25 2.66848 2.25 3V17C2.25 17.3315 2.3817 17.6495 2.61612 17.8839C2.85054 18.1183 3.16848 18.25 3.5 18.25H10.3C10.7143 18.25 11.05 18.5858 11.05 19C11.05 19.4142 10.7143 19.75 10.3 19.75H3.5C2.77065 19.75 2.07118 19.4603 1.55546 18.9445C1.03973 18.4288 0.75 17.7293 0.75 17V3C0.75 2.27065 1.03973 1.57118 1.55546 1.05546ZM4.15005 4.6C4.15005 4.18579 4.48584 3.85 4.90005 3.85H12.1C12.5143 3.85 12.85 4.18579 12.85 4.6V8.5C12.85 8.91421 12.5143 9.25 12.1 9.25H4.90005C4.48584 9.25 4.15005 8.91421 4.15005 8.5V4.6ZM5.65005 5.35V7.75H11.35V5.35H5.65005ZM15.4 9.25C15.8143 9.25 16.15 9.58579 16.15 10V10.2092C17.0181 10.3481 17.8017 10.7278 18.3056 11.3084C18.5313 11.5685 18.5509 11.9488 18.3532 12.2307C18.1555 12.5126 17.7912 12.6236 17.4698 12.5L16.15 11.9922V13.8089C16.7385 13.9029 17.281 14.1069 17.7253 14.403C18.3481 14.8182 18.85 15.474 18.85 16.3C18.85 17.126 18.3481 17.7818 17.7253 18.197C17.281 18.4931 16.7385 18.6971 16.15 18.7911V19C16.15 19.4142 15.8143 19.75 15.4 19.75C14.9858 19.75 14.65 19.4142 14.65 19V18.7908C13.782 18.6519 12.9984 18.2722 12.4945 17.6916C12.2688 17.4315 12.2492 17.0512 12.4469 16.7693C12.6446 16.4874 13.0089 16.3764 13.3303 16.5L14.65 17.0078V15.1911C14.0616 15.0971 13.5191 14.8931 13.0748 14.597C12.452 14.1818 11.95 13.526 11.95 12.7C11.95 11.874 12.452 11.2182 13.0748 10.803C13.5191 10.5069 14.0616 10.3029 14.65 10.2089V10C14.65 9.58579 14.9858 9.25 15.4 9.25ZM14.65 11.7376C14.3563 11.8093 14.1035 11.92 13.9068 12.0511C13.5524 12.2873 13.45 12.5315 13.45 12.7C13.45 12.8685 13.5524 13.1127 13.9068 13.3489C14.1035 13.48 14.3563 13.5907 14.65 13.6624V11.7376ZM16.15 15.3376V17.2624C16.4438 17.1907 16.6966 17.08 16.8933 16.9489C17.2477 16.7127 17.35 16.4685 17.35 16.3C17.35 16.1315 17.2477 15.8873 16.8933 15.6511C16.6966 15.52 16.4438 15.4093 16.15 15.3376ZM4.15005 11.8C4.15005 11.3858 4.48584 11.05 4.90005 11.05H5.50005C5.91426 11.05 6.25005 11.3858 6.25005 11.8C6.25005 12.2142 5.91426 12.55 5.50005 12.55H4.90005C4.48584 12.55 4.15005 12.2142 4.15005 11.8ZM7.45005 11.8C7.45005 11.3858 7.78583 11.05 8.20005 11.05H8.80005C9.21426 11.05 9.55005 11.3858 9.55005 11.8C9.55005 12.2142 9.21426 12.55 8.80005 12.55H8.20005C7.78583 12.55 7.45005 12.2142 7.45005 11.8ZM4.15005 14.8C4.15005 14.3858 4.48584 14.05 4.90005 14.05H5.50005C5.91426 14.05 6.25005 14.3858 6.25005 14.8C6.25005 15.2142 5.91426 15.55 5.50005 15.55H4.90005C4.48584 15.55 4.15005 15.2142 4.15005 14.8ZM7.45005 14.8C7.45005 14.3858 7.78583 14.05 8.20005 14.05H8.80005C9.21426 14.05 9.55005 14.3858 9.55005 14.8C9.55005 15.2142 9.21426 15.55 8.80005 15.55H8.20005C7.78583 15.55 7.45005 15.2142 7.45005 14.8Z" fill="white"/>
</svg>
