<svg width="20" height="20" viewBox="0 0 20 20" fill="none" xmlns="http://www.w3.org/2000/svg">
    <path fill-rule="evenodd" clip-rule="evenodd" d="M10.0003 3.125C9.28203 3.125 8.59316 3.41034 8.08525 3.91825C7.57733 4.42616 7.29199 5.11504 7.29199 5.83333C7.29199 6.55163 7.57733 7.2405 8.08525 7.74841C8.59316 8.25633 9.28203 8.54167 10.0003 8.54167C10.7186 8.54167 11.4075 8.25633 11.9154 7.74841C12.4233 7.2405 12.7087 6.55163 12.7087 5.83333C12.7087 5.11504 12.4233 4.42616 11.9154 3.91825C11.4075 3.41034 10.7186 3.125 10.0003 3.125ZM7.20136 3.03437C7.94369 2.29204 8.95051 1.875 10.0003 1.875C11.0501 1.875 12.057 2.29204 12.7993 3.03437C13.5416 3.7767 13.9587 4.78352 13.9587 5.83333C13.9587 6.88315 13.5416 7.88997 12.7993 8.6323C12.057 9.37463 11.0501 9.79167 10.0003 9.79167C8.95051 9.79167 7.94369 9.37463 7.20136 8.6323C6.45903 7.88997 6.04199 6.88315 6.04199 5.83333C6.04199 4.78352 6.45903 3.7767 7.20136 3.03437ZM5.43359 12.9333C6.64477 11.7221 8.28747 11.0417 10.0003 11.0417C11.7132 11.0417 13.3559 11.7221 14.5671 12.9333C15.7782 14.1444 16.4587 15.7871 16.4587 17.5C16.4587 17.8452 16.1788 18.125 15.8337 18.125H4.16699C4.00123 18.125 3.84226 18.0592 3.72505 17.9419C3.60784 17.8247 3.54199 17.6658 3.54199 17.5C3.54199 15.7871 4.22242 14.1444 5.43359 12.9333ZM10.0003 12.2917C8.61899 12.2917 7.29423 12.8404 6.31748 13.8172C5.48921 14.6454 4.96871 15.7239 4.82961 16.875H15.171C15.0319 15.7239 14.5114 14.6454 13.6832 13.8172C12.7064 12.8404 11.3817 12.2917 10.0003 12.2917Z" fill="#5F647A" />
</svg>
    