<svg width="20" height="20" viewBox="0 0 20 20" fill="none" xmlns="http://www.w3.org/2000/svg">
    <path fill-rule="evenodd" clip-rule="evenodd" d="M4.16667 3.125C3.8904 3.125 3.62545 3.23475 3.4301 3.4301C3.23475 3.62545 3.125 3.8904 3.125 4.16667V5C3.125 11.5582 8.44184 16.875 15 16.875H15.8333C16.1096 16.875 16.3746 16.7653 16.5699 16.5699C16.7653 16.3746 16.875 16.1096 16.875 15.8333V13.1008C16.875 13.0571 16.8613 13.0143 16.8357 12.9788C16.8101 12.9433 16.774 12.9168 16.7325 12.903L12.9887 11.6548C12.9887 11.6548 12.9887 11.6548 12.9887 11.6548C12.9411 11.639 12.8894 11.6408 12.8431 11.66C12.7968 11.6792 12.759 11.7145 12.7366 11.7593L12.7364 11.7598L11.7947 13.6406C11.6445 13.9406 11.2842 14.0685 10.9785 13.9304C8.79945 12.9458 7.05416 11.2006 6.06961 9.02151C5.93146 8.71577 6.05936 8.3555 6.35936 8.2053L8.24066 7.2634C8.2855 7.24099 8.32076 7.20317 8.33997 7.15687C8.35917 7.11061 8.36105 7.05899 8.34529 7.01146C8.34527 7.01141 8.3453 7.01151 8.34529 7.01146L7.09709 3.26768C7.08327 3.22621 7.05671 3.18996 7.02127 3.16439C6.98586 3.13884 6.94333 3.12507 6.89968 3.125H4.16667ZM2.54621 2.54621C2.97598 2.11644 3.55888 1.875 4.16667 1.875H6.9C7.20595 1.87523 7.50455 1.97168 7.75266 2.1507C8.00072 2.32968 8.18622 2.58212 8.28291 2.87232C8.28293 2.87238 8.28289 2.87226 8.28291 2.87232L9.53142 6.61702C9.64211 6.95001 9.62902 7.31175 9.49455 7.63587C9.36015 7.95984 9.11349 8.2245 8.79981 8.38137C8.79977 8.38139 8.79984 8.38135 8.79981 8.38137C8.79969 8.38143 8.79946 8.38154 8.79934 8.3816L7.4748 9.04475C8.26985 10.5199 9.48012 11.7301 10.9553 12.5252L11.6184 11.2007C11.7752 10.8867 12.04 10.6399 12.3641 10.5054C12.6882 10.371 13.05 10.3579 13.383 10.4686L13.3835 10.4688L17.1275 11.717C17.1276 11.717 17.1274 11.717 17.1275 11.717C17.4179 11.8138 17.6707 11.9996 17.8497 12.2479C18.0287 12.4963 18.125 12.7947 18.125 13.1008C18.125 13.1009 18.125 13.1008 18.125 13.1008V15.8333C18.125 16.4411 17.8836 17.024 17.4538 17.4538C17.024 17.8836 16.4411 18.125 15.8333 18.125H15C7.75149 18.125 1.875 12.2485 1.875 5V4.16667C1.875 3.55888 2.11644 2.97598 2.54621 2.54621Z" fill="#5F647A"/>
    </svg>
    