<svg viewBox="0 0 74 44" fill="none"
    xmlns="http://www.w3.org/2000/svg">
    <rect width="74" height="44" rx="8" fill="url(#paint0_linear_4117_57256)"/>
    <path d="M49.628 24.706C49.628 25.426 49.442 26.032 49.07 26.524C48.698 27.004 48.194 27.37 47.558 27.622C46.934 27.874 46.25 28 45.506 28H39.332V15.22H46.172C46.772 15.22 47.288 15.382 47.72 15.706C48.164 16.018 48.5 16.426 48.728 16.93C48.968 17.422 49.088 17.938 49.088 18.478C49.088 19.09 48.932 19.672 48.62 20.224C48.308 20.776 47.852 21.184 47.252 21.448C47.984 21.664 48.56 22.054 48.98 22.618C49.412 23.182 49.628 23.878 49.628 24.706ZM47.126 24.238C47.126 23.914 47.06 23.626 46.928 23.374C46.796 23.11 46.616 22.906 46.388 22.762C46.172 22.606 45.92 22.528 45.632 22.528H41.816V25.894H45.506C45.806 25.894 46.076 25.822 46.316 25.678C46.568 25.522 46.766 25.318 46.91 25.066C47.054 24.814 47.126 24.538 47.126 24.238ZM41.816 17.344V20.566H45.128C45.404 20.566 45.656 20.5 45.884 20.368C46.112 20.236 46.292 20.05 46.424 19.81C46.568 19.57 46.64 19.282 46.64 18.946C46.64 18.622 46.574 18.34 46.442 18.1C46.322 17.86 46.154 17.674 45.938 17.542C45.734 17.41 45.5 17.344 45.236 17.344H41.816ZM51.5664 28V15.22H57.2184C57.8064 15.22 58.3464 15.34 58.8384 15.58C59.3424 15.82 59.7744 16.144 60.1344 16.552C60.5064 16.96 60.7884 17.416 60.9804 17.92C61.1844 18.424 61.2864 18.94 61.2864 19.468C61.2864 20.008 61.1904 20.53 60.9984 21.034C60.8184 21.526 60.5544 21.958 60.2064 22.33C59.8584 22.702 59.4504 22.99 58.9824 23.194L61.8984 28H59.1624L56.5344 23.716H54.0504V28H51.5664ZM54.0504 21.538H57.1644C57.4764 21.538 57.7524 21.448 57.9924 21.268C58.2324 21.076 58.4244 20.824 58.5684 20.512C58.7124 20.2 58.7844 19.852 58.7844 19.468C58.7844 19.06 58.7004 18.706 58.5324 18.406C58.3644 18.094 58.1484 17.848 57.8844 17.668C57.6324 17.488 57.3564 17.398 57.0564 17.398H54.0504V21.538Z" fill="white"/>
    <path d="M19.5 8V13M17 10.5H22" stroke="white" stroke-width="1.5" stroke-linecap="round" stroke-linejoin="round"/>
    <path d="M11.5 17V22M9 19.5H14" stroke="white" stroke-width="1.5" stroke-linecap="round" stroke-linejoin="round"/>
    <path d="M28.5 15V20M26 17.5H31" stroke="white" stroke-width="1.5" stroke-linecap="round" stroke-linejoin="round"/>
    <path d="M21.5 29V34M19 31.5H24" stroke="white" stroke-width="1.5" stroke-linecap="round" stroke-linejoin="round"/>
    <defs>
        <linearGradient id="paint0_linear_4117_57256" x1="72.4634" y1="-4.85372e-06" x2="-3.64657" y2="33.7407" gradientUnits="userSpaceOnUse">
            <stop stop-color="#1B2141"/>
            <stop offset="1" stop-color="#566DED"/>
        </linearGradient>
    </defs>
</svg>
