<svg width="70" height="70" viewBox="0 0 70 70" fill="none" xmlns="http://www.w3.org/2000/svg">
<path d="M34.9483 38.2702C37.7457 38.2702 40.5444 38.2702 43.3443 38.2702C44.2487 38.2702 44.8985 38.6756 45.1492 39.3991C45.4 40.1226 45.239 40.7712 44.6715 41.2702C43.8058 42.0273 42.9252 42.777 42.0134 43.4693C41.6874 43.7034 41.2983 43.8338 40.897 43.8435C36.9054 43.8692 32.9096 43.8692 28.9097 43.8435C28.4831 43.8435 28.0016 43.6177 27.6474 43.3582C26.8229 42.752 26.057 42.0634 25.2774 41.4023C24.6088 40.8373 24.3942 40.1337 24.6537 39.4065C24.9131 38.6793 25.5506 38.2839 26.4138 38.2777C29.2578 38.2677 32.1026 38.2652 34.9483 38.2702ZM26.1855 39.9043L26.1393 40.0053C26.2478 40.1076 26.3514 40.2161 26.4661 40.3122C27.111 40.851 27.7684 41.3749 28.3983 41.9337C28.5215 42.0478 28.666 42.1364 28.8236 42.1944C28.9812 42.2524 29.1486 42.2787 29.3164 42.2718C32.8639 42.258 36.4102 42.2418 39.9564 42.2805C40.7049 42.2892 41.2949 42.1246 41.8275 41.5944C42.3281 41.1279 42.8527 40.6878 43.3992 40.276C43.5209 40.2031 43.6512 40.1457 43.7871 40.1051L43.635 39.908L26.1855 39.9043Z" fill="#566DED"/>
<path d="M50.8722 43.8548C49.8743 43.8548 48.8764 43.8548 47.8785 43.8548C47.0416 43.8548 46.4291 43.4444 46.1659 42.7321C45.9027 42.0199 46.1098 41.3001 46.7434 40.7675C47.5417 40.0977 48.3513 39.4416 49.1471 38.7717C49.5402 38.4353 50.0445 38.2574 50.5616 38.2728C51.6668 38.2802 52.772 38.2728 53.8771 38.2728C54.9623 38.2815 55.611 38.9389 55.6234 40.0279C55.6284 40.728 55.6284 41.4282 55.6234 42.1284C55.6147 43.1937 54.9636 43.8498 53.907 43.8548C52.8942 43.8597 51.8838 43.8548 50.8722 43.8548ZM54.0081 39.8632C52.7919 39.8632 51.6144 39.857 50.4381 39.8719C50.3134 39.8719 50.1886 39.9854 50.0839 40.0702C49.3512 40.6715 48.6224 41.2773 47.8972 41.8876C47.7923 41.9959 47.6956 42.1119 47.6078 42.2344H54.0081V39.8632Z" fill="#566DED"/>
<path d="M18.8934 43.8548C17.8955 43.8548 16.8976 43.8548 15.8997 43.8548C14.8394 43.8548 14.1858 43.1962 14.1771 42.136C14.1708 41.4037 14.1671 40.6727 14.1771 39.9418C14.1908 38.9626 14.8382 38.2928 15.8148 38.2766C16.9973 38.2579 18.1848 38.2354 19.3624 38.2928C19.7922 38.3224 20.2051 38.4724 20.5536 38.7256C21.4268 39.3742 22.2488 40.0977 23.0796 40.7962C23.6858 41.3102 23.8828 42.0436 23.6296 42.7297C23.3764 43.4157 22.7565 43.8523 21.9669 43.8523C20.9478 43.861 19.9212 43.8548 18.8934 43.8548ZM15.7999 42.217H22.1116L22.2463 42.0349C22.1048 41.9754 21.9695 41.9023 21.8422 41.8166C21.3806 41.4424 20.8941 41.1006 20.485 40.679C20.2002 40.3644 19.8427 40.1244 19.4437 39.98C19.0446 39.8356 18.6162 39.7912 18.1961 39.8507C17.5349 39.9193 16.8614 39.862 16.1928 39.8657C16.0606 39.8657 15.9271 39.8869 15.7999 39.8982V42.217Z" fill="#566DED"/>
<path d="M57.4134 14.0937V15.4259C57.3947 15.5855 57.3773 15.744 57.3586 15.9049C57.102 18.3662 56.0512 20.677 54.3649 22.4881C52.6787 24.2993 50.4487 25.5123 48.012 25.9437C47.5841 26.0186 47.1513 26.0623 46.721 26.1196H45.39C45.0096 26.0722 44.6266 26.0385 44.2499 25.9749C41.8799 25.5783 39.8105 24.5579 38.1091 22.8565C35.557 20.3056 34.4331 17.2059 34.7599 13.616C34.9671 11.2307 35.9574 8.98087 37.5765 7.21698C39.7182 4.83949 42.4026 3.56093 45.5996 3.41249C47.7933 3.29341 49.9711 3.846 51.8427 4.99662C54.7902 6.79408 56.6002 9.39988 57.2363 12.804C57.3162 13.2306 57.3561 13.6646 57.4134 14.0937ZM46.0486 4.8195C44.083 4.82049 42.1619 5.40418 40.528 6.49681C38.894 7.58945 37.6208 9.14197 36.869 10.9581C36.1173 12.7743 35.9208 14.7725 36.3046 16.7003C36.6883 18.628 37.6349 20.3988 39.0248 21.7887C40.4147 23.1786 42.1854 24.1251 44.1132 24.5088C46.0409 24.8925 48.0391 24.6962 49.8553 23.9444C51.6714 23.1927 53.2239 21.9194 54.3166 20.2854C55.4092 18.6515 55.9929 16.7304 55.9939 14.7648C55.9906 12.1281 54.9418 9.60047 53.0774 7.73608C51.213 5.8717 48.6852 4.8228 46.0486 4.8195Z" fill="#566DED"/>
<path d="M58.0022 36.3443C57.149 35.5049 56.3058 34.6529 55.4601 33.8034C55.3815 33.7249 55.3204 33.6288 55.2106 33.4916C55.6908 33.4916 56.0962 33.5028 56.4991 33.4916C57.0881 33.4716 57.649 33.2346 58.0738 32.8261C58.4986 32.4176 58.7574 31.8666 58.8005 31.2788C58.8803 30.0626 58.0421 28.8701 56.8347 28.784C55.5374 28.6892 54.1416 28.3699 53.0227 29.5325C52.9441 29.3129 52.8842 29.1582 52.8306 28.9961C52.6643 28.5121 52.503 28.0277 52.3466 27.5429C51.8725 27.7898 51.3843 28.0089 50.8847 28.199C51.2531 29.3042 51.6215 30.4098 51.9899 31.5158C52.0273 31.6305 52.051 31.7503 52.0884 31.89H17.7196C17.7533 31.7578 17.7758 31.6405 17.8119 31.5295C18.4606 29.5848 19.1054 27.6377 19.7603 25.6955C20.1532 24.5305 20.9478 23.9492 22.1727 23.9492C26.6059 23.9492 31.039 23.9492 35.4722 23.9492C35.069 23.4433 34.703 22.9088 34.377 22.3501C30.2806 22.3501 26.1843 22.353 22.0879 22.3588C20.248 22.3588 18.8609 23.4004 18.2609 25.1517C17.8194 26.444 17.3953 27.7437 16.9612 29.0397C16.9113 29.1907 16.8464 29.3366 16.7716 29.5287C16.1379 28.8776 15.4145 28.6768 14.5975 28.7217C14.1783 28.7454 13.7567 28.7217 13.3376 28.7304C12.3609 28.7641 11.6661 29.2431 11.2246 30.1025C11.1422 30.2647 11.0748 30.433 11 30.6014V31.5358C11.3518 32.6746 12.0528 33.4068 13.2989 33.4929C13.7081 33.5191 14.1222 33.4929 14.6847 33.4929C14.3018 33.8671 14.0161 34.1415 13.7367 34.4196C13.2091 34.9435 12.6965 35.4837 12.1551 35.9926C11.6412 36.4778 11.1996 37.0004 11 37.694V49.085C11.2694 49.8334 11.6661 50.4783 12.432 50.8313C12.5243 50.8737 12.5804 51.0808 12.5842 51.2118C12.5992 51.8966 12.5842 52.5839 12.5917 53.2649C12.5992 54.8004 13.6008 55.8034 15.1376 55.8071C16.8839 55.8071 18.6264 55.8071 20.3653 55.8071C21.9632 55.8071 22.9473 54.8154 22.9511 53.2138C22.9511 52.5016 22.9511 51.7906 22.9511 51.0646H46.8532C46.8532 51.838 46.8532 52.5826 46.8532 53.3261C46.8632 54.778 47.8723 55.7983 49.3168 55.8058C51.1213 55.8141 52.9263 55.8141 54.7316 55.8058C56.1823 55.7996 57.1964 54.7855 57.2114 53.3386C57.2189 52.6238 57.1989 51.9066 57.2239 51.1918C57.2331 51.1091 57.2602 51.0293 57.3033 50.958C57.3463 50.8867 57.4044 50.8257 57.4733 50.7789C58.3702 50.27 58.8067 49.5128 58.8055 48.4862C58.8055 45.095 58.8055 41.7031 58.8055 38.3102C58.817 37.9445 58.7514 37.5805 58.613 37.2418C58.4746 36.9031 58.2665 36.5974 58.0022 36.3443ZM54.0343 31.1578C54.0543 30.6201 54.3412 30.3283 54.88 30.3158C55.379 30.3041 55.8779 30.3041 56.3769 30.3158C56.8758 30.3283 57.2276 30.6763 57.2164 31.1229C57.2133 31.2283 57.1894 31.3321 57.1461 31.4283C57.1027 31.5244 57.0407 31.6111 56.9637 31.6832C56.8867 31.7553 56.7962 31.8115 56.6974 31.8485C56.5986 31.8855 56.4935 31.9025 56.3881 31.8987C55.6284 31.9124 54.8688 31.8987 54.0381 31.8987C54.0331 31.618 54.0268 31.3885 54.0343 31.1578ZM13.3126 31.8888C13.1157 31.8748 12.9315 31.7859 12.7979 31.6405C12.6643 31.4951 12.5914 31.3041 12.5942 31.1067C12.5944 30.902 12.6744 30.7054 12.8172 30.5587C12.9599 30.412 13.1542 30.3266 13.3588 30.3208C13.9014 30.3008 14.4465 30.3021 14.9904 30.3208C15.0919 30.3183 15.193 30.3362 15.2875 30.3735C15.382 30.4108 15.4681 30.4667 15.5405 30.5379C15.613 30.6091 15.6705 30.6942 15.7095 30.788C15.7485 30.8818 15.7682 30.9826 15.7675 31.0842C15.7824 31.3424 15.7675 31.6018 15.7675 31.8987C14.9205 31.8974 14.1159 31.9212 13.3126 31.8888ZM21.3283 53.5568C21.3033 53.9697 20.969 54.2092 20.5437 54.2104C18.6942 54.2196 16.8444 54.2196 14.9941 54.2104C14.892 54.2158 14.7898 54.2005 14.6938 54.1655C14.5977 54.1304 14.5097 54.0763 14.435 54.0065C14.3604 53.9366 14.3006 53.8523 14.2592 53.7587C14.2179 53.6652 14.1959 53.5643 14.1946 53.462C14.1684 52.6737 14.1871 51.8828 14.1871 51.0508H21.3433C21.3433 51.8916 21.3794 52.7261 21.3283 53.5568ZM55.606 53.4857C55.5898 53.9235 55.248 54.2079 54.7827 54.2104C52.9532 54.2204 51.1188 54.2204 49.2794 54.2104C48.7804 54.2104 48.4623 53.8911 48.4511 53.3897C48.4336 52.63 48.4511 51.8691 48.4511 51.0558H55.6197C55.6147 51.8791 55.6372 52.6836 55.606 53.4857ZM57.2151 48.3541C57.2151 49.1761 56.9506 49.4393 56.1211 49.4405H13.8266C12.8 49.4405 12.5904 49.2334 12.5904 48.2156C12.5904 44.9637 12.5979 41.7118 12.5829 38.4587C12.5753 38.2508 12.6131 38.0438 12.6937 37.8521C12.7743 37.6604 12.8957 37.4885 13.0495 37.3485C14.2494 36.1722 15.4195 34.9685 16.6269 33.7972C16.811 33.6237 17.0504 33.5207 17.303 33.5066C29.0358 33.4933 40.7685 33.4933 52.5013 33.5066C52.754 33.5197 52.9939 33.6218 53.1786 33.7947C54.3936 34.9772 55.5798 36.1896 56.7885 37.3796C56.9305 37.5101 57.0427 37.6698 57.1174 37.8476C57.1921 38.0254 57.2276 38.2172 57.2214 38.41C57.2064 41.7243 57.2163 45.0398 57.2151 48.3541Z" fill="#566DED"/>
<path d="M43.8361 16.6035C45.6622 14.7762 47.4078 13.0294 49.1546 11.2839C49.2681 11.1634 49.3884 11.0494 49.515 10.9426C49.6589 10.8246 49.8413 10.7637 50.0272 10.7714C50.2132 10.7792 50.3898 10.8551 50.5235 10.9847C50.6571 11.1143 50.7384 11.2885 50.7518 11.4742C50.7652 11.6599 50.7098 11.844 50.5962 11.9915C50.5125 12.0968 50.4209 12.1956 50.3223 12.287C48.4265 14.1828 46.5312 16.0781 44.6363 17.973C44.0224 18.5857 43.7172 18.5821 43.0937 17.9586C42.702 17.567 42.308 17.1777 41.9188 16.7837C41.5295 16.3896 41.4743 15.9355 41.7986 15.5991C42.1398 15.2387 42.5807 15.2772 43.0132 15.7109C43.2859 15.9872 43.5382 16.2803 43.8361 16.6035Z" fill="#566DED"/>
</svg>
