<svg viewBox="0 0 72 72" fill="none"
    xmlns="http://www.w3.org/2000/svg">
    <path d="M35.9467 39.3619C38.8241 39.3619 41.7028 39.3619 44.5827 39.3619C45.5129 39.3619 46.1813 39.779 46.4392 40.5231C46.6971 41.2672 46.5315 41.9344 45.9478 42.4476C45.0574 43.2264 44.1516 43.9975 43.2137 44.7095C42.8784 44.9504 42.4782 45.0845 42.0654 45.0945C37.9598 45.121 33.8499 45.121 29.7357 45.0945C29.2969 45.0945 28.8016 44.8622 28.4373 44.5953C27.5892 43.9718 26.8014 43.2636 25.9995 42.5836C25.3118 42.0024 25.0912 41.2787 25.358 40.5307C25.6249 39.7827 26.2806 39.3761 27.1684 39.3696C30.0937 39.3594 33.0198 39.3568 35.9467 39.3619ZM26.9336 41.0427L26.8861 41.1466C26.9977 41.2518 27.1042 41.3635 27.2223 41.4622C27.8856 42.0165 28.5617 42.5554 29.2096 43.1302C29.3363 43.2475 29.485 43.3386 29.6471 43.3983C29.8091 43.458 29.9814 43.485 30.154 43.4778C33.8028 43.4637 37.4504 43.447 41.098 43.4868C41.8678 43.4958 42.4747 43.3264 43.0225 42.7811C43.5374 42.3013 44.077 41.8486 44.6391 41.425C44.7643 41.35 44.8983 41.291 45.0381 41.2492L44.8816 41.0465L26.9336 41.0427Z" fill="#566DED" />
    <path d="M52.3256 45.1096C51.2991 45.1096 50.2727 45.1096 49.2463 45.1096C48.3854 45.1096 47.7555 44.6875 47.4848 43.9549C47.214 43.2223 47.427 42.482 48.0788 41.9341C48.8999 41.2452 49.7326 40.5703 50.5511 39.8813C50.9554 39.5353 51.4741 39.3524 52.0061 39.3681C53.1428 39.3758 54.2796 39.3681 55.4163 39.3681C56.5325 39.3771 57.1997 40.0533 57.2125 41.1734C57.2176 41.8936 57.2176 42.6137 57.2125 43.3339C57.2035 44.4296 56.5338 45.1045 55.4471 45.1096C54.4053 45.1147 53.3661 45.1096 52.3256 45.1096ZM55.551 41.004C54.3001 41.004 53.0889 40.9976 51.8791 41.013C51.7508 41.013 51.6224 41.1297 51.5147 41.217C50.7611 41.8354 50.0114 42.4585 49.2656 43.0863C49.1577 43.1977 49.0581 43.3169 48.9679 43.443H55.551V41.004Z" fill="#566DED" />
    <path d="M19.4331 45.1063C18.4067 45.1063 17.3803 45.1063 16.3539 45.1063C15.2633 45.1063 14.591 44.4289 14.582 43.3384C14.5756 42.5852 14.5718 41.8333 14.582 41.0815C14.5961 40.0743 15.262 39.3854 16.2666 39.3687C17.4829 39.3495 18.7043 39.3264 19.9155 39.3854C20.3576 39.4158 20.7822 39.5701 21.1408 39.8306C22.0389 40.4977 22.8844 41.2419 23.7389 41.9604C24.3624 42.489 24.5651 43.2434 24.3046 43.949C24.0442 44.6547 23.4066 45.1038 22.5944 45.1038C21.5462 45.1127 20.4903 45.1063 19.4331 45.1063ZM16.2512 43.4217H22.7432L22.8818 43.2344C22.7363 43.1732 22.5971 43.098 22.4661 43.0099C21.9914 42.625 21.491 42.2734 21.0702 41.8398C20.7773 41.5161 20.4095 41.2693 19.9991 41.1208C19.5887 40.9723 19.148 40.9266 18.7158 40.9878C18.0358 41.0584 17.3431 40.9994 16.6554 41.0033C16.5194 41.0033 16.3821 41.0251 16.2512 41.0366V43.4217Z" fill="#566DED" />
    <path d="M59.0539 14.4949V15.8651C59.0347 16.0294 59.0167 16.1924 58.9975 16.3579C58.7336 18.8894 57.6527 21.2663 55.9183 23.1292C54.1839 24.9921 51.8902 26.2397 49.3838 26.6835C48.9438 26.7605 48.4986 26.8054 48.0559 26.8645H46.687C46.2956 26.8157 45.9017 26.781 45.5143 26.7156C43.0765 26.3076 40.948 25.2581 39.198 23.5081C36.573 20.8843 35.417 17.696 35.7531 14.0035C35.9663 11.5501 36.9849 9.236 38.6502 7.42171C40.8531 4.97629 43.6142 3.66121 46.9025 3.50853C49.1589 3.38604 51.399 3.95442 53.324 5.13791C56.3557 6.98673 58.2174 9.66698 58.8717 13.1683C58.9538 13.6071 58.9949 14.0536 59.0539 14.4949ZM47.3644 4.95574C45.3426 4.95675 43.3666 5.55712 41.686 6.68097C40.0054 7.80482 38.6957 9.4017 37.9225 11.2697C37.1493 13.1378 36.9472 15.1931 37.3419 17.176C37.7366 19.1588 38.7103 20.9802 40.1398 22.4098C41.5694 23.8393 43.3908 24.813 45.3736 25.2076C47.3565 25.6023 49.4118 25.4003 51.2798 24.6271C53.1478 23.8539 54.7447 22.5442 55.8686 20.8636C56.9924 19.183 57.5928 17.2069 57.5938 15.1852C57.5904 12.4732 56.5116 9.87331 54.5939 7.95565C52.6763 6.03799 50.0763 4.95913 47.3644 4.95574Z" fill="#566DED" />
    <path d="M59.6596 37.3824C58.782 36.5189 57.9147 35.6426 57.0448 34.7689C56.964 34.688 56.9011 34.5892 56.7882 34.4481C57.2822 34.4481 57.6991 34.4597 58.1136 34.4481C58.7194 34.4276 59.2963 34.1838 59.7332 33.7636C60.1702 33.3435 60.4364 32.7766 60.4807 32.1721C60.5628 30.9211 59.7006 29.6946 58.4587 29.6061C57.1243 29.5085 55.6887 29.1801 54.5378 30.3759C54.457 30.1501 54.3954 29.9909 54.3402 29.8241C54.1691 29.3263 54.0032 28.8281 53.8424 28.3294C53.3547 28.5834 52.8526 28.8088 52.3387 29.0043C52.7176 30.1411 53.0966 31.2782 53.4755 32.4158C53.514 32.5339 53.5384 32.657 53.5769 32.8007H18.226C18.2607 32.6647 18.2838 32.5441 18.321 32.4299C18.9882 30.4297 19.6514 28.4269 20.325 26.4293C20.7292 25.231 21.5465 24.6331 22.8064 24.6331C27.3662 24.6331 31.926 24.6331 36.4858 24.6331C36.0712 24.1127 35.6947 23.563 35.3594 22.9883C31.146 22.9883 26.9326 22.9913 22.7191 22.9972C20.8267 22.9972 19.4 24.0686 18.7828 25.8699C18.3287 27.1991 17.8925 28.536 17.446 29.869C17.3946 30.0243 17.3279 30.1744 17.2509 30.372C16.5992 29.7022 15.8551 29.4957 15.0147 29.5419C14.5836 29.5663 14.1499 29.5419 13.7188 29.5509C12.7142 29.5855 11.9996 30.0782 11.5454 30.9622C11.4608 31.129 11.3914 31.3022 11.3145 31.4754V32.4364C11.6763 33.6078 12.3973 34.3609 13.6791 34.4494C14.0999 34.4764 14.5258 34.4494 15.1045 34.4494C14.7106 34.8343 14.4168 35.1165 14.1294 35.4027C13.5867 35.9415 13.0594 36.4971 12.5026 37.0206C11.974 37.5197 11.5197 38.0572 11.3145 38.7706V50.487C11.5916 51.2568 11.9996 51.9202 12.7873 52.2833C12.8823 52.3269 12.9401 52.5398 12.9439 52.6746C12.9593 53.3789 12.9439 54.0859 12.9516 54.7864C12.9593 56.3658 13.9896 57.3974 15.5702 57.4012C17.3665 57.4012 19.1588 57.4012 20.9473 57.4012C22.5908 57.4012 23.6031 56.3812 23.607 54.7338C23.607 54.0012 23.607 53.2699 23.607 52.5232H48.192C48.192 53.3187 48.192 54.0846 48.192 54.8493C48.2023 56.3427 49.2403 57.3922 50.726 57.3999C52.5821 57.4084 54.4386 57.4084 56.2955 57.3999C57.7877 57.3935 58.8308 56.3504 58.8462 54.8621C58.8538 54.127 58.8333 53.3892 58.859 52.6541C58.8685 52.5689 58.8964 52.4869 58.9407 52.4136C58.985 52.3402 59.0447 52.2774 59.1156 52.2294C60.0381 51.7059 60.4871 50.9271 60.4858 49.8712C60.4858 46.3831 60.4858 42.8942 60.4858 39.4044C60.4976 39.0283 60.4301 38.6538 60.2878 38.3055C60.1454 37.9571 59.9314 37.6426 59.6596 37.3824ZM55.5783 32.0476C55.5988 31.4946 55.894 31.1944 56.4482 31.1816C56.9614 31.1696 57.4746 31.1696 57.9878 31.1816C58.501 31.1944 58.8628 31.5524 58.8513 32.0117C58.8481 32.1202 58.8236 32.2269 58.779 32.3258C58.7344 32.4247 58.6706 32.5139 58.5914 32.5881C58.5122 32.6622 58.4192 32.72 58.3175 32.7581C58.2159 32.7961 58.1078 32.8136 57.9994 32.8097C57.218 32.8238 56.4367 32.8097 55.5822 32.8097C55.5771 32.521 55.5706 32.285 55.5783 32.0476ZM13.6932 32.7995C13.4906 32.7851 13.3011 32.6937 13.1637 32.5441C13.0263 32.3946 12.9514 32.1981 12.9542 31.995C12.9544 31.7845 13.0367 31.5823 13.1835 31.4314C13.3304 31.2805 13.5302 31.1927 13.7406 31.1867C14.2988 31.1662 14.8594 31.1675 15.4188 31.1867C15.5233 31.1841 15.6273 31.2026 15.7245 31.241C15.8217 31.2793 15.9102 31.3368 15.9847 31.41C16.0593 31.4833 16.1184 31.5707 16.1585 31.6673C16.1986 31.7638 16.2189 31.8674 16.2181 31.9719C16.2335 32.2375 16.2181 32.5043 16.2181 32.8097C15.347 32.8084 14.5194 32.8328 13.6932 32.7995ZM21.9378 55.0866C21.9122 55.5113 21.5683 55.7576 21.1308 55.7589C19.2285 55.7683 17.3258 55.7683 15.4227 55.7589C15.3176 55.7644 15.2126 55.7487 15.1137 55.7127C15.0149 55.6766 14.9244 55.621 14.8476 55.5491C14.7708 55.4772 14.7093 55.3905 14.6668 55.2943C14.6243 55.1981 14.6017 55.0943 14.6003 54.9891C14.5733 54.1782 14.5926 53.3648 14.5926 52.509H21.9532C21.9532 53.3738 21.9904 54.2322 21.9378 55.0866ZM57.1949 55.0135C57.1782 55.4638 56.8267 55.7563 56.3481 55.7589C54.4664 55.7692 52.5795 55.7692 50.6875 55.7589C50.1743 55.7589 49.8471 55.4305 49.8356 54.9147C49.8176 54.1333 49.8356 53.3507 49.8356 52.5142H57.209C57.2039 53.361 57.227 54.1885 57.1949 55.0135ZM58.85 49.7352C58.85 50.5807 58.578 50.8514 57.7248 50.8527H14.2218C13.1659 50.8527 12.9503 50.6397 12.9503 49.5928C12.9503 46.248 12.958 42.9032 12.9426 39.5571C12.9348 39.3433 12.9737 39.1304 13.0565 38.9332C13.1394 38.736 13.2643 38.5592 13.4225 38.4152C14.6567 37.2053 15.8602 35.9672 17.1022 34.7625C17.2915 34.5839 17.5377 34.4781 17.7975 34.4635C29.8655 34.4498 41.9335 34.4498 54.0015 34.4635C54.2614 34.477 54.5082 34.582 54.6982 34.7599C55.9478 35.9762 57.168 37.2232 58.4112 38.4472C58.5573 38.5815 58.6727 38.7457 58.7495 38.9286C58.8263 39.1114 58.8628 39.3088 58.8564 39.507C58.841 42.916 58.8513 46.3263 58.85 49.7352Z" fill="#566DED" />
    <path d="M45.0887 17.0775C46.967 15.198 48.7624 13.4013 50.5591 11.6059C50.6759 11.4819 50.7996 11.3647 50.9298 11.2549C51.0779 11.1335 51.2654 11.0708 51.4567 11.0788C51.648 11.0868 51.8297 11.1649 51.9671 11.2982C52.1045 11.4315 52.1881 11.6107 52.2019 11.8017C52.2157 11.9927 52.1588 12.1821 52.0419 12.3337C51.9559 12.4421 51.8616 12.5437 51.7602 12.6377C49.8102 14.5876 47.8608 16.5371 45.9117 18.4861C45.2803 19.1163 44.9664 19.1127 44.325 18.4714C43.9222 18.0685 43.5169 17.6681 43.1166 17.2628C42.7162 16.8575 42.6594 16.3905 42.993 16.0445C43.3439 15.6738 43.7974 15.7133 44.2423 16.1594C44.5228 16.4436 44.7823 16.7451 45.0887 17.0775Z" fill="#566DED" />
</svg>