<svg width="70" height="70" viewBox="0 0 70 70" fill="none" xmlns="http://www.w3.org/2000/svg">
<path d="M34.1326 13.6853C34.1326 12.3371 34.1326 11.0552 34.1326 9.77328C34.1326 9.58931 34.1252 9.40533 34.1355 9.22283C34.162 8.7239 34.4765 8.39421 34.9116 8.4001C35.3452 8.40599 35.6642 8.73567 35.6686 9.24049C35.6803 10.5077 35.673 11.7749 35.673 13.0421C35.673 13.2393 35.673 13.4366 35.673 13.6868H36.3153C38.3878 13.6868 40.4604 13.6735 42.5314 13.7015C42.8533 13.7059 43.2325 13.8178 43.4809 14.0135C45.5726 15.656 47.6377 17.3324 49.7191 18.9881C50.066 19.2634 50.2056 19.5842 50.2041 20.0287C50.1953 32.5168 50.1982 45.0064 50.1953 57.4945C50.1953 59.1252 49.1355 60.1967 47.5172 60.1967C39.1007 60.2011 30.6828 60.2011 22.2663 60.1967C20.6759 60.1967 19.6059 59.1238 19.6059 57.5328C19.6059 45.0241 19.6088 32.5168 19.6 20.0096C19.6 19.5607 19.7543 19.2501 20.0983 18.9764C22.1811 17.3221 24.2477 15.6472 26.3393 14.0032C26.576 13.8178 26.9332 13.703 27.2359 13.7C29.5084 13.675 31.7808 13.6868 34.1326 13.6868V13.6853ZM34.1326 15.2277C31.9675 15.2277 29.8788 15.2145 27.7916 15.2424C27.4755 15.2469 27.1051 15.369 26.8582 15.5618C25.0517 16.9733 23.2644 18.4097 21.4902 19.8609C21.3124 20.0066 21.1624 20.3054 21.1624 20.5335C21.1463 32.8377 21.1477 45.1418 21.1492 57.4474C21.1492 58.2952 21.5079 58.6499 22.3589 58.6513C30.721 58.6528 39.0831 58.6528 47.4437 58.6513C48.2962 58.6513 48.6578 58.2952 48.6578 57.4518C48.6593 45.1477 48.6608 32.8421 48.6461 20.5379C48.6461 20.3098 48.4991 20.0096 48.3212 19.8639C46.5324 18.3994 44.7303 16.9527 42.9121 15.525C42.6916 15.3514 42.358 15.2439 42.0757 15.2395C40.1326 15.2145 38.1879 15.2263 36.2448 15.2277C36.0669 15.2277 35.8905 15.2439 35.6745 15.2542C35.6745 16.024 35.6906 16.7554 35.6671 17.4854C35.6554 17.8578 35.7524 18.0477 36.1287 18.2125C37.6088 18.8557 38.2585 20.56 37.6441 22.0421C37.0414 23.4962 35.3878 24.2306 33.9047 23.7037C32.7774 23.3019 31.9792 22.2202 31.9336 21.031C31.8866 19.7903 32.573 18.707 33.7137 18.1713C33.8798 18.0933 34.1061 17.9108 34.1135 17.7666C34.1517 16.9453 34.1326 16.1211 34.1326 15.2292V15.2277ZM36.3315 20.897C36.3315 20.1082 35.6774 19.4606 34.891 19.4724C34.1002 19.4841 33.4623 20.1376 33.4755 20.925C33.4873 21.6918 34.1164 22.31 34.8896 22.3159C35.6892 22.3217 36.33 21.6903 36.3315 20.8985V20.897Z" fill="#566DED"/>
<path d="M45.3581 41.2962C45.3581 44.9138 45.3581 48.5329 45.3581 52.1506C45.3581 53.0675 45.1509 53.2736 44.2234 53.2736C38.0058 53.2736 31.7897 53.2736 25.5722 53.2736C24.6535 53.2736 24.4492 53.066 24.4492 52.1403C24.4492 44.8858 24.4492 37.6314 24.4492 30.3755C24.4492 29.4659 24.677 29.2363 25.5825 29.2363C31.8 29.2363 38.0161 29.2363 44.2337 29.2363C45.1317 29.2363 45.3581 29.4689 45.3581 30.3858C45.3581 34.0226 45.3581 37.6594 45.3581 41.2962ZM26.0146 51.6899H43.7736V30.8097H26.0146V51.6899Z" fill="#566DED"/>
<path d="M34.1326 36.3456C34.1326 36.0012 34.1326 35.7083 34.1326 35.4169C34.1341 34.6928 34.409 34.3101 34.9161 34.3204C35.4188 34.3307 35.6716 34.706 35.673 35.4448C35.673 35.7348 35.673 36.0262 35.673 36.3824C36.408 36.3824 37.0988 36.378 37.7897 36.3824C38.3894 36.3868 38.7377 36.662 38.7495 37.1286C38.7627 37.6128 38.3952 37.9204 37.7735 37.9219C36.527 37.9277 35.2791 37.9189 34.0327 37.9263C33.1728 37.9307 32.6069 38.434 32.5951 39.1847C32.5819 39.9573 33.1566 40.4725 34.0474 40.4798C34.6162 40.4842 35.185 40.4769 35.7524 40.4813C37.4663 40.496 38.7186 41.616 38.773 43.1835C38.8303 44.8083 37.7397 45.9828 36.0229 46.1462C35.9332 46.155 35.8421 46.1624 35.673 46.1771C35.673 46.5583 35.6804 46.9351 35.6716 47.3119C35.6583 47.8697 35.3717 48.1905 34.9028 48.1905C34.4339 48.1905 34.1473 47.8711 34.1341 47.3133C34.1253 46.9498 34.1326 46.5863 34.1326 46.1491C33.3962 46.1491 32.7054 46.1565 32.016 46.1477C31.406 46.1388 31.0679 45.8666 31.0547 45.3971C31.0415 44.907 31.3898 44.6258 32.0322 44.6082C32.2159 44.6038 32.3996 44.6082 32.5819 44.6082C33.6637 44.6082 34.7456 44.6185 35.8274 44.6023C36.6005 44.5905 37.1179 44.1696 37.2105 43.5235C37.3266 42.7169 36.7754 42.0694 35.9068 42.0326C35.285 42.0061 34.6603 42.0267 34.0371 42.0237C32.3394 42.0149 31.0929 40.8743 31.0518 39.2936C31.0106 37.6967 32.1748 36.4898 33.8607 36.3809C33.9313 36.3765 34.0003 36.3632 34.1312 36.3456H34.1326Z" fill="#566DED"/>
</svg>
