<svg width="18" height="18" viewBox="0 0 18 18" fill="none" xmlns="http://www.w3.org/2000/svg">
<path fill-rule="evenodd" clip-rule="evenodd" d="M7.33333 2.125C5.952 2.125 4.62724 2.67373 3.65049 3.65049C2.67373 4.62724 2.125 5.952 2.125 7.33333C2.125 8.0173 2.25972 8.69457 2.52146 9.32648C2.7832 9.95838 3.16685 10.5325 3.65049 11.0162C4.13412 11.4998 4.70829 11.8835 5.34019 12.1452C5.97209 12.4069 6.64936 12.5417 7.33333 12.5417C8.0173 12.5417 8.69457 12.4069 9.32648 12.1452C9.95838 11.8835 10.5325 11.4998 11.0162 11.0162C11.4998 10.5325 11.8835 9.95838 12.1452 9.32648C12.4069 8.69457 12.5417 8.0173 12.5417 7.33333C12.5417 5.952 11.9929 4.62724 11.0162 3.65049C10.0394 2.67373 8.71467 2.125 7.33333 2.125ZM2.7666 2.7666C3.97777 1.55543 5.62048 0.875 7.33333 0.875C9.04619 0.875 10.6889 1.55543 11.9001 2.7666C13.1112 3.97777 13.7917 5.62048 13.7917 7.33333C13.7917 8.18145 13.6246 9.02127 13.3001 9.80483C13.0555 10.3952 12.7251 10.945 12.3206 11.4367L16.9419 16.0581C17.186 16.3021 17.186 16.6979 16.9419 16.9419C16.6979 17.186 16.3021 17.186 16.0581 16.9419L11.4367 12.3206C10.945 12.7251 10.3952 13.0555 9.80483 13.3001C9.02127 13.6246 8.18145 13.7917 7.33333 13.7917C6.48521 13.7917 5.6454 13.6246 4.86184 13.3001C4.07827 12.9755 3.36631 12.4998 2.7666 11.9001C2.16689 11.3004 1.69117 10.5884 1.36661 9.80483C1.04205 9.02127 0.875 8.18145 0.875 7.33333C0.875 5.62048 1.55543 3.97777 2.7666 2.7666Z" fill="#5F647A"/>
</svg>
