<svg width="70" height="70" viewBox="0 0 70 70" fill="none" xmlns="http://www.w3.org/2000/svg">
<path d="M42.8224 11.2C43.8023 11.477 44.5004 12.1433 45.1943 12.8433C47.2966 14.9678 49.415 17.0774 51.5444 19.1734C52.3115 19.9289 52.6802 20.8019 52.6748 21.8817C52.6571 25.9955 52.668 30.1093 52.6666 34.2231C52.6666 34.392 52.6829 34.5663 52.6436 34.7272C52.5474 35.1164 52.2803 35.3407 51.8737 35.3245C51.4698 35.3083 51.2177 35.0745 51.1526 34.6731C51.1255 34.5082 51.1405 34.3366 51.1405 34.1677C51.1405 30.1377 51.1405 26.109 51.1405 22.079C51.1405 21.879 51.1405 21.679 51.1405 21.4195C50.9331 21.406 50.7555 21.3871 50.578 21.3857C49.2415 21.383 47.9051 21.3898 46.5701 21.383C44.1181 21.3709 42.4632 19.7316 42.4469 17.2895C42.4375 15.7908 42.4456 14.2934 42.4456 12.719H41.8668C34.4257 12.719 26.9832 12.719 19.5421 12.719C17.8845 12.719 16.9276 13.669 16.9276 15.3191C16.9276 28.5876 16.9262 41.856 16.9276 55.1258C16.9276 56.7434 17.8899 57.7084 19.5096 57.7138C21.9954 57.7205 24.4825 57.7111 26.9683 57.7219C27.2123 57.7219 27.4942 57.7489 27.6908 57.8719C28.18 58.1746 28.1001 58.9179 27.5701 59.1463C27.4061 59.2166 27.2096 59.2369 27.0266 59.2369C24.473 59.2423 21.9195 59.2558 19.3659 59.2355C17.4006 59.2193 15.8622 57.9719 15.4759 56.1083C15.4014 55.7501 15.4014 55.3717 15.4014 55.0014C15.4 41.8182 15.4 28.6335 15.4 15.4502C15.4 13.1825 16.384 11.8946 18.5906 11.2608C18.6191 11.2527 18.6421 11.2202 18.6679 11.2C26.7203 11.2 34.7713 11.2 42.8237 11.2H42.8224ZM44.0124 13.9596C44.0043 13.9961 43.9799 14.0569 43.9799 14.1164C43.9785 15.2448 43.9514 16.3733 43.988 17.5004C44.0328 18.8856 44.9992 19.8167 46.3911 19.8519C47.2356 19.8735 48.08 19.8559 48.9244 19.8573C49.2524 19.8573 49.5804 19.8573 49.9043 19.8573C47.916 17.8666 45.9683 15.9178 44.0124 13.9596Z" fill="#566DED"/>
<path d="M49.5858 41.4819C49.3079 39.5682 49.7389 38.6749 51.3518 37.7127C51.7286 37.4884 52.1014 37.2559 52.4849 37.0424C53.3646 36.5545 54.3025 36.7708 54.8162 37.6289C56.9808 41.244 59.1332 44.8659 61.276 48.4945C61.7735 49.3364 61.543 50.2946 60.7041 50.7784C59.8624 51.2622 58.9854 51.6933 58.0909 52.0717C57.7927 52.1974 57.3888 52.1218 57.0431 52.0745C56.3058 51.9717 56.154 52.0001 55.5048 52.5434C56.1825 53.5651 56.2963 54.626 55.5536 55.6477C54.8257 56.6477 53.8037 56.8977 52.5771 56.5666C52.4172 57.2937 52.1014 57.9316 51.467 58.3613C50.8503 58.7789 50.1699 58.9033 49.4014 58.7614C49.2415 59.6614 48.8362 60.3912 48.0067 60.8142C47.1975 61.2278 46.3816 61.1913 45.5372 60.7818C45.4979 60.9142 45.4681 61.0196 45.4369 61.1237C44.9422 62.7508 43.191 63.4792 41.696 62.6643C41.0739 62.3251 40.4734 61.9481 39.8676 61.5913C38.4661 62.9562 36.4343 62.763 35.4395 60.871C34.7049 61.1048 33.9607 61.1277 33.2505 60.7466C32.5403 60.3655 32.1106 59.7641 31.9236 58.9641C30.4015 59.0154 29.4012 58.3384 28.9851 56.8707C26.5047 57.1194 24.8159 54.2097 27.1594 51.7771C26.9994 51.7771 26.8137 51.7217 26.685 51.7852C25.5627 52.3407 24.5001 52.2204 23.4619 51.5677C23.0336 51.2987 22.5849 51.0609 22.158 50.7892C21.3325 50.2635 21.0831 49.3472 21.5806 48.5026C23.7221 44.874 25.8745 41.2508 28.035 37.6343C28.5473 36.7775 29.4879 36.5491 30.3649 37.037C30.9111 37.3397 31.4492 37.6573 31.9751 37.9938C32.9185 38.5952 33.3928 39.4709 33.3698 40.5818C33.363 40.9183 33.4579 41.0981 33.752 41.2508C34.4216 41.5994 35.1006 41.6643 35.8082 41.4089C36.2676 41.2427 36.7271 41.071 37.1771 40.8778C38.4823 40.3183 39.7469 40.3913 40.9614 41.121C41.2785 41.3116 41.5645 41.3305 41.9129 41.2265C42.5594 41.0345 43.2289 40.917 43.8728 40.717C44.8622 40.4102 45.8015 40.5169 46.7354 40.9237C47.2138 41.1319 47.699 41.3575 48.2046 41.4616C48.6438 41.5508 49.1154 41.4805 49.5844 41.4805L49.5858 41.4819ZM40.7567 60.3412C41.2582 60.6385 41.7611 60.9426 42.2693 61.2359C42.9321 61.6183 43.538 61.5089 43.8524 60.9575C44.1574 60.4236 43.9622 59.852 43.3387 59.4722C42.9064 59.2087 42.4604 58.9668 42.0348 58.6925C41.6336 58.433 41.5333 58.0073 41.7529 57.6424C41.9684 57.2843 42.3913 57.1842 42.8169 57.3951C42.9375 57.4545 43.0514 57.5302 43.168 57.5991C44.2008 58.2086 45.2268 58.8276 46.2677 59.4222C46.8045 59.729 47.3914 59.5776 47.6923 59.0992C48.0013 58.6073 47.8468 58.0059 47.3168 57.6518C47.1908 57.5681 47.0552 57.4964 46.9251 57.4194C45.8354 56.7748 44.7443 56.1301 43.6545 55.4868C43.3103 55.2841 43.1002 54.9665 43.2574 54.6043C43.3604 54.3665 43.6423 54.1327 43.8931 54.057C44.0856 53.9989 44.3756 54.1516 44.5857 54.2746C46.162 55.1909 47.7289 56.1247 49.3011 57.0478C49.9571 57.4329 50.5752 57.3248 50.8924 56.7842C51.2136 56.2355 51.0157 55.6693 50.3475 55.272C48.9243 54.4273 47.4984 53.5894 46.0739 52.7461C45.8272 52.6002 45.5684 52.4677 45.3434 52.292C45.0248 52.042 44.9503 51.7028 45.1468 51.3447C45.3569 50.9636 45.6998 50.869 46.101 51.0082C46.242 51.0568 46.3694 51.1487 46.5009 51.2258C48.5516 52.4353 50.6009 53.6475 52.6517 54.8557C52.8251 54.9584 53.0041 55.0611 53.1938 55.1247C53.6438 55.2774 54.1304 55.0828 54.3757 54.6773C54.6048 54.2976 54.5587 53.7786 54.2388 53.4624C54.0857 53.311 53.8918 53.1948 53.7048 53.084C51.5836 51.8285 49.4597 50.5771 47.3372 49.3229C46.2203 48.6634 45.1035 48.0039 43.9581 47.3268C43.87 47.4985 43.7996 47.6485 43.7196 47.7917C43.1083 48.8661 42.2002 49.4878 40.9519 49.5716C39.8499 49.6459 39.1126 48.9621 39.0936 47.8526C39.0814 47.162 39.1004 46.47 39.0896 45.7781C39.0679 44.5577 39.0326 43.336 39.957 42.3319C39.3783 42.0143 38.8375 41.9481 38.2831 42.1238C37.7531 42.2927 37.2273 42.4833 36.7149 42.6982C35.9166 43.0333 35.0925 43.2063 34.2413 43.0158C33.7249 42.9009 33.2329 42.6738 32.7029 42.4873C31.128 45.1389 29.5449 47.8026 27.8872 50.5933C28.1705 50.5933 28.3494 50.619 28.5175 50.5879C28.8468 50.5257 29.1667 50.3838 29.4961 50.3608C30.5126 50.2906 31.2703 50.7744 31.845 51.5717C33.5297 50.2338 35.636 50.8933 36.2324 52.9394C38.5447 53.1732 39.2861 54.0746 39.0625 56.3761C40.9424 56.9721 41.5821 58.6249 40.7594 60.3399L40.7567 60.3412ZM55.1564 50.8946C54.9409 50.5298 54.7349 50.1838 54.5302 49.8392C53.9108 48.7959 53.29 47.7526 52.672 46.7079C52.4836 46.3903 52.4294 46.0281 52.7113 45.7781C52.8983 45.6132 53.2345 45.4943 53.4703 45.5389C53.6885 45.5808 53.9122 45.8335 54.045 46.047C54.8122 47.2971 55.5481 48.5661 56.3058 49.823C56.7165 50.5041 57.4077 50.8176 58.0719 50.5257C58.7442 50.2311 59.3636 49.8135 60.0562 49.4202C57.8293 45.6727 55.6389 41.9873 53.4256 38.2627C52.8482 38.6033 52.3223 38.9006 51.8086 39.2182C50.9899 39.7237 50.7907 40.5075 51.2651 41.3467C51.5389 41.8305 51.8465 42.2968 52.1095 42.786C52.3304 43.1955 52.1935 43.6361 51.8262 43.8361C51.4765 44.0253 51.0577 43.9185 50.8083 43.5577C50.647 43.3239 50.5074 43.0752 50.3366 42.7995C49.1751 43.2563 48.0433 43.136 46.9319 42.6576C46.6378 42.5306 46.3355 42.4198 46.0427 42.29C45.4965 42.0495 44.9449 41.9981 44.3634 42.1616C43.6654 42.3576 42.9552 42.5144 42.2531 42.6982C41.1498 42.9874 40.632 43.6388 40.6198 44.7686C40.6103 45.7294 40.6157 46.6903 40.6198 47.6525C40.6198 47.7782 40.6537 47.9026 40.6754 48.0431C41.3219 48.0728 41.8451 47.8566 42.1528 47.362C42.3818 46.993 42.5011 46.5336 42.5811 46.0984C42.7044 45.424 43.1734 45.147 43.786 45.4592C43.9066 45.52 44.0205 45.5943 44.1357 45.6632C47.3344 47.5512 50.5318 49.4419 53.736 51.3231C53.8878 51.4123 54.1277 51.4933 54.2673 51.4352C54.5736 51.3109 54.8406 51.0933 55.1578 50.8946H55.1564ZM29.4392 38.2573C27.2122 42.0062 25.0273 45.6821 22.8126 49.4094C23.3372 49.7189 23.8115 50.0027 24.2886 50.2811C25.2957 50.8676 26.0452 50.6838 26.6362 49.6959C27.5972 48.0904 28.55 46.4795 29.5069 44.8713C30.2049 43.6969 30.9098 42.5279 31.5956 41.3467C32.0293 40.5994 31.9127 39.8128 31.2676 39.3628C30.7037 38.9695 30.0911 38.6466 29.4405 38.2573H29.4392ZM31.6932 57.4302C31.8084 57.3626 32.1201 57.2775 32.2746 57.0734C33.0594 56.0423 33.8211 54.9922 34.5517 53.9232C34.8621 53.4705 34.6954 52.8975 34.2562 52.5866C33.832 52.2853 33.2505 52.3028 32.9293 52.7258C32.135 53.7705 31.3516 54.8273 30.6346 55.9247C30.2063 56.5788 30.7552 57.4356 31.6932 57.4316V57.4302ZM36.5441 54.4206C36.3056 54.557 35.9925 54.6395 35.8393 54.8409C35.0559 55.872 34.2955 56.9221 33.565 57.9911C33.2573 58.4411 33.424 59.0303 33.8537 59.329C34.2671 59.6168 34.8756 59.5966 35.186 59.1884C35.9803 58.1438 36.7651 57.0896 37.4821 55.9909C37.9104 55.3341 37.3669 54.4935 36.5441 54.4192V54.4206ZM28.7845 55.3233C28.8821 55.2706 29.1748 55.199 29.3267 55.0125C29.7617 54.4814 30.1711 53.9219 30.5302 53.3367C30.804 52.8921 30.6251 52.3407 30.2009 52.0501C29.778 51.7609 29.2047 51.7947 28.874 52.2015C28.4511 52.7218 28.0417 53.2624 27.7042 53.8394C27.3058 54.5206 27.8303 55.3328 28.7845 55.322V55.3233ZM36.8247 60.0344C36.8274 60.3588 37.0429 60.6845 37.4482 60.8602C37.8589 61.0372 38.2709 60.975 38.561 60.6385C38.8998 60.2466 39.2075 59.8182 39.4718 59.3722C39.6995 58.9898 39.6195 58.587 39.3254 58.2505C39.0272 57.9086 38.6355 57.8397 38.218 57.964C37.7613 58.0992 36.8288 59.4195 36.8233 60.0344H36.8247Z" fill="#566DED"/>
<path d="M34.034 31.3433C30.0098 31.3433 25.9843 31.3433 21.9601 31.3433C21.8083 31.3433 21.6538 31.3541 21.5033 31.3352C21.0927 31.2838 20.8595 31.0271 20.8297 30.6338C20.8012 30.2581 21.0032 29.9851 21.3678 29.8716C21.525 29.8229 21.7012 29.8243 21.8679 29.8243C29.9678 29.8216 38.0676 29.8216 46.1675 29.8243C46.3505 29.8243 46.5456 29.827 46.7164 29.8851C47.0797 30.0094 47.2518 30.2878 47.2125 30.6703C47.1732 31.0541 46.9414 31.2784 46.5619 31.3339C46.3965 31.3582 46.2244 31.3447 46.055 31.3447C42.0471 31.3447 38.0392 31.3447 34.0313 31.3447L34.034 31.3433Z" fill="#566DED"/>
<path d="M34.0421 25.1498C38.0663 25.1498 42.0918 25.1498 46.116 25.1498C46.3017 25.1498 46.5456 25.0944 46.6595 25.1876C46.8845 25.3728 47.1759 25.6403 47.1827 25.8809C47.1894 26.1214 46.917 26.4107 46.6988 26.5999C46.5755 26.7066 46.3111 26.6688 46.1106 26.6688C38.0609 26.6715 30.0125 26.6715 21.9628 26.6715C21.8788 26.6715 21.7934 26.6742 21.7094 26.6715C21.1672 26.6512 20.8189 26.3512 20.8202 25.9025C20.8202 25.4538 21.1645 25.1525 21.7134 25.1525C24.0474 25.1471 26.3801 25.1498 28.714 25.1498C30.4896 25.1498 32.2652 25.1498 34.0408 25.1498H34.0421Z" fill="#566DED"/>
<path d="M27.7682 21.386C25.8083 21.386 23.8484 21.3914 21.8885 21.3793C21.6446 21.3779 21.3342 21.3617 21.1756 21.2185C20.9926 21.0536 20.8286 20.7211 20.8666 20.4968C20.9045 20.2725 21.1783 20.0549 21.3979 19.9089C21.5307 19.8197 21.7584 19.8589 21.9427 19.8589C25.8449 19.8562 29.7485 19.8576 33.6507 19.8576C33.7523 19.8576 33.854 19.8549 33.9543 19.8616C34.4652 19.8941 34.7946 20.1941 34.7919 20.6211C34.7892 21.0495 34.4585 21.3725 33.9502 21.3793C32.8523 21.3942 31.7545 21.3847 30.6552 21.386C29.6929 21.386 28.7292 21.386 27.7669 21.386H27.7682Z" fill="#566DED"/>
</svg>
