<svg width="100%" height="100%" viewBox="0 0 73 73" fill="none" xmlns="http://www.w3.org/2000/svg">
    <defs>
        <clipPath id="sp-c0">
            <rect width="73" height="73" fill="white"/>
        </clipPath>
    </defs>
    <g clip-path="url(#sp-c0)">
        <path d="M11.8637 14.0286C12.3249 14.4479 12.9401 14.2974 13.3758 13.9602C13.7738 13.5251 13.7439 12.8474 13.3075 12.4494C12.8708 12.05 12.1948 12.0814 11.7968 12.5166C11.3972 12.953 11.4271 13.6292 11.8637 14.0286Z"
              fill="#566DED"/>
        <path d="M8.40568 18.9145C8.88714 19.2132 9.5803 19.0523 9.8793 18.5721C10.1917 18.07 10.0376 17.4096 9.53708 17.0985C9.03479 16.7862 8.37444 16.9389 8.06346 17.4409C7.75104 17.943 7.90368 18.6019 8.40568 18.9145Z"
              fill="#566DED"/>
        <path d="M17.0124 10.2824C17.8288 10.2824 18.3675 9.23521 17.8655 8.56759C17.5102 8.09683 16.8383 8.00268 16.3676 8.35789C15.8953 8.71453 15.8011 9.385 16.1577 9.85719C16.3677 10.1355 16.6887 10.2824 17.0124 10.2824Z"
              fill="#566DED"/>
        <path d="M5.9083 24.3552C6.42257 24.5516 7.09034 24.2649 7.29348 23.7448C7.50746 23.1941 7.23356 22.5736 6.68292 22.3596C6.13241 22.1456 5.51329 22.418 5.29931 22.97C5.08362 23.5208 5.35751 24.1399 5.9083 24.3552Z"
              fill="#566DED"/>
        <path d="M4.45882 30.1629C4.98821 30.2652 5.60904 29.8352 5.70704 29.307C5.81546 28.7265 5.43315 28.1673 4.85254 28.0603C4.27051 27.9503 3.71288 28.3342 3.60432 28.9147C3.4959 29.4954 3.87821 30.0546 4.45882 30.1629Z"
              fill="#566DED"/>
        <path d="M5.89136 45.7852C5.34071 45.9992 5.06682 46.6183 5.2808 47.1688C5.44485 47.5939 5.84856 47.8537 6.27795 47.8537C6.95713 47.8537 7.52889 47.0508 7.27654 46.3972C7.06241 45.8451 6.44343 45.5712 5.89136 45.7852Z"
              fill="#566DED"/>
        <path d="M4.84072 42.0786C5.42275 41.9716 5.80664 41.4124 5.69822 40.8318C5.59123 40.2513 5.03202 39.8674 4.45142 39.9744C3.87082 40.0829 3.48708 40.6406 3.59407 41.2212C3.69892 41.8045 4.27353 42.1894 4.84072 42.0786Z"
              fill="#566DED"/>
        <path d="M4.10507 36.1388C5.52106 36.0896 5.52134 34.0475 4.10507 33.999C3.51434 33.9975 3.03516 34.4769 3.03516 35.0674C3.03359 35.6594 3.51305 36.1373 4.1035 36.1388H4.10507Z"
              fill="#566DED"/>
        <path d="M64.4393 51.5353C63.9415 51.2186 63.2796 51.3669 62.9629 51.8648C62.6462 52.3641 62.7931 53.0247 63.2924 53.3427C63.8298 53.6458 64.3219 53.536 64.769 53.0132C65.0857 52.5139 64.9386 51.8534 64.4393 51.5353Z"
              fill="#566DED"/>
        <path d="M63.6634 17.401C63.1584 17.7064 62.9972 18.3655 63.3038 18.8705C63.5961 19.3532 64.292 19.5227 64.7747 19.2299C65.2797 18.9232 65.4393 18.2656 65.1342 17.7606C64.8273 17.2556 64.1699 17.0944 63.6634 17.401Z"
              fill="#566DED"/>
        <path d="M59.9456 12.7105C59.5047 13.1043 59.4677 13.7805 59.8614 14.2213C60.3533 14.6668 60.8568 14.6949 61.3721 14.3056C61.8115 13.9117 61.8501 13.2357 61.4563 12.7947C61.0627 12.3552 60.3864 12.3168 59.9456 12.7105Z"
              fill="#566DED"/>
        <path d="M66.9901 46.1214C66.4409 45.9017 65.8189 46.1685 65.5992 46.7163C65.337 47.3718 65.9078 48.1842 66.5921 48.1842C67.0172 48.1842 67.4181 47.9304 67.5865 47.5109C67.8047 46.9631 67.5379 46.3397 66.9901 46.1214Z"
              fill="#566DED"/>
        <path d="M68.9056 34.357C68.3136 34.3513 67.83 34.8249 67.8243 35.4169C67.8181 36.0553 68.3455 36.4108 68.8942 36.4968C69.4804 36.4968 69.9584 36.0246 69.9641 35.4383C69.9698 34.8463 69.4962 34.3627 68.9056 34.357Z"
              fill="#566DED"/>
        <path d="M66.8349 24.7647C66.9604 24.7647 67.0875 24.7435 67.2116 24.6964C67.7636 24.4881 68.0432 23.8719 67.8364 23.3184C67.2922 22.0092 65.3801 22.7296 65.8336 24.0716C65.9948 24.5008 66.4026 24.7647 66.8349 24.7647Z"
              fill="#566DED"/>
        <path d="M67.3553 29.6492C67.4482 30.1774 68.0638 30.6146 68.5936 30.518C69.1756 30.4167 69.5652 29.8618 69.4624 29.2798C69.3611 28.6977 68.8061 28.3081 68.2241 28.411C67.6421 28.5123 67.2525 29.0672 67.3553 29.6492Z"
              fill="#566DED"/>
        <path d="M60.9354 56.3898C60.5032 55.9861 59.8269 56.0103 59.4231 56.4426C59.021 56.8747 59.0453 57.5523 59.4774 57.9547C59.9886 58.3539 60.4926 58.3362 60.9896 57.902C61.3919 57.4683 61.3691 56.792 60.9354 56.3898Z"
              fill="#566DED"/>
        <path d="M68.4931 40.327C67.9127 40.2128 67.3505 40.591 67.2364 41.17C67.1191 41.7745 67.6796 42.4468 68.2877 42.4468C68.7884 42.4468 69.2362 42.093 69.3362 41.5837C69.4503 41.0033 69.0724 40.4412 68.4931 40.327Z"
              fill="#566DED"/>
        <path d="M39.0513 66.3171V66.3157C38.4622 66.3642 38.0228 66.8791 38.0699 67.4684C38.1119 67.9868 38.688 68.5019 39.2225 68.4498C39.8117 68.4027 40.251 67.8863 40.204 67.2972C40.1555 66.708 39.639 66.2686 39.0513 66.3171Z"
              fill="#566DED"/>
        <path d="M50.1614 63.2913C49.6295 63.5495 49.4082 64.1886 49.6664 64.7207C49.9104 65.2218 50.5963 65.4629 51.0958 65.2158C51.6279 64.9575 51.849 64.3185 51.591 63.7863C51.3326 63.2556 50.6935 63.0329 50.1614 63.2913Z"
              fill="#566DED"/>
        <path d="M44.7467 65.3213C44.1761 65.477 43.8396 66.0646 43.9949 66.6352C44.1384 67.1617 44.7855 67.5295 45.3088 67.3871C46.6637 66.9671 46.1262 64.9979 44.7467 65.3213Z"
              fill="#566DED"/>
        <path d="M56.9329 8.5865C56.9314 8.5865 56.9314 8.5865 56.9314 8.5865C56.465 8.22572 55.7932 8.3126 55.4307 8.77922C55.0698 9.24699 55.1568 9.91903 55.6246 10.2799C56.1513 10.6329 56.6516 10.5688 57.1255 10.0874C57.4864 9.61946 57.3995 8.94756 56.9329 8.5865Z"
              fill="#566DED"/>
        <path d="M55.1083 60.296C54.6332 60.6469 54.5335 61.3174 54.8844 61.7925C55.3526 62.2826 55.8513 62.3572 56.3807 62.0163C56.8558 61.6653 56.9556 60.9949 56.6047 60.52C56.2539 60.0449 55.5833 59.9451 55.1083 60.296Z"
              fill="#566DED"/>
        <path d="M33.2641 66.2546V66.2532C32.6763 66.1932 32.1514 66.6212 32.0902 67.2089C32.0321 67.7781 32.5819 68.3887 33.1558 68.3887C33.6979 68.3887 34.1629 67.9779 34.22 67.4273C34.2799 66.8396 33.852 66.3145 33.2641 66.2546Z"
              fill="#566DED"/>
        <path d="M55.9551 35.2977C55.9551 34.0599 55.4153 32.9459 54.5588 32.1784C56.3919 30.5322 56.3943 27.5718 54.5588 25.927C56.3916 24.2811 56.3945 21.3213 54.5595 19.6763C57.1712 17.3349 55.7984 12.8322 52.2961 12.3883V4.28891C52.2961 1.92398 50.3722 0 48.0074 0H34.4509C33.0676 0 33.0676 2.13982 34.4509 2.13982H48.0074C49.1924 2.13982 50.1563 3.10402 50.1563 4.28891V4.8551H23.7396V4.28891C23.7396 3.10373 24.7038 2.13982 25.8887 2.13982H28.6042C29.9875 2.13982 29.9875 0 28.6042 0H25.8887C23.5237 0 21.5997 1.92398 21.5997 4.28891V19.9515C18.687 18.0951 14.7508 20.29 14.7508 23.7349V48.8234L12.7475 50.8358C10.5711 49.8192 7.88095 50.3051 6.18921 52.0047C3.93042 54.2736 3.93042 57.9655 6.18921 60.2344L12.8114 66.887C13.7873 67.8674 15.3037 66.3579 14.3279 65.3774L7.70577 58.7249C6.27566 57.2883 6.27566 54.9508 7.70577 53.5143C9.11291 52.1007 11.4912 52.1084 12.8905 53.5143L23.9356 64.6098C25.3654 66.0463 25.3654 68.3839 23.9356 69.8204C22.3005 71.4631 19.7582 71.0864 18.3317 69.3994C17.3556 68.4188 15.8394 69.9287 16.8151 70.909C21.9137 76.299 29.9994 70.2889 26.1588 63.9606L28.0864 62.0242C33.8766 62.466 39.4986 59.2695 42.0958 54.0716H48.0074C50.3722 54.0716 52.2961 52.1476 52.2961 49.7827V39.4669C54.3566 39.2057 55.9551 37.4408 55.9551 35.2977ZM53.8153 35.3118C53.8153 36.4415 52.8963 37.3605 51.7666 37.3605H49.8985C47.1781 37.2471 47.1784 33.362 49.8985 33.2489H51.7666C52.8961 33.2489 53.8153 34.168 53.8153 35.3118ZM53.8153 29.0604C53.8153 30.1901 52.8963 31.1091 51.7666 31.1091H49.8985C47.1781 30.9957 47.1784 27.1106 49.8985 26.9975H51.7666C52.8961 26.9975 53.8153 27.9165 53.8153 29.0604ZM53.8153 22.809C53.8153 23.9387 52.8963 24.8577 51.7666 24.8577H49.8985C47.1781 24.7443 47.1784 20.8592 49.8985 20.7461H51.7666C52.8961 20.7461 53.8153 21.6651 53.8153 22.809ZM53.8153 16.5432C53.7789 17.6384 52.8984 18.6063 51.7666 18.6063H49.8985C47.1783 18.493 47.1784 14.6078 49.8985 14.4947H51.7666C52.8961 14.4946 53.8153 15.4137 53.8153 16.5432ZM50.1563 6.99492V12.3547C46.1744 12.1594 44.1797 17.0387 47.1055 19.676C45.2548 21.2826 45.2556 24.3216 47.1055 25.9275C45.2548 27.534 45.2556 30.573 47.1055 32.1789C44.1785 34.8182 46.1767 39.6956 50.1563 39.5002V44.86H29.8691C29.1917 41.2105 27.0879 37.7826 23.7396 36.035V6.99492H50.1563ZM29.2108 59.9346L27.7123 59.8648C27.4126 59.8528 27.1172 59.9648 26.9044 60.1788L24.7242 62.369L14.5053 52.1033L16.579 50.0199C16.7786 49.8195 16.8907 49.548 16.8907 49.2652V23.7349C16.8907 20.7213 21.537 20.7213 21.537 23.7349V36.6799C21.537 37.1064 21.7903 37.4923 22.1819 37.6618C24.731 38.7648 26.617 41.049 27.4925 44.0935C28.48 47.5278 27.9533 51.3189 26.118 53.9877C25.3567 55.0947 27.0631 56.3897 27.8811 55.2003C28.1289 54.8399 28.3567 54.4629 28.5644 54.0718H39.6517C37.4255 57.7103 33.5289 59.9263 29.2108 59.9346ZM48.0074 51.9319H29.4579C29.9505 50.3747 30.1726 48.6913 30.1072 47.0001H50.1563V49.7828C50.1563 50.9677 49.1924 51.9319 48.0074 51.9319Z"
              fill="#566DED"/>
        <path d="M26.7969 15.1023C27.3039 15.5136 27.8082 15.507 28.3098 15.0825L31.4414 11.8679C32.4068 10.8772 30.8738 9.3836 29.9088 10.3748L26.7771 13.5893C26.3648 14.0127 26.3738 14.6901 26.7969 15.1023Z"
              fill="#566DED"/>
        <path d="M26.7969 21.9813C27.3039 22.3925 27.8082 22.386 28.3098 21.9614L38.1428 11.8679C39.1081 10.8772 37.5752 9.3836 36.6101 10.3748L26.7771 20.4683C26.3648 20.8915 26.3738 21.5689 26.7969 21.9813Z"
              fill="#566DED"/>
    </g>

</svg>
