<svg xmlns="http://www.w3.org/2000/svg" width="16" height="16" viewBox="0 0 16 16" fill="none">
<path d="M7.26797 1.92708C7.56197 1.00608 8.83891 1.00608 9.13193 1.92708L10.1805 5.21908C10.2446 5.41957 10.3691 5.59426 10.5363 5.71818C10.7036 5.84211 10.9049 5.90892 11.1115 5.90908H14.5043C15.4539 5.90908 15.8479 7.14908 15.0805 7.71908L12.3365 9.75308C12.169 9.87711 12.0442 10.0521 11.9801 10.2529C11.9161 10.4538 11.9159 10.6702 11.9798 10.8711L13.0284 14.1631C13.3224 15.0841 12.2885 15.8511 11.5192 15.2811L8.77521 13.2471C8.60783 13.1231 8.4063 13.0563 8.19946 13.0563C7.99262 13.0563 7.79109 13.1231 7.62371 13.2471L4.8797 15.2811C4.11138 15.8511 3.07846 15.0841 3.37148 14.1631L4.42008 10.8711C4.48395 10.6702 4.48384 10.4538 4.41976 10.2529C4.35567 10.0521 4.23091 9.87711 4.06336 9.75308L1.32034 7.72008C0.552995 7.15008 0.947936 5.91008 1.89658 5.91008H5.28836C5.49519 5.91013 5.69673 5.84342 5.86414 5.71948C6.03155 5.59554 6.15623 5.42073 6.22035 5.22008L7.26895 1.92808L7.26797 1.92708Z" stroke="current"/>
</svg>