<svg width="24" height="23" viewBox="0 0 24 23" fill="none" xmlns="http://www.w3.org/2000/svg">
    <path d="M1.43945 9.35938L3.61632 8.28725C5.59425 7.3131 7.19479 5.71257 8.16896 3.73465L9.24118 1.55765L11.2252 4.69098C12.0959 6.06615 13.2892 7.20799 14.7014 8.01735L17.0429 9.35938L14.8661 10.4314C12.888 11.4056 11.2873 13.0063 10.3132 14.9844L9.24118 17.1611L8.16896 14.9841C7.19479 13.0062 5.59426 11.4057 3.61632 10.4315L1.43945 9.35938Z"
          stroke="#0052CB" strokeWidth="1.5" stroke-linecap="round" stroke-linejoin="round"/>
    <path d="M14.7578 17.3062L16.7613 16.3194C17.1569 16.1246 17.477 15.8045 17.6719 15.4089L18.6587 13.4053L20.0484 15.6001C20.2226 15.8752 20.4612 16.1035 20.7437 16.2654L22.5595 17.3062L20.556 18.2929C20.1603 18.4877 19.8402 18.8079 19.6454 19.2035L18.6587 21.207L17.6719 19.2034C17.477 18.8078 17.1569 18.4877 16.7613 18.2929L14.7578 17.3062Z"
          stroke="#0052CB" strokeWidth="1.5" stroke-linecap="round" stroke-linejoin="round"/>
</svg>
