<svg xmlns="http://www.w3.org/2000/svg" width="15" height="15" viewBox="0 0 15 15" fill="none">
<path d="M6.67031 0.927078C6.96431 0.00607814 8.24126 0.00607814 8.53428 0.927078L9.58288 4.21908C9.64694 4.41957 9.77148 4.59426 9.93869 4.71818C10.1059 4.84211 10.3072 4.90892 10.5139 4.90908H13.9066C14.8563 4.90908 15.2502 6.14908 14.4829 6.71908L11.7389 8.75308C11.5713 8.87711 11.4466 9.05209 11.3825 9.25293C11.3184 9.45377 11.3183 9.67016 11.3822 9.87108L12.4308 13.1631C12.7248 14.0841 11.6909 14.8511 10.9216 14.2811L8.17756 12.2471C8.01018 12.1231 7.80864 12.0563 7.60181 12.0563C7.39497 12.0563 7.19343 12.1231 7.02605 12.2471L4.28205 14.2811C3.51373 14.8511 2.4808 14.0841 2.77382 13.1631L3.82243 9.87108C3.8863 9.67016 3.88618 9.45377 3.8221 9.25293C3.75802 9.05209 3.63326 8.87711 3.46571 8.75308L0.72268 6.72008C-0.0446614 6.15008 0.350279 4.91008 1.29892 4.91008H4.69071C4.89754 4.91013 5.09908 4.84342 5.26648 4.71948C5.43389 4.59554 5.55857 4.42073 5.62269 4.22008L6.67129 0.928078L6.67031 0.927078Z" fill="current"/>
</svg>