<svg viewBox="-4.5 -1 36 36" fill="none" xmlns="http://www.w3.org/2000/svg">
<path fill-rule="evenodd" clip-rule="evenodd" d="M12 3.25C11.4475 3.25 10.9176 3.46949 10.5269 3.86019C10.1362 4.2509 9.91667 4.7808 9.91667 5.33333C9.91667 5.88587 10.1362 6.41577 10.5269 6.80647C10.9176 7.19717 11.4475 7.41667 12 7.41667H15.3333C15.8859 7.41667 16.4158 7.19717 16.8065 6.80647C17.1972 6.41577 17.4167 5.88587 17.4167 5.33333C17.4167 4.7808 17.1972 4.2509 16.8065 3.86019C16.4158 3.46949 15.8859 3.25 15.3333 3.25H12ZM8.75909 2.09243C9.61864 1.23289 10.7844 0.75 12 0.75H15.3333C16.5489 0.75 17.7147 1.23289 18.5742 2.09243C19.1322 2.6504 19.5315 3.33742 19.7429 4.08333H22C23.2156 4.08333 24.3814 4.56622 25.2409 5.42576C26.1004 6.2853 26.5833 7.45109 26.5833 8.66667V28.6667C26.5833 29.8822 26.1004 31.048 25.2409 31.9076C24.3814 32.7671 23.2156 33.25 22 33.25H5.33333C4.11776 33.25 2.95197 32.7671 2.09243 31.9076C1.23289 31.048 0.75 29.8822 0.75 28.6667V8.66667C0.75 7.45109 1.23289 6.2853 2.09243 5.42576C2.95197 4.56622 4.11776 4.08333 5.33333 4.08333H7.5904C7.80188 3.33742 8.20113 2.6504 8.75909 2.09243ZM7.5904 6.58333H5.33333C4.7808 6.58333 4.2509 6.80283 3.86019 7.19353C3.46949 7.58423 3.25 8.11413 3.25 8.66667V28.6667C3.25 29.2192 3.46949 29.7491 3.86019 30.1398C4.2509 30.5305 4.7808 30.75 5.33333 30.75H22C22.5525 30.75 23.0824 30.5305 23.4731 30.1398C23.8638 29.7491 24.0833 29.2192 24.0833 28.6667V8.66667C24.0833 8.11413 23.8638 7.58423 23.4731 7.19353C23.0824 6.80283 22.5525 6.58333 22 6.58333H19.7429C19.5315 7.32925 19.1322 8.01627 18.5742 8.57424C17.7147 9.43378 16.5489 9.91667 15.3333 9.91667H12C10.7844 9.91667 9.61864 9.43378 8.75909 8.57424C8.20113 8.01627 7.80188 7.32925 7.5904 6.58333ZM19.5506 16.1161C20.0387 16.6043 20.0387 17.3957 19.5506 17.8839L12.8839 24.5506C12.3957 25.0387 11.6043 25.0387 11.1161 24.5506L7.78278 21.2172C7.29463 20.7291 7.29463 19.9376 7.78278 19.4494C8.27094 18.9613 9.0624 18.9613 9.55055 19.4494L12 21.8989L17.7828 16.1161C18.2709 15.628 19.0624 15.628 19.5506 16.1161Z" fill="currentColor"/>
</svg>
