<svg
    xmlns="http://www.w3.org/2000/svg"
    width="41"
    height="35"
    fill="none"
    viewBox="0 0 41 35"
>
    <g clipPath="url(#testDrive_clip0)">
        <path
            stroke="#3486FA"
            strokeLinecap="round"
            strokeLinejoin="round"
            strokeMiterlimit="10"
            strokeWidth="2"
            d="M7.414 29.733H4.406c-.669 0-1.211.517-1.211 1.154v1.91c0 .638.542 1.155 1.211 1.155h3.008c.669 0 1.211-.517 1.211-1.154v-1.91c0-.638-.542-1.155-1.211-1.155zM29.134 29.733h-3.007c-.669 0-1.211.517-1.211 1.154v1.91c0 .638.542 1.155 1.211 1.155h3.007c.67 0 1.212-.517 1.212-1.154v-1.91c0-.638-.543-1.155-1.212-1.155z"
        />
        <path
            stroke="#3486FA"
            strokeLinecap="round"
            strokeLinejoin="round"
            strokeMiterlimit="10"
            strokeWidth="2"
            d="M30.346 18.638c-1.205-3.68-3.46-6.967-6.516-9.494a26.909 26.909 0 00-6.693-1.038l-.014-.017c-.151 0-.299 0-.447.006-.148.006-.296-.006-.448-.006l-.014.017c-2.269.063-4.52.412-6.692 1.038-3.055 2.527-5.312 5.814-6.516 9.494A14.56 14.56 0 003.3 29.589h4.837s5.724 1.707 7.897 1.707h1.277c2.172 0 7.897-1.707 7.897-1.707h4.838a14.557 14.557 0 00.3-10.951v0z"
        />
        <path
            stroke="#3486FA"
            strokeLinecap="round"
            strokeMiterlimit="10"
            d="M3.195 20.747s5.43 0 5.43 3.164M30.346 20.747s-5.43 0-5.43 3.164M12.97 23.913h7.601"
        />
        <path
            stroke="#3486FA"
            strokeLinecap="round"
            strokeLinejoin="round"
            strokeMiterlimit="10"
            d="M4.281 17.584l11.946 1.055 13.032-1.055M28.807 15.125s2.624-1.762 3.71-.707c1.087 1.054-2.171 3.164-2.171 3.164M4.503 15.125s-2.624-1.762-3.71-.707c-1.087 1.054 2.171 3.164 2.171 3.164"
        />
        <path
            fill="#F0F6FF"
            d="M23.18 7.58c-1.206 4.187 1.316 8.454 5.633 9.53 4.318 1.077 8.796-1.444 10.002-5.632 1.207-4.187-1.315-8.455-5.632-9.531C28.866.87 24.387 3.392 23.18 7.579z"
        />
        <path
            stroke="#F0F6FF"
            strokeWidth="2"
            d="M24.234 7.842c-1.044 3.623 1.138 7.316 4.874 8.248 3.736.931 7.61-1.25 8.655-4.874 1.044-3.624-1.138-7.317-4.874-8.248-3.736-.932-7.611 1.25-8.655 4.874z"
        />
        <path
            stroke="#3486FA"
            strokeWidth="2"
            d="M26.32 8.28c-.737 2.557.803 5.163 3.44 5.82 2.637.658 5.371-.882 6.108-3.44.737-2.557-.803-5.163-3.44-5.82-2.636-.658-5.371.882-6.108 3.44z"
        />
        <path
            stroke="#3486FA"
            strokeLinecap="round"
            strokeWidth="2"
            d="M26.238 12.255l-4.684 2.576"
        />
    </g>
    <defs>
        <clipPath id="testDrive_clip0">
            <path fill="#fff" d="M0 0H41V35H0z" />
        </clipPath>
    </defs>
</svg>