<svg width="22" height="21" viewBox="0 0 22 21" fill="none" xmlns="http://www.w3.org/2000/svg">
<path d="M7.08695 18.4738C7.59137 18.6919 8.77318 19.1279 9.46496 19.1279C10.3297 19.1279 16.599 19.1279 17.2476 19.1279C17.8961 19.1279 18.7608 18.9099 18.977 18.2558C19.1932 17.6017 18.977 16.875 18.7608 16.5116C19.0491 16.439 19.6256 16.2936 19.8418 15.6395C20.0579 14.9855 19.7697 14.4041 19.6256 14.1134C19.9859 13.8953 20.4903 13.8953 20.7065 13.0233C20.9227 12.1512 20.2741 11.4244 20.0579 11.2791C20.2741 11.061 20.7065 10.843 20.7065 9.53488C20.7065 8.88081 19.8418 8.00872 18.977 8.00872C18.2852 8.00872 14.7975 8.00872 13.1401 8.00872C13.4283 6.99128 14.0048 4.73837 14.0048 3.86628C14.0048 2.77616 12.7077 1.25 11.843 1.25C11.1512 1.25 10.69 1.5407 10.5459 1.68605V4.73837L7.95168 10.189L7.08695 10.625V18.2558M7.08695 18.4738V18.2558M7.08695 18.4738V10.189V9.75291C6.00603 9.75291 3.67125 9.75291 2.97947 9.75291C2.11473 9.75291 1.25 10.407 1.25 11.4971C1.25 12.5872 1.25 16.9477 1.25 18.0378C1.25 19.1279 1.68237 20 2.97947 20C4.27657 20 4.49275 20 5.35748 20C6.22221 20 7.08695 19.3459 7.08695 18.2558" stroke="#566DED" stroke-width="1.5" stroke-linecap="round" stroke-linejoin="round"/>
</svg>
