<svg viewBox="0 0 16 18" fill="none" xmlns="http://www.w3.org/2000/svg">
<path fill-rule="evenodd" clip-rule="evenodd" d="M5.30218 1.30214C5.57567 1.02865 5.9466 0.875 6.33337 0.875H9.66671C10.0535 0.875 10.4244 1.02865 10.6979 1.30214C10.9714 1.57563 11.125 1.94656 11.125 2.33333V4.20833H14.6667C15.0119 4.20833 15.2917 4.48816 15.2917 4.83333C15.2917 5.17851 15.0119 5.45833 14.6667 5.45833H14.4153L13.7343 14.996C13.7343 14.9961 13.7343 14.996 13.7343 14.996C13.6931 15.5742 13.4344 16.1153 13.0103 16.5103C12.5861 16.9054 12.028 17.125 11.4484 17.125H4.55172C3.97209 17.125 3.41399 16.9054 2.98982 16.5103C2.56569 16.1153 2.30698 15.5743 2.26579 14.9962C2.26579 14.9961 2.2658 14.9962 2.26579 14.9962L1.58474 5.45833H1.33337C0.988196 5.45833 0.708374 5.17851 0.708374 4.83333C0.708374 4.48816 0.988196 4.20833 1.33337 4.20833H4.87504V2.33333C4.87504 1.94656 5.02869 1.57563 5.30218 1.30214ZM6.12504 4.20833H9.87504V2.33333C9.87504 2.27808 9.85309 2.22509 9.81402 2.18602C9.77495 2.14695 9.72196 2.125 9.66671 2.125H6.33337C6.27812 2.125 6.22513 2.14695 6.18606 2.18602C6.14699 2.22509 6.12504 2.27808 6.12504 2.33333V4.20833ZM2.83793 5.45833L3.51262 14.9072C3.53133 15.17 3.64893 15.416 3.84174 15.5956C4.03454 15.7752 4.28822 15.875 4.55171 15.875H11.4484C11.7118 15.875 11.9655 15.7752 12.1583 15.5956C12.3511 15.416 12.4687 15.1701 12.4875 14.9073L13.1622 5.45833H2.83793ZM6.33337 7.54167C6.67855 7.54167 6.95837 7.82149 6.95837 8.16667V13.1667C6.95837 13.5118 6.67855 13.7917 6.33337 13.7917C5.9882 13.7917 5.70837 13.5118 5.70837 13.1667V8.16667C5.70837 7.82149 5.9882 7.54167 6.33337 7.54167ZM9.66671 7.54167C10.0119 7.54167 10.2917 7.82149 10.2917 8.16667V13.1667C10.2917 13.5118 10.0119 13.7917 9.66671 13.7917C9.32153 13.7917 9.04171 13.5118 9.04171 13.1667V8.16667C9.04171 7.82149 9.32153 7.54167 9.66671 7.54167Z" fill="#566DED"/>
</svg>
