<svg width="12" height="16" viewBox="0 0 12 16" fill="none" xmlns="http://www.w3.org/2000/svg">
    <path fill-rule="evenodd" clip-rule="evenodd"
          d="M0.793333 2.91758L5.46 0.844248C5.8 0.690915 6.2 0.690915 6.54 0.844248L11.2067 2.91758C11.6867 3.13091 12 3.61091 12 4.13758V7.27091C12 10.9709 9.44 14.4309 6 15.2709C2.56 14.4309 0 10.9709 0 7.27091V4.13758C0 3.61091 0.313333 3.13091 0.793333 2.91758ZM2.46662 9.07089L4.19328 10.7976C4.45328 11.0576 4.87995 11.0576 5.13328 10.7976L9.52662 6.40423C9.78662 6.14423 9.78662 5.72423 9.52662 5.46423C9.26661 5.20423 8.84662 5.20423 8.58662 5.46423L4.66662 9.38423L3.40662 8.13089C3.14662 7.87089 2.72662 7.87089 2.46662 8.13089C2.34178 8.25545 2.27163 8.42455 2.27163 8.60089C2.27163 8.77724 2.34178 8.94634 2.46662 9.07089Z"
          fill="#636E7D"/>
</svg>
