<svg
    className="w-full h-full"
        viewBox="0 0 28 28"
        fill="none"
        xmlns="http://www.w3.org/2000/svg"
    >
        <path
            d="M17.6251 21.9645C17.2182 21.9645 16.865 21.662 16.8123 21.2478C16.7552 20.7984 17.0731 20.3878 17.5224 20.3305C20.1145 20.0003 22.4357 19.2979 24.0584 18.3524C25.5424 17.4879 26.3595 16.4714 26.3595 15.4905C26.3595 14.4093 25.4034 13.5247 24.601 12.9727C24.2278 12.7159 24.1334 12.2054 24.3901 11.832C24.6469 11.4588 25.1577 11.3643 25.5309 11.6211C27.1463 12.7324 28.0002 14.0703 28.0002 15.4907C28.0002 17.1027 26.9229 18.5825 24.8845 19.77C23.0497 20.839 20.5757 21.5956 17.7298 21.9581C17.6945 21.9624 17.6595 21.9645 17.6251 21.9645Z"
            fill="#566DED"
        />
        <path
            d="M13.8 20.7901L11.6125 18.6026C11.2921 18.2822 10.7728 18.2822 10.4524 18.6026C10.1321 18.9228 10.1321 19.4423 10.4524 19.7626L11.0915 20.4017C8.64084 20.1486 6.41446 19.578 4.69052 18.7489C2.75232 17.8169 1.64062 16.6294 1.64062 15.4912C1.64062 14.5258 2.43658 13.5224 3.88174 12.6658C4.27161 12.4349 4.40021 11.9316 4.16928 11.5419C3.93814 11.1521 3.43484 11.0235 3.0452 11.2544C0.52829 12.7463 0 14.3818 0 15.4912C0 17.3112 1.41333 18.9933 3.97958 20.2276C5.97141 21.1853 8.54791 21.8268 11.3549 22.075L10.4524 22.9776C10.1321 23.2978 10.1321 23.8173 10.4524 24.1378C10.6126 24.2978 10.8226 24.3779 11.0326 24.3779C11.2423 24.3779 11.4523 24.2978 11.6125 24.1378L13.8 21.9503C14.1203 21.6298 14.1203 21.1103 13.8 20.7901Z"
            fill="#566DED"
        />
        <path
            d="M8.59134 13.8477V13.6503C8.59134 12.9541 8.16516 12.8191 7.59372 12.8191C7.24039 12.8191 7.1261 12.5074 7.1261 12.1957C7.1261 11.8839 7.24039 11.5722 7.59372 11.5722C7.98849 11.5722 8.40421 11.5203 8.40421 10.6786C8.40421 10.076 8.06134 9.93048 7.63516 9.93048C7.1261 9.93048 6.86633 10.0552 6.86633 10.4605C6.86633 10.8136 6.71039 11.0526 6.10776 11.0526C5.35965 11.0526 5.2663 10.8967 5.2663 10.3979C5.2663 9.58762 5.84799 8.53809 7.63516 8.53809C8.95493 8.53809 9.95233 9.01596 9.95233 10.4188C9.95233 11.1772 9.67184 11.8839 9.15231 12.1229C9.76541 12.3515 10.2121 12.8086 10.2121 13.6503V13.8477C10.2121 15.5518 9.03802 16.196 7.58325 16.196C5.79608 16.196 5.11035 15.1051 5.11035 14.2322C5.11035 13.7646 5.30774 13.6398 5.87918 13.6398C6.54419 13.6398 6.71039 13.7853 6.71039 14.1803C6.71039 14.6686 7.16776 14.7829 7.63516 14.7829C8.34183 14.7829 8.59134 14.5232 8.59134 13.8477Z"
            fill="#566DED"
        />
        <path
            d="M16.519 13.6503V13.7439C16.519 15.531 15.407 16.196 13.9732 16.196C12.5394 16.196 11.417 15.531 11.417 13.7439V10.9903C11.417 9.20309 12.5703 8.53809 14.0668 8.53809C15.8228 8.53809 16.519 9.62906 16.519 10.4915C16.519 10.9903 16.2799 11.146 15.7604 11.146C15.3137 11.146 14.9187 11.0317 14.9187 10.5538C14.9187 10.1591 14.5032 9.9512 14.0149 9.9512C13.4018 9.9512 13.038 10.2733 13.038 10.9903V11.9253C13.3706 11.5617 13.8382 11.4681 14.337 11.4681C15.5213 11.4681 16.519 11.9877 16.519 13.6503ZM13.038 13.8582C13.038 14.5751 13.3913 14.8867 13.9732 14.8867C14.5551 14.8867 14.898 14.5751 14.898 13.8582V13.7646C14.898 13.006 14.5551 12.7151 13.9627 12.7151C13.4018 12.7151 13.038 12.9853 13.038 13.671V13.8582Z"
            fill="#566DED"
        />
        <path
            d="M17.7764 13.7439V10.9903C17.7764 9.20309 18.8881 8.53809 20.3221 8.53809C21.756 8.53809 22.8781 9.20309 22.8781 10.9903V13.7439C22.8781 15.531 21.756 16.196 20.3221 16.196C18.8881 16.196 17.7764 15.531 17.7764 13.7439ZM21.2571 10.9903C21.2571 10.2733 20.904 9.9512 20.3221 9.9512C19.7402 9.9512 19.3973 10.2733 19.3973 10.9903V13.7439C19.3973 14.4608 19.7402 14.7829 20.3221 14.7829C20.904 14.7829 21.2571 14.4608 21.2571 13.7439V10.9903Z"
            fill="#566DED"
        />
        <path
            d="M24.8477 8.53125C23.4905 8.53125 22.3867 7.42725 22.3867 6.07031C22.3867 4.71338 23.4905 3.60938 24.8477 3.60938C26.2046 3.60938 27.3086 4.71338 27.3086 6.07031C27.3086 7.42725 26.2046 8.53125 24.8477 8.53125ZM24.8477 5.25C24.3952 5.25 24.0273 5.61807 24.0273 6.07031C24.0273 6.52277 24.3952 6.89062 24.8477 6.89062C25.2999 6.89062 25.668 6.52277 25.668 6.07031C25.668 5.61807 25.2999 5.25 24.8477 5.25Z"
            fill="#566DED"
        />
</svg>
