<svg viewBox="0.5 -0.5 18 18" fill="none" xmlns="http://www.w3.org/2000/svg">
<path fill-rule="evenodd" clip-rule="evenodd" d="M7.49562 1.56362C8.37537 -0.000375032 10.6259 -0.000375032 11.5045 1.56362L17.9215 12.9716C18.784 14.5057 17.6766 16.3986 15.9182 16.3986H3.08307C1.32357 16.3986 0.21612 14.5057 1.07862 12.9716L7.49562 1.56362ZM10.6501 12.9498C10.6501 13.2548 10.5289 13.5473 10.3132 13.7629C10.0976 13.9786 9.80507 14.0998 9.50007 14.0998C9.19507 14.0998 8.90256 13.9786 8.6869 13.7629C8.47123 13.5473 8.35007 13.2548 8.35007 12.9498C8.35007 12.6448 8.47123 12.3523 8.6869 12.1366C8.90256 11.9209 9.19507 11.7998 9.50007 11.7998C9.80507 11.7998 10.0976 11.9209 10.3132 12.1366C10.5289 12.3523 10.6501 12.6448 10.6501 12.9498ZM9.50007 3.74977C9.19507 3.74977 8.90256 3.87094 8.6869 4.0866C8.47123 4.30227 8.35007 4.59478 8.35007 4.89978V8.34977C8.35007 8.65477 8.47123 8.94728 8.6869 9.16295C8.90256 9.37861 9.19507 9.49977 9.50007 9.49977C9.80507 9.49977 10.0976 9.37861 10.3132 9.16295C10.5289 8.94728 10.6501 8.65477 10.6501 8.34977V4.89978C10.6501 4.59478 10.5289 4.30227 10.3132 4.0866C10.0976 3.87094 9.80507 3.74977 9.50007 3.74977Z" fill="#F12828"/>
</svg>
