<?xml version="1.0" encoding="UTF-8"?><svg id="Capa_1" xmlns="http://www.w3.org/2000/svg" xmlns:xlink="http://www.w3.org/1999/xlink" viewBox="0 0 54 54"><defs><style>.cls-1{fill:#dcad32;}.cls-2{fill:#fff;stroke:#ffc226;stroke-width:2px;}.cls-3{fill:url(#Degradado_sin_nombre);}</style><linearGradient id="Degradado_sin_nombre" x1="33.04" y1="36.88" x2="22.5" y2="10.4" gradientTransform="translate(0 56) scale(1 -1)" gradientUnits="userSpaceOnUse"><stop offset="0" stop-color="#f3bf3a"/><stop offset="1" stop-color="#ffebb7"/></linearGradient></defs><path class="cls-2" d="M8.99,5.72c5.68-.42,11.56-1.62,16.34-3.77,1.03-.47,2.25-.44,3.3,.04,4.58,2.13,10.66,3.31,16.38,3.72,1.55,.11,2.71,1.25,2.75,2.68,.16,4.73,.24,12.36,.24,14.24,0,7.97-.92,13.13-3.75,17.2-2.84,4.1-7.72,7.26-16.08,10.96-.74,.33-1.6,.33-2.34,0-8.36-3.7-13.24-6.86-16.08-10.96-2.83-4.08-3.75-9.23-3.75-17.2,0-1.88,.08-9.51,.24-14.25,.05-1.43,1.2-2.57,2.75-2.68Z"/><path class="cls-1" d="M21.75,22.9c-.17-.35-.52-.57-.9-.57h-5.21c-.73,0-1.22,.77-.9,1.43l6.31,13.29c.17,.35,.52,.57,.9,.57h5.21c.73,0,1.22-.77,.9-1.43l-6.31-13.29Z"/><path class="cls-3" d="M28.7,37.61l10.59-23.26c.3-.66-.18-1.41-.91-1.41h-5.18c-.39,0-.75,.23-.91,.59l-10.97,24.09"/></svg>