<svg width="34" height="35" viewBox="0 0 44 35" fill="none" xmlns="http://www.w3.org/2000/svg">
<g clip-path="url(#clip0_3207_17335)">
<path d="M5.90971 18.5285C5.5151 21.7574 4.22021 23.0251 1.06569 23.2744V25.9989H1.89272C2.70321 25.9989 3.5137 25.9989 4.32419 25.9989C4.81923 25.9989 5.05907 26.1619 5.06734 26.4927C5.07561 26.8235 4.81802 27.0126 4.3029 27.0137C3.38963 27.0137 2.47633 27.0137 1.56187 27.0137H1.13186C1.01371 27.7734 1.67296 28.5745 2.51063 28.6678C2.96195 28.721 3.42273 28.6938 3.87878 28.7068C4.33482 28.7198 4.57231 28.9159 4.53804 29.2408C4.49551 29.6272 4.23082 29.7441 3.87756 29.7287C3.31991 29.7039 2.75043 29.7465 2.20695 29.6437C1.59863 29.5328 1.04813 29.2131 0.65039 28.7396C0.252648 28.2662 0.0326169 27.6687 0.0283307 27.0504C0.0212419 25.4908 -0.0602794 23.9124 0.146478 22.3765C0.511551 19.6756 2.9206 17.6352 5.65098 17.5112C6.62214 17.4675 7.61809 17.4958 8.51483 17.0835C9.32295 16.7125 10.1382 16.299 10.8329 15.7544C12.3688 14.5575 13.8173 13.2614 15.3083 12.015C16.8895 10.6589 18.9033 9.91271 20.9864 9.91083C21.6788 9.90492 22.3711 9.91083 23.0634 9.91083C23.4238 9.91083 23.7227 9.9805 23.7523 10.4094C23.7759 10.7544 23.5349 10.9198 23.0434 10.9352C21.9552 10.9694 20.8588 10.941 19.7813 11.0639C18.295 11.2317 17.0096 11.9122 15.8707 12.8751C14.4435 14.0838 13.0056 15.2806 11.5808 16.4939C10.0283 17.816 8.24429 18.5025 6.20035 18.5084C6.11056 18.5107 6.02313 18.5214 5.90971 18.5285ZM4.80618 18.6997C3.07179 19.0542 1.27715 20.8465 1.3055 22.1839C3.19585 22.3493 4.9645 20.6019 4.80618 18.6997Z" fill="#566DED"/>
<path d="M23.8751 18.5167H31.6893C31.8216 18.5167 31.9953 18.4707 32.078 18.5368C32.2552 18.6774 32.4868 18.8688 32.5022 19.0543C32.5152 19.2055 32.2658 19.4087 32.0898 19.5269C31.9882 19.5978 31.8039 19.5505 31.6562 19.5505H11.4153C11.283 19.5505 11.127 19.5895 11.023 19.534C10.8553 19.4454 10.6391 19.3142 10.5965 19.1583C10.5818 19.0621 10.5906 18.9637 10.6223 18.8717C10.654 18.7797 10.7076 18.6968 10.7785 18.6301C13.2501 17.0044 15.3271 14.892 17.644 13.0772C18.4519 12.4216 19.4547 12.053 20.4949 12.0293C21.7023 12.0045 22.9098 12.0104 24.1185 12.0104C24.454 12.0104 24.7092 12.1522 24.7009 12.5243C24.6926 12.8965 24.454 13.03 24.1102 13.03C24.0308 13.0348 23.9519 13.0447 23.8739 13.0595L23.8751 18.5167ZM22.8118 18.4978V13.0383H20.8966C19.8396 13.0255 18.8153 13.4042 18.0209 14.1016C16.902 15.0586 15.7702 16.0002 14.6442 16.9501C14.0535 17.4463 13.4628 17.9449 12.8083 18.5014L22.8118 18.4978Z" fill="#566DED"/>
<path d="M14.5521 29.6472C14.5507 30.538 14.285 31.4083 13.7887 32.148C13.2924 32.8878 12.5878 33.4636 11.764 33.8027C10.9403 34.1417 10.0344 34.2287 9.16121 34.0527C8.28798 33.8767 7.48662 33.4455 6.85855 32.8138C6.23049 32.1821 5.80398 31.3782 5.63301 30.504C5.46204 29.6298 5.55428 28.7245 5.89809 27.9027C6.2419 27.0809 6.8218 26.3797 7.56438 25.8876C8.30695 25.3956 9.17885 25.135 10.0696 25.1387C11.2611 25.1446 12.4017 25.6224 13.2418 26.4673C14.0819 27.3123 14.5531 28.4556 14.5521 29.6472ZM10.0483 33.1171C10.7344 33.1171 11.4051 32.9139 11.9757 32.5331C12.5464 32.1523 12.9915 31.6109 13.2548 30.9774C13.518 30.3439 13.5878 29.6466 13.4552 28.9735C13.3225 28.3004 12.9934 27.6816 12.5095 27.1954C12.0255 26.7091 11.4084 26.3771 10.7359 26.2413C10.0634 26.1054 9.36573 26.1718 8.73096 26.4321C8.09619 26.6924 7.55279 27.1348 7.16927 27.7037C6.78574 28.2725 6.57932 28.9422 6.57605 29.6283C6.57417 30.5515 6.93902 31.4377 7.59039 32.092C8.24177 32.7462 9.12633 33.115 10.0496 33.1171H10.0483Z" fill="#566DED"/>
<path d="M29.9905 29.651C29.9907 28.7597 30.2555 27.8885 30.7511 27.1477C31.2468 26.4069 31.951 25.8298 32.7748 25.4895C33.5986 25.1493 34.5049 25.0611 35.3789 25.2362C36.2528 25.4112 37.0552 25.8416 37.6843 26.473C38.3135 27.1043 38.7412 27.9081 38.9133 28.7827C39.0854 29.6572 38.9941 30.5632 38.651 31.3858C38.3079 32.2084 37.7284 32.9108 36.986 33.4039C36.2435 33.897 35.3714 34.1587 34.4801 34.1559C33.2875 34.1534 32.1446 33.6775 31.3028 32.8328C30.4609 31.988 29.9889 30.8436 29.9905 29.651ZM34.4801 33.1174C35.166 33.1167 35.8363 32.9129 36.4065 32.5316C36.9767 32.1504 37.4212 31.6088 37.6839 30.9752C37.9467 30.3417 38.0159 29.6444 37.8829 28.9715C37.7499 28.2987 37.4205 27.6803 36.9364 27.1944C36.4523 26.7085 35.8351 26.3768 35.1628 26.2412C34.4904 26.1057 33.7929 26.1723 33.1584 26.4327C32.5238 26.6931 31.9805 27.1355 31.5972 27.7043C31.2138 28.273 31.0075 28.9427 31.0042 29.6285C31.0014 30.0865 31.0893 30.5405 31.2629 30.9643C31.4365 31.3881 31.6923 31.7733 32.0156 32.0976C32.3389 32.422 32.7232 32.6791 33.1464 32.8542C33.5696 33.0292 34.0233 33.1187 34.4813 33.1174H34.4801Z" fill="#566DED"/>
<path d="M42.0897 27.0051C41.3867 27.0051 40.6814 27.0051 39.976 27.0051C39.5306 27.0051 39.2766 26.8208 39.2991 26.4959C39.3274 26.0718 39.6228 25.9879 39.9855 25.9914C40.6944 25.9973 41.3938 25.9914 42.1192 25.9914V25.3097C41.7908 25.3097 41.4588 25.3097 41.1268 25.3097C40.2809 25.2967 39.8177 24.8371 39.8071 23.9936C39.8012 23.5517 39.7953 23.1099 39.813 22.668C39.813 22.5164 39.8429 22.3663 39.9009 22.2263C39.9589 22.0862 40.0439 21.9589 40.1511 21.8517C40.2583 21.7446 40.3855 21.6596 40.5256 21.6015C40.6656 21.5435 40.8157 21.5137 40.9673 21.5137C41.3336 21.4983 41.701 21.5137 42.0602 21.5137C42.2787 20.7623 42.1724 20.4917 41.6313 20.051C40.7062 19.2984 39.8036 18.5151 38.8926 17.7495C38.6174 17.5132 38.4543 17.2497 38.7237 16.9142C38.9399 16.646 39.2388 16.6968 39.6027 17.0052C40.5585 17.8133 41.5132 18.6214 42.4879 19.4059C42.9475 19.7757 43.1896 20.2153 43.1873 20.8072C43.1814 22.8405 43.1872 24.8749 43.1813 26.9082C43.1882 27.5936 42.9424 28.2575 42.4909 28.7731C42.0393 29.2888 41.4137 29.62 40.7334 29.7036C40.3789 29.7532 40.0895 29.667 40.0245 29.2901C39.9595 28.9132 40.2171 28.7431 40.5668 28.6828C41.5214 28.5138 42.124 27.8617 42.0897 27.0051ZM42.1157 22.551C41.7506 22.551 41.4293 22.5356 41.1103 22.5605C41.0098 22.5675 40.8338 22.6786 40.8326 22.7495C40.8231 23.2221 40.8491 23.7088 40.8645 24.1885C41.2355 24.2157 41.6076 24.244 41.9798 24.2665C42.0176 24.2665 42.0578 24.2417 42.1157 24.2228V22.551Z" fill="#566DED"/>
<path d="M22.2223 29.7385C20.2351 29.7385 18.2475 29.7385 16.2595 29.7385C15.9145 29.7385 15.6321 29.6641 15.5895 29.2659C15.5786 29.2034 15.5809 29.1393 15.5962 29.0777C15.6114 29.0161 15.6393 28.9583 15.6781 28.9081C15.7169 28.8578 15.7657 28.8162 15.8214 28.7859C15.8772 28.7555 15.9386 28.7372 16.0019 28.7319C16.1624 28.7102 16.3245 28.7027 16.4863 28.7094H28.3222C28.6708 28.7094 28.952 28.8276 28.9461 29.2269C28.9402 29.6262 28.6731 29.7361 28.3163 29.7361C26.2858 29.7361 24.2544 29.7369 22.2223 29.7385Z" fill="#566DED"/>
<path d="M21.42 21.2522C21.7 21.2522 21.9812 21.2368 22.2588 21.2522C22.5613 21.2723 22.7563 21.4389 22.7598 21.7579C22.7656 21.8248 22.757 21.8922 22.7346 21.9556C22.7122 22.019 22.6766 22.0769 22.6301 22.1255C22.5836 22.174 22.5272 22.2121 22.4649 22.2371C22.4025 22.2621 22.3355 22.2735 22.2683 22.2706C21.7095 22.2931 21.1494 22.2919 20.5906 22.2706C20.2941 22.2588 20.0885 22.0886 20.0908 21.7649C20.0908 21.4223 20.3024 21.2628 20.6261 21.2474C20.8907 21.2356 21.1553 21.2474 21.42 21.2474V21.2522Z" fill="#566DED"/>
<path d="M34.6453 0.000412119C34.6961 0.0311303 34.7469 0.0583064 34.7953 0.0913875C34.8549 0.132634 34.9045 0.186708 34.9405 0.249628C34.9765 0.312548 34.998 0.382715 35.0033 0.455C35.0086 0.527286 34.9977 0.59984 34.9713 0.667353C34.9449 0.734866 34.9038 0.795615 34.8509 0.84515C34.7067 0.99756 34.552 1.14169 34.3783 1.30828C34.6465 1.36499 34.8816 1.4028 35.1096 1.46542C38.2251 2.33498 40.1982 4.34228 40.8586 7.50152C41.7341 11.6863 38.9683 15.7435 34.7658 16.5894C30.685 17.4105 26.6137 14.7581 25.7169 10.6986C25.2991 8.86647 25.5622 6.94491 26.4573 5.29262C27.3524 3.64032 28.8182 2.37021 30.581 1.71943C30.9083 1.60128 31.1812 1.69818 31.2899 1.97701C31.3986 2.25583 31.2521 2.51222 30.9296 2.63864C28.8136 3.46567 27.4088 4.96254 26.7684 7.13999C25.8658 10.2118 27.332 13.5495 30.1947 15.0003C31.0976 15.4632 32.093 15.717 33.1073 15.743C34.1216 15.769 35.1287 15.5664 36.0541 15.1504C36.9795 14.7343 37.7994 14.1154 38.4532 13.3395C39.1069 12.5635 39.5778 11.6505 39.8307 10.6679C40.7866 7.0207 38.4827 3.22464 34.8048 2.39762C34.7516 2.3858 34.6984 2.37753 34.6453 2.36808L34.6004 2.41411C34.6864 2.47423 34.7684 2.53975 34.8461 2.61026C34.8965 2.65481 34.9371 2.70925 34.9656 2.77017C34.994 2.83109 35.0095 2.89721 35.0113 2.96441C35.0131 3.03161 35.0011 3.09844 34.9759 3.16078C34.9508 3.22313 34.9131 3.27964 34.8652 3.32681C34.8173 3.37398 34.7603 3.41075 34.6975 3.43492C34.6348 3.45909 34.5677 3.47016 34.5006 3.46734C34.4334 3.46452 34.3676 3.44789 34.3071 3.41854C34.2466 3.38918 34.1929 3.34771 34.1491 3.2967C33.7505 2.90287 33.3539 2.50632 32.9593 2.10698C32.9046 2.06096 32.8607 2.0035 32.8305 1.9387C32.8004 1.8739 32.7847 1.8033 32.7847 1.73183C32.7847 1.66036 32.8004 1.58975 32.8305 1.52496C32.8607 1.46016 32.9046 1.40276 32.9593 1.35674C33.3531 0.962912 33.7469 0.56909 34.1408 0.175267C34.2184 0.109973 34.301 0.0507261 34.3877 -0.00195312L34.6453 0.000412119Z" fill="#566DED"/>
<path d="M32.3924 7.85465C32.1656 7.85465 31.7426 7.84402 31.1235 7.82748C30.966 7.82748 30.736 7.82037 30.4335 7.80619C30.1642 7.78414 30.0295 7.65341 30.0295 7.41397C30.0278 7.36153 30.0374 7.30932 30.0578 7.26098C30.0782 7.21263 30.1089 7.1693 30.1476 7.13395C30.2282 7.05866 30.3352 7.01828 30.4454 7.02168C30.7006 7.02168 31.0841 7.02922 31.5961 7.04418C32.1088 7.05954 32.4916 7.06662 32.748 7.06662H33.3045C33.4044 7.06451 33.5032 7.0864 33.5928 7.13043C33.6394 7.14976 33.6791 7.18258 33.7069 7.22469C33.7347 7.2668 33.7493 7.31627 33.7488 7.36672C33.7323 7.51572 33.668 7.65535 33.5656 7.76483C33.464 7.88298 33.3624 7.99172 33.2585 8.10514C32.9775 8.42503 32.7373 8.77861 32.5436 9.15779C32.4751 9.28775 32.2936 9.66783 31.999 10.2979C31.9612 10.3807 31.875 10.6086 31.7415 10.9796C31.6635 11.2098 31.5592 11.4302 31.4307 11.6365C31.3939 11.6919 31.3435 11.7369 31.2843 11.7673C31.2252 11.7977 31.1593 11.8125 31.0928 11.8102C30.9823 11.8093 30.8761 11.7672 30.7951 11.6921C30.7535 11.6583 30.7201 11.6156 30.6974 11.5671C30.6746 11.5186 30.6632 11.4656 30.664 11.412C30.703 11.201 30.7718 10.9965 30.8683 10.8047C31.0865 10.2928 31.3043 9.78081 31.5217 9.26884C31.7497 8.76186 32.0424 8.28655 32.3924 7.85465Z" fill="#566DED"/>
<path d="M35.8528 8.21142C35.8772 7.54743 35.9071 7.08907 35.9425 6.83623C35.9437 6.78822 35.9546 6.74093 35.9746 6.69726C35.9946 6.65358 36.0232 6.61438 36.0588 6.58211C36.0944 6.54985 36.1361 6.52517 36.1815 6.50954C36.227 6.49391 36.2751 6.48766 36.323 6.49119C36.3744 6.48915 36.4257 6.49815 36.4733 6.5175C36.521 6.53686 36.564 6.56615 36.5994 6.60346C36.6341 6.63998 36.6613 6.68299 36.6793 6.73003C36.6974 6.77706 36.706 6.82718 36.7046 6.87754C36.7046 7.16345 36.6834 7.58642 36.6397 8.15235C36.5959 8.71827 36.5735 9.14127 36.5735 9.426C36.5603 9.89332 36.5828 10.3609 36.6408 10.8248C36.6462 10.8529 36.649 10.8814 36.6491 10.9099C36.6504 10.9604 36.6405 11.0106 36.6201 11.0567C36.5997 11.1029 36.5692 11.144 36.5309 11.1769C36.4569 11.2451 36.3598 11.2827 36.2592 11.2821C36.1928 11.2843 36.1271 11.2674 36.0701 11.2332C36.0131 11.1991 35.9671 11.1492 35.9378 11.0895C35.8111 11.1664 35.6714 11.2193 35.5255 11.2455C35.3799 11.2703 35.2325 11.2826 35.0848 11.2821C34.8849 11.2883 34.6858 11.2544 34.4992 11.1826C34.3125 11.1108 34.142 11.0024 33.9978 10.8638C33.8526 10.7237 33.7383 10.5547 33.6624 10.3677C33.5865 10.1806 33.5506 9.97981 33.5572 9.77808C33.5572 9.2535 33.7048 8.83014 34.0002 8.508C34.1472 8.34842 34.327 8.22255 34.5273 8.13914C34.7276 8.05572 34.9436 8.01669 35.1604 8.02474C35.2923 8.02276 35.4239 8.0387 35.5515 8.07204C35.6598 8.09907 35.7621 8.14633 35.8528 8.21142ZM35.7937 9.13179C35.7381 9.018 35.6507 8.9228 35.5421 8.85771C35.43 8.79491 35.303 8.76349 35.1746 8.76673C35.0548 8.75793 34.9345 8.77573 34.8224 8.81883C34.7103 8.86192 34.6091 8.92923 34.526 9.01601C34.3818 9.18299 34.3098 9.43308 34.3098 9.76625C34.309 9.86781 34.3296 9.9684 34.3703 10.0614C34.411 10.1545 34.4709 10.2378 34.5461 10.3062C34.6171 10.3779 34.7018 10.4347 34.7952 10.4732C34.8885 10.5118 34.9886 10.5313 35.0895 10.5307C35.2057 10.5367 35.3219 10.5189 35.431 10.4786C35.5267 10.4277 35.617 10.3672 35.7004 10.2979C35.7346 10.2698 35.767 10.2394 35.7972 10.2069C35.7917 10.1101 35.7905 9.75166 35.7937 9.13179Z" fill="#566DED"/>
</g>
<defs>
<clipPath id="clip0_3207_17335">
<rect width="43.1874" height="34.1551" fill="white"/>
</clipPath>
</defs>
</svg>