<svg width="34" height="35" viewBox="0 0 34 35" fill="none" xmlns="http://www.w3.org/2000/svg">
<path fill-rule="evenodd" clip-rule="evenodd" d="M33.2747 17.9878V18.5728C33.1938 18.7127 33.1135 18.8525 33.0332 18.9923C32.8144 19.3732 32.5958 19.754 32.3659 20.1343C32.316 20.2028 32.2892 20.2853 32.2892 20.37C32.2892 20.4546 32.316 20.5371 32.3659 20.6056C32.5938 20.9929 32.8125 21.3857 33.031 21.7784C33.1112 21.9225 33.1914 22.0667 33.2721 22.2105V22.7312C32.99 23.4707 32.4423 23.7346 31.6698 23.7094C30.9363 23.6851 30.199 23.6906 29.4689 23.6961C29.1579 23.6984 28.8483 23.7007 28.5408 23.7007C28.4594 23.9124 28.3826 24.1233 28.3063 24.3326C28.1428 24.7816 27.982 25.2231 27.7848 25.6475C26.6738 28.0327 24.8946 29.832 22.7681 31.3214C21.1466 32.4417 19.3905 33.3533 17.5412 34.0346C16.9755 34.2651 16.3429 34.2694 15.7741 34.0467C12.6989 32.8828 9.90321 31.2754 7.64652 28.8451C6.24911 27.3392 5.43761 25.881 4.77362 23.7007H4.37609C4.0455 23.7007 3.71413 23.7001 3.38238 23.6994C2.71772 23.698 2.05152 23.6967 1.38686 23.7007C0.858275 23.7033 0.422532 23.5132 0.163881 23.0524C-0.0947694 22.5915 -0.0313951 22.1358 0.242879 21.7018C0.352719 21.5265 0.457614 21.3482 0.562477 21.1699C0.6772 20.9749 0.791884 20.78 0.912959 20.5891C0.961734 20.5258 0.988143 20.4481 0.988143 20.3682C0.988143 20.2883 0.961734 20.2106 0.912959 20.1473C0.669064 19.7611 0.436421 19.374 0.209017 18.9799C-0.319568 18.0616 0.223765 17.0774 1.28701 17.0452C1.7411 17.0309 2.19562 17.0343 2.66753 17.0377C2.88114 17.0393 3.09833 17.0409 3.32065 17.0409C3.32065 16.8883 3.31941 16.7373 3.31818 16.5874C3.3153 16.235 3.31246 15.8889 3.32586 15.5437C3.32664 15.5244 3.32738 15.5049 3.32812 15.4853C3.33722 15.2442 3.34717 14.9805 3.45953 14.7894C3.64965 14.4693 3.89605 14.1861 4.18686 13.9536C4.36219 13.8138 4.4325 13.708 4.4325 13.4927V5.33911C4.43337 4.23942 4.96888 3.64141 6.05729 3.48517C8.79916 3.09199 11.5333 2.64411 14.1805 1.80046C14.6799 1.64236 15.1649 1.43916 15.6499 1.23595C15.8705 1.14352 16.0911 1.05108 16.3131 0.962891H16.9623C17.1607 1.0429 17.3585 1.12652 17.5565 1.21025C18.0029 1.39899 18.4506 1.58828 18.91 1.73799C21.6458 2.62938 24.4736 3.09458 27.3127 3.49297C28.2223 3.62056 28.8194 4.25767 28.842 5.1751V5.49969C28.8397 8.17415 28.8411 10.8483 28.8463 13.5222C28.8472 13.6359 28.8811 13.8147 28.9548 13.8529C29.7507 14.2565 29.9912 14.9309 29.9539 15.7676C29.9435 16.0443 29.9469 16.3233 29.9504 16.6066C29.9521 16.7499 29.9539 16.8943 29.9539 17.04C30.1383 17.04 30.3182 17.0427 30.4946 17.0452C30.8828 17.0509 31.255 17.0563 31.6255 17.0331C32.3989 16.9862 32.9735 17.2379 33.2747 17.9878ZM16.3677 2.53131C13.0122 3.77509 9.51091 4.42343 5.98961 4.9824V4.97807C5.66152 5.03276 5.54173 5.11954 5.54347 5.46499C5.55542 7.46917 5.55417 9.47285 5.55292 11.4768C5.55254 12.0929 5.55216 12.709 5.55216 13.3252V13.7123H27.6356V5.86773C27.6356 5.04928 27.633 5.04888 26.8539 4.92535C26.8373 4.92273 26.8204 4.92005 26.8032 4.9173C23.4129 4.37917 20.0531 3.71953 16.8217 2.53564C16.6748 2.48518 16.5155 2.48368 16.3677 2.53131ZM1.44674 22.5924H3.00906H4.54621C4.53628 22.4683 4.52792 22.3481 4.51975 22.2304C4.50292 21.9881 4.48687 21.757 4.45941 21.5274C4.44776 21.4835 4.42716 21.4425 4.39894 21.407C4.37071 21.3714 4.33544 21.3421 4.29536 21.3208C3.60186 20.9632 3.30936 20.3851 3.32238 19.6239C3.32639 19.3113 3.32511 18.9986 3.32378 18.6726C3.32309 18.5043 3.32238 18.3326 3.32238 18.1554H1.35995C1.08741 18.1562 1.07525 18.2786 1.20111 18.4826C1.37367 18.7626 1.54232 19.0453 1.71106 19.328C1.78081 19.4449 1.85058 19.5619 1.92064 19.6786C2.05567 19.8836 2.12763 20.1236 2.12763 20.3691C2.12763 20.6145 2.05567 20.8546 1.92064 21.0595C1.86366 21.1544 1.80662 21.2493 1.74958 21.3441C1.57813 21.6292 1.40669 21.9143 1.2367 22.2009C1.04141 22.529 1.07352 22.5924 1.44674 22.5924ZM21.3759 30.7242C23.5171 29.2713 25.3641 27.5327 26.5549 25.1537V25.1493C27.1541 23.9615 27.5088 22.6655 27.5982 21.3381H5.60335C5.60335 21.3724 5.60268 21.4031 5.60206 21.4314C5.60096 21.4821 5.60001 21.5253 5.60335 21.5681C5.61203 21.6775 5.62506 21.7877 5.63895 21.8971C5.95576 24.33 7.06676 26.3549 8.70286 28.0995C10.8224 30.3562 13.408 31.889 16.2193 33.0469C16.4624 33.1392 16.7304 33.142 16.9753 33.0547C18.5215 32.4381 19.9969 31.6567 21.3759 30.7242ZM5.27528 20.3747H28.0748V20.3704C28.6546 20.3704 28.8429 20.1864 28.8446 19.6231V15.5637C28.8446 15.0099 28.6563 14.8198 28.1017 14.8198H5.17111C4.6243 14.8207 4.43509 15.0142 4.43509 15.5706V19.5319C4.43509 20.2176 4.5922 20.3747 5.27528 20.3747ZM29.8212 22.5904C30.5389 22.592 31.2502 22.5935 31.9614 22.5889V22.5846C32.2036 22.5828 32.1819 22.4396 32.0908 22.2781C31.999 22.1261 31.9081 21.9735 31.8172 21.8209C31.67 21.5738 31.5229 21.3268 31.3721 21.0821C31.0735 20.6004 31.0744 20.1265 31.3721 19.6456C31.5276 19.3948 31.6788 19.1408 31.8301 18.8868C31.917 18.7409 32.0039 18.5949 32.0916 18.4496C32.1984 18.2725 32.1724 18.1536 31.945 18.1536H29.9487C29.9487 18.3418 29.9492 18.5246 29.9497 18.7039C29.9506 19.0523 29.9515 19.3874 29.9487 19.722C29.9417 20.4312 29.6405 20.9667 29.0043 21.3052C28.9271 21.346 28.8273 21.425 28.8186 21.4961C28.7903 21.7401 28.7737 21.9854 28.7563 22.2421C28.7486 22.3552 28.7408 22.4705 28.7318 22.5889C29.0971 22.5889 29.4599 22.5897 29.8212 22.5904ZM15.1987 10.4253L15.2454 10.3785C16.5478 9.07528 17.7941 7.82821 19.0411 6.58197C19.1232 6.49491 19.2101 6.41258 19.3015 6.33544C19.4055 6.25016 19.5373 6.20614 19.6716 6.21173C19.806 6.21733 19.9336 6.27219 20.0301 6.36583C20.1267 6.45947 20.1854 6.58536 20.1951 6.7195C20.2048 6.85364 20.1648 6.98667 20.0827 7.09321C20.0222 7.1693 19.9561 7.24067 19.8848 7.30672L15.7768 11.4147C15.3333 11.8574 15.1128 11.8548 14.6623 11.4043C14.5684 11.3104 14.4742 11.2167 14.3801 11.1229L14.3799 11.1227C14.1906 10.9342 14.0013 10.7456 13.8135 10.5555C13.5322 10.2708 13.4923 9.94269 13.7267 9.69966C13.9732 9.43927 14.2917 9.46706 14.6041 9.7804C14.7337 9.91168 14.8569 10.0482 14.9873 10.1927C15.0552 10.2679 15.125 10.3453 15.1987 10.4253ZM16.6039 18.1501H12.4794C12.3497 18.1553 12.2198 18.1484 12.0914 18.1293C11.9663 18.1129 11.8519 18.0504 11.7705 17.9541C11.6891 17.8578 11.6466 17.7345 11.6514 17.6085C11.6422 17.4875 11.6773 17.3673 11.7501 17.2702C11.8229 17.1732 11.9285 17.1058 12.0472 17.0807C12.1736 17.0529 12.3031 17.0407 12.4325 17.0443H20.8439C20.9626 17.0408 21.0814 17.0504 21.198 17.073C21.4801 17.1363 21.6164 17.3333 21.6259 17.6102C21.6281 17.7422 21.5802 17.8701 21.4917 17.968C21.4033 18.066 21.2809 18.1267 21.1494 18.1379C20.9555 18.1544 20.7607 18.1596 20.5661 18.1535L16.6039 18.1501Z" fill="#566DED"/>
</svg>
