<svg width="34" height="37" viewBox="0 0 34 37" fill="none" xmlns="http://www.w3.org/2000/svg">
<g clip-path="url(#clip0_3458_16669)">
<path d="M16.6567 24.2537C18.6024 24.2537 20.5489 24.2537 22.4964 24.2537C23.1254 24.2537 23.5773 24.5357 23.7517 25.0389C23.9261 25.5421 23.8142 25.9932 23.4194 26.3402C22.8173 26.8669 22.2049 27.3883 21.5707 27.8698C21.3439 28.0327 21.0733 28.1234 20.7942 28.1301C18.0179 28.148 15.2387 28.148 12.4567 28.1301C12.16 28.1301 11.8251 27.973 11.5787 27.7926C11.0052 27.3709 10.4725 26.892 9.93028 26.4322C9.46526 26.0392 9.31603 25.5498 9.49649 25.044C9.67695 24.5382 10.1203 24.2632 10.7207 24.2589C12.6988 24.252 14.6774 24.2502 16.6567 24.2537ZM10.5619 25.3902L10.5298 25.4605C10.6053 25.5316 10.6773 25.6071 10.7571 25.6739C11.2056 26.0487 11.6628 26.4131 12.101 26.8018C12.1867 26.8811 12.2872 26.9427 12.3968 26.9831C12.5064 27.0234 12.6229 27.0417 12.7395 27.0369C15.2069 27.0274 17.6735 27.0161 20.14 27.043C20.6605 27.049 21.0709 26.9345 21.4414 26.5658C21.7895 26.2413 22.1544 25.9352 22.5345 25.6488C22.6192 25.5981 22.7098 25.5581 22.8043 25.5299L22.6985 25.3928L10.5619 25.3902Z" fill="#566DED"/>
<path d="M27.7323 28.137C27.0382 28.137 26.3441 28.137 25.6501 28.137C25.0679 28.137 24.6419 27.8515 24.4589 27.3561C24.2758 26.8608 24.4198 26.3602 24.8605 25.9897C25.4158 25.5238 25.9789 25.0675 26.5324 24.6016C26.8058 24.3676 27.1565 24.2439 27.5162 24.2545C28.2849 24.2597 29.0536 24.2545 29.8222 24.2545C30.577 24.2606 31.0282 24.7179 31.0369 25.4753C31.0403 25.9623 31.0403 26.4492 31.0369 26.9363C31.0308 27.6772 30.5779 28.1335 29.843 28.137C29.1386 28.1404 28.4359 28.137 27.7323 28.137ZM29.9133 25.3607C29.0674 25.3607 28.2485 25.3564 27.4303 25.3668C27.3436 25.3668 27.2568 25.4457 27.1839 25.5047C26.6744 25.9229 26.1674 26.3443 25.6631 26.7688C25.5901 26.8441 25.5228 26.9247 25.4618 27.01H29.9133V25.3607Z" fill="#566DED"/>
<path d="M5.49006 28.1382C4.79599 28.1382 4.10193 28.1382 3.40786 28.1382C2.67042 28.1382 2.2158 27.6801 2.20973 26.9427C2.20539 26.4334 2.20279 25.925 2.20973 25.4166C2.21927 24.7355 2.66954 24.2697 3.34885 24.2584C4.17132 24.2454 4.99725 24.2297 5.81625 24.2697C6.11521 24.2902 6.40237 24.3946 6.64481 24.5707C7.25212 25.0218 7.82386 25.525 8.40167 26.0109C8.82331 26.3683 8.96036 26.8785 8.78424 27.3556C8.60812 27.8328 8.17697 28.1365 7.62779 28.1365C6.91898 28.1425 6.20495 28.1382 5.49006 28.1382ZM3.33843 26.9991H7.7284L7.82211 26.8724C7.72371 26.831 7.62959 26.7802 7.54103 26.7206C7.22003 26.4603 6.88164 26.2226 6.59707 25.9293C6.39901 25.7105 6.15035 25.5436 5.8728 25.4431C5.59526 25.3427 5.29729 25.3118 5.00505 25.3532C4.54523 25.401 4.07678 25.3611 3.61175 25.3637C3.51979 25.3637 3.42693 25.3784 3.33843 25.3862V26.9991Z" fill="#566DED"/>
<path d="M32.2819 7.43818V8.36473C32.2689 8.47578 32.2567 8.586 32.2437 8.69791C32.0653 10.4098 31.3344 12.017 30.1616 13.2767C28.9888 14.5364 27.4377 15.3801 25.7429 15.6802C25.4454 15.7323 25.1443 15.7626 24.845 15.8025H23.9193C23.6547 15.7696 23.3883 15.7461 23.1263 15.7019C21.4779 15.426 20.0386 14.7163 18.8552 13.5329C17.0801 11.7587 16.2984 9.60279 16.5257 7.10589C16.6699 5.44685 17.3586 3.88206 18.4847 2.65522C19.9744 1.00161 21.8414 0.112339 24.065 0.00909651C25.5908 -0.0737306 27.1056 0.31061 28.4073 1.1109C30.4574 2.36108 31.7162 4.17349 32.1587 6.54112C32.2142 6.83783 32.242 7.13974 32.2819 7.43818ZM24.3773 0.987709C23.0102 0.988396 21.674 1.39437 20.5376 2.15433C19.4011 2.91428 18.5156 3.9941 17.9927 5.25729C17.4698 6.52047 17.3332 7.91031 17.6001 9.25112C17.867 10.5919 18.5254 11.8235 19.4921 12.7902C20.4588 13.7569 21.6904 14.4153 23.0312 14.6822C24.372 14.9491 25.7618 14.8125 27.025 14.2896C28.2882 13.7668 29.368 12.8811 30.1279 11.7447C30.8879 10.6083 31.2939 9.27205 31.2946 7.90493C31.2923 6.07108 30.5628 4.31301 29.266 3.01627C27.9693 1.71954 26.2112 0.990005 24.3773 0.987709Z" fill="#566DED"/>
<path d="M22.7896 9.35762C24.0939 8.05243 25.3408 6.80475 26.5885 5.55792C26.6696 5.47184 26.7555 5.39044 26.8459 5.31418C26.9487 5.22986 27.079 5.18634 27.2118 5.19188C27.3447 5.19741 27.4708 5.25165 27.5662 5.34422C27.6617 5.4368 27.7197 5.56126 27.7293 5.69388C27.7389 5.8265 27.6993 5.95802 27.6182 6.06336C27.5584 6.13858 27.493 6.20915 27.4225 6.27445C26.0684 7.62855 24.7146 8.98233 23.3611 10.3359C22.9226 10.7735 22.7046 10.771 22.2593 10.3256C21.9795 10.0459 21.6981 9.7678 21.42 9.48634C21.142 9.20488 21.1025 8.88052 21.3342 8.64025C21.5779 8.38282 21.8928 8.41029 22.2018 8.72007C22.3966 8.91744 22.5768 9.12679 22.7896 9.35762Z" fill="#566DED"/>
<path d="M32.6913 22.9131C32.0979 22.3292 31.5114 21.7366 30.9232 21.1458C30.8686 21.0911 30.826 21.0243 30.7497 20.9289C31.0837 20.9289 31.3657 20.9367 31.6459 20.9289C32.0556 20.915 32.4457 20.7502 32.7411 20.4661C33.0366 20.1819 33.2166 19.7987 33.2466 19.3898C33.3021 18.5439 32.7191 17.7145 31.8793 17.6547C30.977 17.5887 30.0062 17.3666 29.228 18.1752C29.1733 18.0225 29.1317 17.9149 29.0943 17.8021C28.9787 17.4655 28.8665 17.1286 28.7577 16.7914C28.428 16.9632 28.0884 17.1156 27.7409 17.2478C27.9971 18.0165 28.2534 18.7854 28.5096 19.5547C28.5356 19.6345 28.5521 19.7178 28.5782 19.8149H4.67367C4.69709 19.723 4.71273 19.6414 4.73789 19.5642C5.18903 18.2116 5.63754 16.8573 6.09302 15.5065C6.36631 14.6962 6.91899 14.2919 7.77095 14.2919C10.8543 14.2919 13.9377 14.2919 17.0211 14.2919C16.7407 13.94 16.4861 13.5683 16.2594 13.1797C13.4102 13.1797 10.5611 13.1817 7.71194 13.1857C6.43226 13.1857 5.46749 13.9102 5.05019 15.1283C4.74306 16.0271 4.44809 16.9311 4.14617 17.8325C4.11147 17.9375 4.06635 18.039 4.0143 18.1726C3.57357 17.7197 3.0704 17.5801 2.50213 17.6113C2.21063 17.6278 1.91737 17.6113 1.62587 17.6174C0.946551 17.6408 0.463314 17.9739 0.15619 18.5717C0.0989297 18.6845 0.0520549 18.8016 0 18.9187V19.5686C0.244658 20.3607 0.732254 20.8699 1.59897 20.9298C1.88353 20.948 2.17156 20.9298 2.56284 20.9298C2.29649 21.1901 2.09781 21.3809 1.90347 21.5744C1.53648 21.9388 1.17993 22.3145 0.803402 22.6684C0.445959 23.0059 0.138813 23.3694 0 23.8518V31.7746C0.187398 32.2951 0.463287 32.7436 0.995982 32.9892C1.06018 33.0187 1.09924 33.1627 1.10185 33.2538C1.11226 33.7301 1.10185 34.2081 1.10706 34.6818C1.11226 35.7498 1.80894 36.4474 2.8778 36.45C4.09242 36.45 5.3044 36.45 6.51381 36.45C7.62518 36.45 8.3097 35.7602 8.3123 34.6463C8.3123 34.1509 8.3123 33.6564 8.3123 33.1514H24.9369C24.9369 33.6893 24.9369 34.2073 24.9369 34.7243C24.9438 35.7342 25.6457 36.4439 26.6504 36.4491C27.9055 36.4549 29.1609 36.4549 30.4166 36.4491C31.4256 36.4447 32.1309 35.7394 32.1413 34.733C32.1465 34.2359 32.1326 33.737 32.15 33.2399C32.1564 33.1824 32.1753 33.1269 32.2052 33.0773C32.2352 33.0277 32.2755 32.9852 32.3235 32.9527C32.9473 32.5988 33.2509 32.0721 33.25 31.3581C33.25 28.9994 33.25 26.6402 33.25 24.2804C33.258 24.0261 33.2124 23.7728 33.1161 23.5373C33.0199 23.3017 32.8752 23.089 32.6913 22.9131ZM29.9316 19.3057C29.9454 18.9317 30.145 18.7287 30.5198 18.72C30.8668 18.712 31.2139 18.712 31.5609 18.72C31.9079 18.7287 32.1526 18.9708 32.1448 19.2814C32.1426 19.3547 32.126 19.4269 32.0959 19.4938C32.0657 19.5607 32.0226 19.621 31.9691 19.6711C31.9155 19.7213 31.8526 19.7604 31.7838 19.7861C31.7151 19.8118 31.642 19.8237 31.5687 19.821C31.0403 19.8305 30.512 19.821 29.9342 19.821C29.9307 19.6258 29.9263 19.4662 29.9316 19.3057ZM1.6085 19.8141C1.4715 19.8044 1.34341 19.7426 1.25049 19.6414C1.15758 19.5403 1.1069 19.4075 1.10879 19.2701C1.10896 19.1277 1.16459 18.991 1.26388 18.889C1.36317 18.7869 1.49829 18.7276 1.64061 18.7235C2.01801 18.7096 2.39715 18.7105 2.77541 18.7235C2.84606 18.7218 2.91636 18.7343 2.9821 18.7602C3.04784 18.7862 3.10766 18.825 3.15807 18.8745C3.20849 18.9241 3.24847 18.9832 3.27559 19.0485C3.3027 19.1137 3.3164 19.1838 3.31591 19.2545C3.32632 19.4341 3.31591 19.6145 3.31591 19.821C2.72683 19.8201 2.16722 19.8367 1.6085 19.8141ZM7.1836 34.8848C7.16625 35.172 6.93373 35.3386 6.63789 35.3394C5.35155 35.3458 4.06491 35.3458 2.778 35.3394C2.70696 35.3432 2.63593 35.3326 2.56911 35.3082C2.50229 35.2838 2.44108 35.2462 2.38915 35.1976C2.33722 35.149 2.29563 35.0903 2.26689 35.0253C2.23816 34.9602 2.22286 34.89 2.22191 34.8189C2.20369 34.2706 2.2167 33.7205 2.2167 33.1418H7.19402C7.19402 33.7266 7.21917 34.307 7.1836 34.8848ZM31.0247 34.8354C31.0134 35.1399 30.7757 35.3377 30.4521 35.3394C29.1796 35.3464 27.9038 35.3464 26.6244 35.3394C26.2773 35.3394 26.0561 35.1173 26.0483 34.7686C26.0361 34.2402 26.0483 33.711 26.0483 33.1453H31.0342C31.0308 33.7179 31.0464 34.2775 31.0247 34.8354ZM32.1439 31.2662C32.1439 31.8379 31.96 32.021 31.383 32.0218H1.96595C1.25193 32.0218 1.10617 31.8778 1.10617 31.1698C1.10617 28.9081 1.11137 26.6463 1.10096 24.3836C1.09567 24.2391 1.12197 24.0951 1.17801 23.9618C1.23405 23.8284 1.3185 23.7088 1.42545 23.6115C2.26006 22.7933 3.07387 21.9561 3.91369 21.1415C4.04169 21.0208 4.20824 20.9492 4.38391 20.9393C12.5444 20.9301 20.7048 20.9301 28.8653 20.9393C29.041 20.9485 29.2079 21.0195 29.3364 21.1397C30.1814 21.9622 31.0065 22.8055 31.8472 23.6331C31.9459 23.7239 32.024 23.8349 32.0759 23.9586C32.1279 24.0823 32.1526 24.2157 32.1482 24.3498C32.1378 26.655 32.1448 28.961 32.1439 31.2662Z" fill="#566DED"/>
</g>
<defs>
<clipPath id="clip0_3458_16669">
<rect width="33.2527" height="36.4532" fill="white"/>
</clipPath>
</defs>
</svg>
