<svg width="22" height="21" viewBox="0 0 22 21" fill="none" xmlns="http://www.w3.org/2000/svg">
    <path fill-rule="evenodd" clip-rule="evenodd"
          d="M18.0014 3.05161C16.0208 1.08473 13.3867 0.000997909 10.5801 0C4.79679 0 0.0900499 4.66772 0.0880376 10.4052C0.0870315 12.2394 0.570484 14.0296 1.48859 15.6073L0 21L5.56196 19.553C7.09432 20.3823 8.81986 20.8189 10.5756 20.8194H10.5801C10.5796 20.8194 10.5806 20.8194 10.5801 20.8194C16.3624 20.8194 21.0697 16.1512 21.0717 10.4137C21.0727 7.63301 19.9825 5.01848 18.0014 3.05161ZM10.5801 19.0621H10.5766C9.01203 19.0616 7.47716 18.6444 6.13798 17.8566L5.81954 17.669L2.51888 18.5277L3.39976 15.3359L3.1925 15.0086C2.31967 13.6314 1.85835 12.0398 1.85935 10.4057C1.86137 5.63719 5.77325 1.75732 10.5836 1.75732C12.9129 1.75832 15.1022 2.65893 16.7488 4.294C18.3953 5.92858 19.3014 8.10202 19.3004 10.4127C19.2983 15.1817 15.3865 19.0621 10.5801 19.0621ZM15.3633 12.5841C15.1012 12.4539 13.8123 11.8252 13.5719 11.7384C13.3314 11.6516 13.1568 11.6082 12.9823 11.8686C12.8077 12.1291 12.3051 12.7149 12.1522 12.888C11.9993 13.0616 11.8463 13.0831 11.5842 12.9529C11.3221 12.8226 10.4775 12.5482 9.47587 11.6626C8.69661 10.973 8.17039 10.1218 8.01746 9.86134C7.86453 9.60088 8.00136 9.46018 8.13216 9.33095C8.24988 9.21419 8.39426 9.02709 8.52556 8.8754C8.65686 8.72372 8.70013 8.61495 8.78766 8.44181C8.8752 8.26818 8.83143 8.11649 8.76603 7.98627C8.70063 7.85604 8.17643 6.57622 7.95759 6.05581C7.74479 5.54887 7.52847 5.61773 7.36799 5.60925C7.21506 5.60176 7.04049 5.60027 6.86542 5.60027C6.69086 5.60027 6.40662 5.66513 6.16615 5.92558C5.92569 6.18604 5.24855 6.81522 5.24855 8.09454C5.24855 9.37436 6.18779 10.6108 6.31909 10.7844C6.45039 10.958 8.16788 13.584 10.7974 14.7107C11.4228 14.9786 11.9112 15.1388 12.2921 15.2585C12.9199 15.4566 13.4914 15.4287 13.9431 15.3618C14.4467 15.287 15.4941 14.7326 15.7124 14.1254C15.9308 13.5182 15.9308 12.9973 15.8654 12.889C15.8 12.7797 15.6254 12.7144 15.3633 12.5841Z"
          fill="white"/>
</svg>
