<svg width="22" height="22" viewBox="0 0 22 22" fill="none" xmlns="http://www.w3.org/2000/svg">
    <path fill-rule="evenodd" clip-rule="evenodd"
          d="M18.465 3.75864C16.4845 1.79176 13.8504 0.708029 11.0437 0.707031C5.26042 0.707031 0.553673 5.37475 0.551661 11.1122C0.550655 12.9464 1.03411 14.7366 1.95221 16.3143L0.463623 21.707L6.02559 20.2601C7.55795 21.0893 9.28348 21.5259 11.0392 21.5264H11.0437C11.0432 21.5264 11.0442 21.5264 11.0437 21.5264C16.826 21.5264 21.5333 16.8582 21.5353 11.1207C21.5363 8.34004 20.4461 5.72552 18.465 3.75864ZM11.0437 19.7691H11.0402C9.47566 19.7686 7.94078 19.3515 6.60161 18.5636L6.28316 18.376L2.98251 19.2347L3.86338 16.0429L3.65612 15.7156C2.78329 14.3385 2.32197 12.7468 2.32298 11.1127C2.32499 6.34422 6.23688 2.46435 11.0473 2.46435C13.3765 2.46535 15.5658 3.36596 17.2124 5.00103C18.859 6.63561 19.765 8.80906 19.764 11.1197C19.762 15.8887 15.8501 19.7691 11.0437 19.7691ZM15.8269 13.2912C15.5648 13.1609 14.276 12.5323 14.0355 12.4454C13.795 12.3586 13.6205 12.3152 13.4459 12.5757C13.2713 12.8361 12.7688 13.4219 12.6158 13.595C12.4629 13.7687 12.31 13.7901 12.0479 13.6599C11.7858 13.5297 10.9411 13.2552 9.93949 12.3696C9.16023 11.68 8.63402 10.8288 8.48108 10.5684C8.32815 10.3079 8.46498 10.1672 8.59578 10.038C8.7135 9.92122 8.85788 9.73412 8.98919 9.58243C9.12049 9.43075 9.16375 9.32198 9.25129 9.14884C9.33882 8.97521 9.29505 8.82352 9.22965 8.6933C9.16426 8.56307 8.64005 7.28325 8.42122 6.76284C8.20842 6.2559 7.9921 6.32476 7.83162 6.31628C7.67868 6.30879 7.50412 6.3073 7.32905 6.3073C7.15448 6.3073 6.87025 6.37216 6.62978 6.63262C6.38931 6.89307 5.71217 7.52225 5.71217 8.80157C5.71217 10.0814 6.65141 11.3178 6.78271 11.4914C6.91401 11.6651 8.6315 14.2911 11.2611 15.4177C11.8864 15.6856 12.3749 15.8458 12.7557 15.9656C13.3835 16.1636 13.955 16.1357 14.4068 16.0688C14.9103 15.994 15.9577 15.4397 16.1761 14.8324C16.3944 14.2252 16.3944 13.7043 16.329 13.596C16.2636 13.4868 16.089 13.4214 15.8269 13.2912Z"
          fill="#0052CB"/>
</svg>
