<svg  viewBox="0 0 50 50" fill="none" xmlns="http://www.w3.org/2000/svg">
<path d="M23.8596 18.0938C25.1869 16.7657 26.4557 15.496 27.7253 14.2273C27.8079 14.1397 27.8953 14.0568 27.9873 13.9792C28.0919 13.8934 28.2245 13.8491 28.3597 13.8548C28.4949 13.8604 28.6232 13.9156 28.7203 14.0098C28.8175 14.104 28.8765 14.2307 28.8863 14.3656C28.896 14.5006 28.8558 14.6344 28.7732 14.7416C28.7124 14.8181 28.6458 14.8899 28.5741 14.9564C27.1962 16.3343 25.8186 17.7119 24.4412 19.0893C23.995 19.5346 23.7732 19.532 23.32 19.0788C23.0353 18.7942 22.7489 18.5112 22.466 18.2248C22.1831 17.9384 22.1429 17.6083 22.3787 17.3638C22.6267 17.1019 22.9471 17.1298 23.2615 17.4451C23.4597 17.6459 23.6431 17.8589 23.8596 18.0938Z" fill="#566DED"/>
<path d="M25.2734 25.8654C23.8902 25.8654 22.507 25.8654 21.1239 25.8654C20.9934 25.8707 20.8627 25.8637 20.7335 25.8445C20.6077 25.828 20.4926 25.7652 20.4107 25.6683C20.3288 25.5713 20.286 25.4473 20.2908 25.3205C20.2816 25.1988 20.3169 25.0779 20.3901 24.9803C20.4634 24.8826 20.5696 24.8149 20.689 24.7896C20.8162 24.7616 20.9464 24.7493 21.0767 24.753C23.8983 24.753 26.7191 24.753 29.539 24.753C29.6585 24.7494 29.778 24.759 29.8953 24.7818C30.1791 24.8455 30.3162 25.0437 30.3258 25.3223C30.328 25.4551 30.2798 25.5837 30.1908 25.6823C30.1018 25.7808 29.9787 25.8419 29.8464 25.8532C29.6513 25.8698 29.4553 25.875 29.2596 25.8689C27.9305 25.8677 26.6018 25.8666 25.2734 25.8654Z" fill="#566DED"/>
<path d="M42.0451 26.2907V25.7021C41.7421 24.9477 41.164 24.6945 40.386 24.7416C39.8437 24.7757 39.298 24.7486 38.7042 24.7486C38.7042 24.312 38.6885 23.8876 38.7042 23.4685C38.7418 22.6267 38.4999 21.9482 37.6991 21.5422C37.6249 21.5038 37.5908 21.3239 37.59 21.2095C37.5847 18.5194 37.5833 15.829 37.5856 13.1384C37.5856 13.0292 37.5856 12.921 37.5856 12.8118C37.5629 11.8888 36.9621 11.2479 36.047 11.1195C33.1907 10.7187 30.3458 10.2507 27.5934 9.35388C26.9263 9.13645 26.2836 8.83605 25.6339 8.57408H24.9808C24.2665 8.85788 23.5662 9.18532 22.8353 9.41672C20.172 10.2655 17.4214 10.7161 14.6629 11.1116C13.5679 11.2688 13.0291 11.8705 13.0283 12.9768C13.0283 15.7129 13.0283 18.4472 13.0283 21.1798C13.0283 21.3964 12.9575 21.5029 12.7811 21.6434C12.4886 21.8774 12.2407 22.1623 12.0494 22.4844C11.9271 22.6922 11.9254 22.9856 11.9149 23.2432C11.8957 23.7383 11.9097 24.2352 11.9097 24.7495C11.1919 24.7495 10.5274 24.7329 9.86372 24.7538C8.79403 24.7862 8.2474 25.7764 8.77919 26.7002C9.00797 27.0967 9.24202 27.4861 9.4874 27.8747C9.53647 27.9384 9.56304 28.0166 9.56304 28.097C9.56304 28.1774 9.53647 28.2555 9.4874 28.3192C9.25425 28.6868 9.04466 29.0693 8.81326 29.4386C8.53732 29.8752 8.47357 30.3337 8.73378 30.7973C8.994 31.261 9.43238 31.4523 9.96417 31.4497C10.9666 31.4435 11.9726 31.4497 12.9715 31.4497H13.3714C14.0395 33.6432 14.8559 35.1102 16.2617 36.6252C18.5321 39.0702 21.3447 40.6873 24.4385 41.8583C25.0108 42.0823 25.6472 42.078 26.2164 41.8461C28.0769 41.1607 29.8436 40.2435 31.4749 39.1164C33.6143 37.618 35.4043 35.8078 36.522 33.4082C36.8128 32.7821 37.025 32.1194 37.2826 31.4497C38.3182 31.4497 39.3783 31.4235 40.4306 31.4584C41.2077 31.4837 41.7587 31.2183 42.0425 30.4743V29.9504C41.7404 29.4116 41.4444 28.8684 41.1309 28.3358C41.0807 28.2669 41.0537 28.1839 41.0537 28.0987C41.0537 28.0135 41.0807 27.9305 41.1309 27.8616C41.447 27.3386 41.7421 26.8146 42.0451 26.2907ZM14.5948 12.6179C18.1374 12.0556 21.6599 11.4033 25.0358 10.152C25.1845 10.1041 25.3447 10.1056 25.4925 10.1564C28.7434 11.3474 32.1237 12.0111 35.5344 12.5524C36.3692 12.6852 36.3719 12.6677 36.3719 13.5086V21.4007H14.1547V21.0113C14.1547 18.375 14.1617 15.7397 14.146 13.1034C14.1442 12.7559 14.2647 12.6686 14.5948 12.6136V12.6179ZM11.5962 30.3346C11.0723 30.3346 10.5483 30.3346 10.0244 30.3346C9.64893 30.3346 9.61663 30.2708 9.8131 29.9407C10.041 29.5565 10.2715 29.1749 10.5012 28.7925C10.637 28.5862 10.7094 28.3447 10.7094 28.0978C10.7094 27.8509 10.637 27.6094 10.5012 27.4032C10.2602 27.0015 10.0227 26.5981 9.77729 26.1999C9.65067 25.9947 9.66291 25.8716 9.93709 25.8707C10.5789 25.8707 11.2207 25.8707 11.9114 25.8707C11.9114 26.3946 11.9175 26.8714 11.9114 27.3482C11.8983 28.114 12.1926 28.6955 12.8903 29.0553C12.9306 29.0767 12.9661 29.1062 12.9945 29.142C13.0229 29.1778 13.0436 29.219 13.0553 29.2631C13.0964 29.6063 13.1121 29.953 13.1427 30.3346H11.5962ZM35.2847 32.9114C34.0867 35.3049 32.2285 37.0539 30.0742 38.5157C28.6869 39.4538 27.2026 40.2399 25.647 40.8603C25.4006 40.9481 25.131 40.9453 24.8865 40.8524C22.0581 39.6875 19.4569 38.1454 17.3245 35.8751C15.6785 34.1199 14.5607 32.0827 14.242 29.6351C14.228 29.5251 14.2149 29.4142 14.2062 29.3041C14.201 29.2369 14.2062 29.1688 14.2062 29.0728H36.3343C36.2444 30.4082 35.8875 31.712 35.2847 32.907V32.9114ZM36.8137 28.1035H13.8761C13.1889 28.1035 13.0309 27.9454 13.0309 27.2556C13.0309 25.9271 13.0309 24.5987 13.0309 23.2703C13.0309 22.7105 13.2212 22.5158 13.7713 22.5149C21.462 22.5149 29.1519 22.5149 36.8408 22.5149C37.3988 22.5149 37.5882 22.7062 37.5882 23.2633C37.5882 24.6249 37.5882 25.9863 37.5882 27.3473C37.5865 27.914 37.397 28.0991 36.8137 28.0991V28.1035ZM40.7239 30.3311C39.6481 30.338 38.5724 30.3311 37.4747 30.3311C37.5044 29.9416 37.521 29.5854 37.562 29.2317C37.5708 29.1601 37.6712 29.0806 37.7489 29.0396C38.389 28.699 38.692 28.1603 38.699 27.4469C38.7033 26.9369 38.699 26.426 38.699 25.8689C39.3975 25.8689 40.0507 25.8689 40.7074 25.8689C40.9361 25.8689 40.9623 25.9886 40.8549 26.1667C40.613 26.5675 40.3773 26.9727 40.131 27.37C39.8315 27.8537 39.8306 28.3305 40.131 28.8152C40.3764 29.2134 40.6122 29.6176 40.8541 30.0184C40.9458 30.1809 40.9676 30.325 40.7239 30.3267V30.3311Z" fill="#566DED"/>
</svg>
