<svg viewBox="0 0 50 50" fill="none" xmlns="http://www.w3.org/2000/svg">
<path d="M32.4857 7.85713C33.1877 8.07633 33.7058 8.48302 33.867 9.24024C33.8965 9.39515 33.9102 9.55265 33.9078 9.71032C33.9078 11.6988 33.9078 13.6873 33.9078 15.6757C33.9078 16.8306 33.1832 17.5461 32.0175 17.5497C31.7032 17.5497 31.3889 17.5497 30.974 17.5497C31.1289 17.9519 31.2458 18.2997 31.3952 18.6312C31.5058 18.8712 31.5764 19.0913 31.417 19.3323C31.2576 19.5732 31.0248 19.6149 30.7621 19.5832C29.6752 19.4536 28.86 18.9165 28.3591 17.9338C28.2975 17.8133 28.2459 17.6883 28.1825 17.5497C27.0086 17.5497 25.8344 17.5497 24.66 17.5497C23.3919 17.5497 22.7044 16.8677 22.7035 15.6114C22.7035 13.7582 22.737 11.905 22.6899 10.0527C22.6618 8.97124 23.0233 8.21672 24.0758 7.85713H32.4857ZM29.898 18.0271C29.898 17.6648 29.8844 17.345 29.898 17.0307C29.9215 16.5869 30.1217 16.4012 30.5601 16.3967C31.0456 16.3913 31.532 16.3967 32.0175 16.3967C32.5473 16.3967 32.7502 16.1884 32.7512 15.6513C32.7512 13.6858 32.7512 11.7202 32.7512 9.75473C32.7512 9.21942 32.5473 9.01561 32.0138 9.01561C29.5381 9.01561 27.0623 9.01561 24.5866 9.01561C24.0504 9.01561 23.8556 9.21127 23.8556 9.75291C23.8556 11.7184 23.8556 13.6842 23.8556 15.6503C23.8556 16.2074 24.0495 16.3958 24.6147 16.3967C25.8912 16.3967 27.1677 16.3967 28.4443 16.3967C28.9651 16.3967 29.091 16.4972 29.2323 16.9945C29.3509 17.3867 29.5248 17.7445 29.898 18.0271V18.0271Z" fill="#566DED"/>
<path d="M42.5896 42.1639C42.432 42.413 42.2436 42.6167 41.9103 42.5597C41.6249 42.5107 41.4492 42.278 41.4347 41.9465C41.4166 41.5189 41.4347 41.0851 41.3722 40.6648C41.2318 39.7735 40.7536 39.0562 39.9366 38.693C38.9321 38.2473 37.8741 37.924 36.9276 37.5798C36.4267 38.1006 36.0264 38.6151 35.5328 39.0127C33.8761 40.346 31.4351 40.4665 29.6245 39.3542C29.2341 39.1142 29.1181 38.7962 29.3074 38.4837C29.4967 38.1712 29.8255 38.1341 30.225 38.3651C32.0528 39.4212 34.3091 38.9991 35.5473 37.3751C35.6279 37.2691 35.6985 37.1559 35.7791 37.0381C35.5772 36.8443 35.3806 36.6758 35.2067 36.4865C34.9349 36.1885 34.9349 35.8525 35.1913 35.6179C35.4476 35.3833 35.7628 35.4014 36.0309 35.6858C36.4252 36.0925 36.9164 36.392 37.4584 36.5563C38.2736 36.8235 39.0834 37.0997 39.8868 37.3968C41.3514 37.9403 42.2345 38.981 42.5316 40.5172C42.5466 40.5703 42.566 40.6221 42.5896 40.6721V42.1639Z" fill="#566DED"/>
<path d="M20.5714 21.1574C20.1266 21.1574 19.7906 21.1574 19.4546 21.1574C18.3541 21.1465 17.6385 20.4264 17.6349 19.3223C17.6349 18.1928 17.6349 17.0633 17.6349 15.9375C15.5145 15.6295 13.5716 16.4411 12.626 18.3966C12.4358 18.7897 12.2275 19.0307 11.7574 19.0596C11.2194 19.0959 10.8452 19.5941 10.8434 20.1837C10.838 21.7661 10.8434 23.3475 10.8434 24.9299C10.8434 25.3701 10.8434 25.8112 10.8434 26.2514C10.8434 26.5576 10.9558 26.8121 11.2647 27.0385C11.2647 26.6934 11.2601 26.4045 11.2647 26.1174C11.2819 25.2034 11.2329 24.2814 11.3371 23.3774C11.5182 21.7643 12.9593 20.4735 14.5852 20.3938C15.375 20.3549 16.1675 20.3694 16.9583 20.3748C17.3505 20.3748 17.5778 20.6013 17.5805 20.9409C17.5833 21.2806 17.3568 21.5161 16.97 21.5242C16.3143 21.5387 15.6594 21.5242 15.0036 21.5306C13.4367 21.5405 12.4222 22.5595 12.4195 24.1274C12.4195 25.4045 12.4195 26.6813 12.4195 27.9579C12.4286 30.9025 14.4584 33.2439 17.3659 33.6642C20.4219 34.1089 23.477 31.6923 23.6618 28.6082C23.7524 27.043 23.7026 25.4688 23.7044 23.8982C23.6896 23.6845 23.6569 23.4724 23.6066 23.2642C23.5423 22.891 23.6972 22.613 24.0305 22.5278C24.343 22.4472 24.6419 22.6347 24.7325 23.0015C24.8071 23.2737 24.85 23.5537 24.8601 23.8357C24.8601 25.4516 24.91 27.0702 24.8158 28.6807C24.6401 31.6751 22.171 34.3037 19.2073 34.7665C18.2225 34.9236 17.2158 34.873 16.2517 34.618C16.0045 35.5989 15.5027 36.4078 14.6757 37.0219C15.2192 37.9077 15.9664 38.4901 16.9401 38.7682C18.1439 39.1114 19.2888 38.9584 20.3513 38.2836C20.5768 38.1405 20.8041 38.0671 21.0496 38.1984C21.4599 38.414 21.4572 38.9375 21.0333 39.221C20.0912 39.8634 18.9596 40.1683 17.8224 40.0861C16.0878 39.971 14.7247 39.1966 13.7464 37.7437C13.7058 37.7019 13.6557 37.6706 13.6003 37.6523C13.545 37.634 13.486 37.6293 13.4285 37.6387C12.5608 37.9231 11.6922 38.2093 10.8371 38.5308C10.3053 38.7327 9.84729 39.0914 9.5238 39.5593C9.2003 40.0272 9.02655 40.5824 9.02558 41.1512C9.02105 41.4456 9.03646 41.74 9.01744 42.0325C9.00747 42.1751 8.94441 42.3088 8.84071 42.4072C8.73702 42.5056 8.6002 42.5616 8.45727 42.5641C8.31434 42.5666 8.17567 42.5155 8.0686 42.4208C7.96153 42.326 7.89383 42.1947 7.87887 42.0525C7.78376 40.7264 7.9758 39.4819 8.93138 38.4602C9.41398 37.9485 10.0177 37.5666 10.6867 37.3497C11.5019 37.078 12.309 36.7954 13.1205 36.5201C14.1214 36.1795 14.7917 35.5237 15.0833 34.4939C15.1422 34.2846 15.1123 34.1832 14.9085 34.07C12.8099 32.9015 11.5934 31.128 11.3135 28.735C11.28 28.4533 11.1967 28.2984 10.915 28.168C10.1487 27.8111 9.70127 27.1807 9.69402 26.3239C9.6741 24.2346 9.6741 22.1444 9.69402 20.0532C9.70218 19.0651 10.3715 18.249 11.3244 17.9501C11.4672 17.9033 11.5897 17.809 11.6713 17.6829C12.7827 15.7373 14.4674 14.7699 16.6938 14.7183C16.9963 14.7111 17.2988 14.7183 17.6367 14.7183C17.6367 14.2247 17.6367 13.7645 17.6367 13.3044C17.6421 12.2093 18.3613 11.4793 19.4618 11.4648C20.0488 11.4576 20.6393 11.4594 21.2244 11.4648C21.6773 11.4648 21.9336 11.693 21.9228 12.0653C21.9128 12.4276 21.6728 12.617 21.2199 12.6206C20.6556 12.6251 20.0904 12.6206 19.5252 12.6206C18.9917 12.6206 18.7924 12.828 18.7924 13.366C18.7924 15.3321 18.7924 17.2982 18.7924 19.2643C18.7924 19.7987 18.9908 19.9889 19.5324 19.9944C20.0071 19.9944 20.4817 19.9944 20.9563 19.9944C21.4155 19.9998 21.6221 20.19 21.6456 20.6456C21.6619 20.9572 21.6456 21.2697 21.6456 21.6239C22.0197 21.3612 22.1891 21.0025 22.3005 20.6148C22.4535 20.0986 22.5794 19.9944 23.1102 19.9935C24.3982 19.9935 25.6865 19.9935 26.9751 19.9935C27.3863 19.9935 27.63 20.1746 27.6734 20.488C27.7251 20.8694 27.4751 21.1438 27.0476 21.1465C25.929 21.1529 24.8104 21.1574 23.6963 21.142C23.4436 21.142 23.3285 21.2154 23.2226 21.4463C22.7398 22.5016 21.901 23.0722 20.748 23.1872C20.4944 23.2135 20.277 23.1655 20.1275 22.9372C19.9781 22.709 20.0306 22.4998 20.1375 22.267C20.2906 21.9355 20.4102 21.5768 20.5714 21.1574Z" fill="#566DED"/>
<path d="M35.5418 22.1248C34.0685 23.1452 32.4053 23.8592 30.6507 24.2243C30.0882 24.3394 29.5149 24.4055 28.9433 24.4689C28.5611 24.5078 28.3093 24.2814 28.2821 23.9499C28.255 23.6184 28.4832 23.3575 28.8564 23.3249C31.2224 23.1294 33.4831 22.261 35.3716 20.8223C35.7701 20.5234 36.1523 20.6411 36.3461 21.1094C36.7863 22.1746 37.5382 22.9001 38.6414 23.2525C38.9457 23.3494 39.1241 23.5477 39.1214 23.8702C39.1078 25.5069 39.1612 27.149 39.0544 28.7803C38.8587 31.7458 36.2646 34.396 33.3146 34.7792C32.4517 34.9008 31.5736 34.8578 30.7268 34.6524C30.6522 34.6383 30.5769 34.6283 30.5013 34.6225C30.4623 34.742 30.4243 34.8562 30.3862 34.9694C29.9913 36.1469 29.235 36.9983 28.0847 37.4829C27.6363 37.6722 27.3112 37.5735 27.1708 37.2193C27.0376 36.886 27.2006 36.5998 27.63 36.4186C28.5258 36.04 29.0674 35.3607 29.3355 34.4395C29.3881 34.2584 29.3355 34.1841 29.1843 34.0618C28.4742 33.4803 27.6137 33.5184 26.7822 33.4205C26.4462 33.3816 26.1083 33.3535 25.7741 33.2992C25.4226 33.2421 25.2107 32.9731 25.2487 32.6651C25.2904 32.3336 25.5666 32.1217 25.9317 32.1597C26.2677 32.1914 26.6028 32.2331 26.9869 32.2757C26.7731 31.9351 26.563 31.6416 26.4009 31.33C26.2117 30.9586 26.0438 30.5766 25.8981 30.1861C25.7568 29.8111 25.8981 29.5013 26.2242 29.3817C26.5503 29.2622 26.8519 29.4288 26.9842 29.8092C27.4371 31.1054 28.226 32.1325 29.3935 32.8544C32.9079 35.0283 37.5617 32.7204 37.9077 28.5973C38.0236 27.217 37.9557 25.8212 37.9621 24.4308C37.9611 24.3841 37.9495 24.3382 37.9281 24.2966C37.9068 24.255 37.8762 24.2188 37.8388 24.1908C36.8687 23.7705 36.0623 23.0451 35.5418 22.1248Z" fill="#566DED"/>
<path d="M40.7046 26.2305C40.7046 27.9144 40.7137 29.5973 40.7046 31.2802C40.7049 31.7652 40.5341 32.2347 40.2223 32.6061C39.9105 32.9776 39.4777 33.2271 39 33.3109C38.6377 33.3779 38.3388 33.2013 38.2663 32.8825C38.1939 32.5636 38.3786 32.2955 38.7147 32.1941C39.3623 31.9984 39.5525 31.7467 39.5525 31.0701C39.5525 27.9406 39.5707 24.8112 39.5471 21.6827C39.529 19.1656 38.3587 17.3667 36.0599 16.3169C35.646 16.1285 35.4911 15.8251 35.6432 15.49C35.7882 15.1703 36.1143 15.0706 36.5128 15.2536C39.1504 16.4637 40.5751 18.5207 40.6947 21.4191C40.7608 23.0205 40.7065 24.6264 40.7065 26.2305H40.7046Z" fill="#566DED"/>
<path d="M28.3419 41.4411C28.3419 41.6223 28.3519 41.8034 28.3419 41.9846C28.3183 42.3315 28.0702 42.5715 27.7595 42.5688C27.4488 42.566 27.207 42.3287 27.1916 41.9764C27.1744 41.5824 27.2025 41.182 27.1463 40.7934C26.9806 39.6531 26.3311 38.8832 25.2505 38.4919C24.4127 38.1894 23.5686 37.9041 22.7244 37.6206C22.0534 37.4088 21.4472 37.0302 20.9627 36.5201C20.6773 36.2139 20.6583 35.8589 20.9129 35.6224C21.1674 35.386 21.4916 35.4032 21.7787 35.7058C22.1495 36.0884 22.61 36.3724 23.1184 36.5318C23.8774 36.7864 24.6346 37.0481 25.3918 37.3072C27.3447 37.9756 28.3428 39.3732 28.3419 41.4411Z" fill="#566DED"/>
<path d="M26.5259 24.1464C26.5259 24.7116 26.5259 25.2768 26.5259 25.8411C26.5259 26.2523 26.3076 26.4977 25.9616 26.5023C25.6156 26.5068 25.3756 26.255 25.3738 25.8574C25.3683 24.7052 25.3683 23.5528 25.3738 22.4001C25.3738 22.0287 25.621 21.7724 25.9434 21.766C26.2795 21.7597 26.5214 22.0224 26.525 22.4173C26.5304 22.9942 26.5259 23.5703 26.5259 24.1464Z" fill="#566DED"/>
<path d="M30.2494 12.6767C30.2515 12.7528 30.2385 12.8286 30.2111 12.8997C30.1838 12.9708 30.1427 13.0357 30.0902 13.0908C30.0377 13.146 29.9748 13.1902 29.9051 13.2209C29.8354 13.2516 29.7604 13.2684 29.6843 13.27C29.5308 13.2672 29.3843 13.2053 29.2755 13.0971C29.1666 12.9889 29.1037 12.8428 29.1 12.6894C29.1031 12.5418 29.1624 12.4008 29.2657 12.2953C29.369 12.1898 29.5086 12.1277 29.6562 12.1215C29.7321 12.1169 29.8081 12.1279 29.8796 12.1537C29.9511 12.1795 30.0167 12.2196 30.0722 12.2715C30.1277 12.3235 30.172 12.3862 30.2025 12.4559C30.233 12.5255 30.249 12.6007 30.2494 12.6767V12.6767Z" fill="#566DED"/>
<path d="M26.7985 13.2691C26.6452 13.2692 26.4979 13.2095 26.3878 13.1028C26.2777 12.9961 26.2135 12.8508 26.2088 12.6975C26.2081 12.5502 26.2642 12.4083 26.3654 12.3012C26.4666 12.1941 26.6051 12.1301 26.7523 12.1224C26.8281 12.117 26.9042 12.1271 26.976 12.152C27.0478 12.177 27.1137 12.2163 27.1699 12.2675C27.226 12.3188 27.271 12.381 27.3023 12.4502C27.3336 12.5195 27.3505 12.5944 27.3519 12.6704C27.3553 12.7461 27.3436 12.8218 27.3176 12.893C27.2915 12.9642 27.2516 13.0296 27.2001 13.0852C27.1487 13.1409 27.0867 13.1859 27.0177 13.2174C26.9488 13.249 26.8743 13.2665 26.7985 13.2691Z" fill="#566DED"/>
</svg>
