<svg  viewBox="0 0 50 50" fill="none" xmlns="http://www.w3.org/2000/svg">
<path d="M24.963 27.3359C26.9612 27.3359 28.9603 27.3359 30.9602 27.3359C31.6062 27.3359 32.0704 27.6255 32.2494 28.1422C32.4285 28.659 32.3136 29.1223 31.9082 29.4787C31.2899 30.0195 30.6609 30.555 30.0096 31.0495C29.7767 31.2168 29.4988 31.3099 29.2121 31.3168C26.361 31.3352 23.5069 31.3352 20.6498 31.3168C20.3451 31.3168 20.0011 31.1555 19.7481 30.9702C19.1592 30.5372 18.6121 30.0453 18.0553 29.5731C17.5777 29.1695 17.4244 28.667 17.6098 28.1476C17.7951 27.6281 18.2504 27.3457 18.867 27.3412C20.8984 27.3341 22.9304 27.3323 24.963 27.3359ZM18.7039 28.5031L18.6709 28.5753C18.7484 28.6483 18.8224 28.7258 18.9044 28.7944C19.365 29.1793 19.8345 29.5535 20.2845 29.9527C20.3725 30.0342 20.4757 30.0975 20.5883 30.1389C20.7008 30.1803 20.8204 30.1991 20.9403 30.1942C23.4742 30.1844 26.0073 30.1728 28.5403 30.2004C29.0749 30.2066 29.4963 30.089 29.8768 29.7103C30.2343 29.3771 30.6091 29.0628 30.9994 28.7686C31.0863 28.7165 31.1794 28.6755 31.2765 28.6465L31.1678 28.5057L18.7039 28.5031Z" fill="#566DED"/>
<path d="M36.3373 31.3248C35.6245 31.3248 34.9117 31.3248 34.199 31.3248C33.6011 31.3248 33.1636 31.0317 32.9756 30.5229C32.7877 30.0142 32.9355 29.5001 33.3882 29.1196C33.9584 28.6412 34.5366 28.1725 35.1051 27.6941C35.3858 27.4538 35.746 27.3267 36.1154 27.3377C36.9048 27.343 37.6943 27.3377 38.4837 27.3377C39.2588 27.3439 39.7221 27.8135 39.731 28.5913C39.7346 29.0914 39.7346 29.5916 39.731 30.0917C39.7248 30.8526 39.2597 31.3212 38.505 31.3248C37.7815 31.3284 37.0599 31.3248 36.3373 31.3248ZM38.5772 28.4737C37.7085 28.4737 36.8674 28.4692 36.0273 28.4799C35.9382 28.4799 35.849 28.561 35.7742 28.6216C35.2509 29.051 34.7303 29.4837 34.2123 29.9197C34.1374 29.9971 34.0683 30.0799 34.0056 30.1674H38.5772V28.4737Z" fill="#566DED"/>
<path d="M13.4953 31.3248C12.7825 31.3248 12.0697 31.3248 11.3569 31.3248C10.5996 31.3248 10.1327 30.8544 10.1265 30.0971C10.122 29.5741 10.1194 29.0519 10.1265 28.5298C10.1363 27.8304 10.5987 27.352 11.2963 27.3404C12.141 27.327 12.9892 27.311 13.8303 27.3519C14.1373 27.3731 14.4322 27.4802 14.6812 27.6611C15.3049 28.1244 15.892 28.6412 16.4854 29.1401C16.9184 29.5072 17.0592 30.0311 16.8783 30.5212C16.6974 31.0112 16.2546 31.323 15.6907 31.323C14.9627 31.3293 14.2294 31.3248 13.4953 31.3248ZM11.2856 30.155H15.794L15.8902 30.0249C15.7892 29.9824 15.6925 29.9302 15.6016 29.869C15.2719 29.6017 14.9244 29.3575 14.6321 29.0564C14.4287 28.8316 14.1734 28.6602 13.8883 28.5571C13.6033 28.4539 13.2973 28.4222 12.9972 28.4648C12.525 28.5138 12.0439 28.4728 11.5663 28.4755C11.4719 28.4755 11.3765 28.4906 11.2856 28.4987V30.155Z" fill="#566DED"/>
<path d="M41.0096 10.0669V11.0185C40.9962 11.1325 40.9838 11.2457 40.9704 11.3606C40.7872 13.1187 40.0366 14.7693 38.8321 16.063C37.6276 17.3566 36.0348 18.2231 34.2943 18.5312C33.9887 18.5847 33.6795 18.6159 33.3721 18.6569H32.4214C32.1497 18.623 31.8762 18.599 31.6071 18.5535C29.9142 18.2702 28.4361 17.5414 27.2208 16.3261C25.3978 14.504 24.5951 12.2899 24.8285 9.72569C24.9765 8.0219 25.6839 6.41491 26.8403 5.15498C28.3702 3.45678 30.2876 2.54352 32.5711 2.4375C34.1381 2.35243 35.6937 2.74714 37.0305 3.56901C39.1359 4.85291 40.4287 6.7142 40.8831 9.14568C40.9401 9.4504 40.9686 9.76044 41.0096 10.0669ZM32.8919 3.4425C31.4879 3.44321 30.1156 3.86013 28.9485 4.64058C27.7815 5.42103 26.872 6.52998 26.335 7.82722C25.7981 9.12447 25.6578 10.5518 25.9318 11.9288C26.2059 13.3057 26.8821 14.5706 27.8748 15.5633C28.8676 16.5561 30.1324 17.2322 31.5094 17.5063C32.8864 17.7804 34.3137 17.6401 35.6109 17.1032C36.9082 16.5662 38.0171 15.6567 38.7976 14.4896C39.578 13.3225 39.9949 11.9503 39.9956 10.5463C39.9933 8.66296 39.2441 6.85748 37.9124 5.52577C36.5807 4.19407 34.7752 3.44486 32.8919 3.4425Z" fill="#566DED"/>
<path d="M32.3894 14.3873C32.3894 14.0576 32.3893 14.0603 32.0695 13.9757C31.706 13.8806 31.3678 13.707 31.0787 13.4669C30.8435 13.2736 30.7998 12.9778 30.9745 12.7542C31.015 12.7 31.0662 12.6547 31.1248 12.6209C31.1834 12.5872 31.2482 12.5657 31.3154 12.5578C31.3826 12.5499 31.4506 12.5557 31.5155 12.5749C31.5803 12.5941 31.6406 12.6263 31.6926 12.6695C32.3092 13.1337 32.9801 13.1943 33.6813 12.9181C33.8807 12.8363 34.0598 12.712 34.206 12.5537C34.5286 12.2026 34.4787 11.7803 34.1125 11.4702C33.7463 11.1602 33.3338 11.0613 32.8794 11.0524C32.4129 11.0526 31.953 10.943 31.5367 10.7325C30.954 10.4269 30.5201 9.99123 30.3945 9.32032C30.2715 8.66456 30.5156 8.12817 30.995 7.69159C31.3353 7.37915 31.7563 7.16808 32.2103 7.08217C32.3457 7.05544 32.4116 7.00643 32.3929 6.85586C32.3822 6.72957 32.3822 6.60257 32.3929 6.47628C32.3929 6.34229 32.4462 6.2138 32.5409 6.11906C32.6356 6.02432 32.7641 5.9711 32.8981 5.9711C33.0321 5.9711 33.1606 6.02432 33.2553 6.11906C33.3501 6.2138 33.4033 6.34229 33.4033 6.47628C33.4135 6.59723 33.4135 6.71885 33.4033 6.8398C33.3828 7.00107 33.4514 7.05631 33.6011 7.08482C34.0013 7.16345 34.3759 7.33977 34.6916 7.59805C34.9482 7.80209 35.0026 8.09787 34.8209 8.33398C34.7787 8.39028 34.7252 8.43704 34.6637 8.47124C34.6023 8.50543 34.5343 8.52631 34.4643 8.53245C34.3942 8.53859 34.3237 8.52986 34.2573 8.50687C34.1908 8.48388 34.1299 8.44713 34.0787 8.39902C33.5058 7.92769 32.5203 7.88851 31.8717 8.28321C31.2231 8.67791 31.2266 9.37288 31.8717 9.75868C32.2093 9.9474 32.5906 10.0439 32.9774 10.0384C33.579 10.0409 34.1638 10.2378 34.6444 10.5998C35.13 10.9722 35.4374 11.4524 35.4285 12.0814C35.4187 12.7764 35.0543 13.2843 34.4814 13.6309C34.1918 13.7906 33.8847 13.9164 33.5663 14.006C33.4309 14.0505 33.3926 14.1022 33.4024 14.2314C33.4086 14.3528 33.4086 14.4744 33.4024 14.5958C33.4024 14.73 33.3491 14.8587 33.2542 14.9536C33.1593 15.0485 33.0306 15.1019 32.8963 15.1019C32.7621 15.1019 32.6334 15.0485 32.5385 14.9536C32.4436 14.8587 32.3902 14.73 32.3902 14.5958C32.3876 14.5254 32.3894 14.4559 32.3894 14.3873Z" fill="#566DED"/>
<path d="M41.4301 25.9602C40.8207 25.3606 40.2184 24.752 39.6143 24.1453C39.5582 24.0891 39.5145 24.0205 39.4361 23.9225C39.7791 23.9225 40.0687 23.9306 40.3565 23.9225C40.7772 23.9083 41.1778 23.739 41.4813 23.4472C41.7847 23.1554 41.9696 22.7618 42.0003 22.342C42.0574 21.4733 41.4586 20.6215 40.5962 20.56C39.6696 20.4923 38.6725 20.2642 37.8733 21.0946C37.8172 20.9378 37.7744 20.8273 37.7361 20.7114C37.6173 20.3657 37.5021 20.0198 37.3904 19.6735C37.0518 19.8499 36.7031 20.0064 36.3462 20.1421C36.6093 20.9315 36.8725 21.7212 37.1356 22.5112C37.1624 22.5932 37.1793 22.6787 37.206 22.7785H12.6568C12.6809 22.6841 12.697 22.6003 12.7228 22.521C13.1861 21.132 13.6467 19.7412 14.1145 18.3539C14.3951 17.5217 14.9627 17.1065 15.8377 17.1065C19.0042 17.1065 22.1707 17.1065 25.3372 17.1065C25.0493 16.7452 24.7879 16.3634 24.555 15.9643C21.629 15.9643 18.703 15.9664 15.7771 15.9705C14.4629 15.9705 13.4721 16.7145 13.0435 17.9655C12.7281 18.8885 12.4252 19.8169 12.1151 20.7426C12.0795 20.8504 12.0331 20.9547 11.9797 21.0919C11.5271 20.6268 11.0103 20.4834 10.4267 20.5155C10.1274 20.5324 9.82621 20.5154 9.52684 20.5217C8.8292 20.5457 8.33293 20.8879 8.01753 21.5018C7.95872 21.6176 7.91058 21.7379 7.85712 21.8581V22.5255C8.10838 23.339 8.60913 23.862 9.49921 23.9234C9.79146 23.9422 10.0872 23.9234 10.4891 23.9234C10.2155 24.1907 10.0115 24.3867 9.81193 24.5854C9.43504 24.9596 9.06888 25.3455 8.68219 25.709C8.31511 26.0556 7.99968 26.4289 7.85712 26.9242V35.0607C8.04958 35.5953 8.33291 36.0559 8.87997 36.3081C8.9459 36.3384 8.98601 36.4862 8.98869 36.5798C8.99938 37.0689 8.98869 37.5599 8.99404 38.0463C8.99938 39.1431 9.71485 39.8595 10.8125 39.8622C12.0599 39.8622 13.3046 39.8622 14.5466 39.8622C15.6879 39.8622 16.3909 39.1539 16.3936 38.0098C16.3936 37.5011 16.3936 36.9932 16.3936 36.4747H33.4666C33.4666 37.0271 33.4666 37.559 33.4666 38.09C33.4737 39.1271 34.1945 39.8559 35.2262 39.8613C36.5152 39.8672 37.8044 39.8672 39.094 39.8613C40.1302 39.8568 40.8546 39.1325 40.8652 38.0989C40.8706 37.5884 40.8563 37.0761 40.8742 36.5656C40.8808 36.5065 40.9001 36.4495 40.9309 36.3985C40.9617 36.3476 41.0031 36.304 41.0524 36.2706C41.693 35.9071 42.0048 35.3663 42.0039 34.633C42.0039 32.2107 42.0039 29.7879 42.0039 27.3644C42.0121 27.1032 41.9652 26.8432 41.8664 26.6013C41.7675 26.3593 41.6189 26.1409 41.4301 25.9602ZM38.5959 22.2555C38.6102 21.8715 38.8151 21.663 39.2 21.6541C39.5564 21.6458 39.9128 21.6458 40.2692 21.6541C40.6256 21.663 40.8768 21.9116 40.8688 22.2306C40.8666 22.3059 40.8496 22.38 40.8186 22.4487C40.7876 22.5174 40.7434 22.5793 40.6884 22.6308C40.6334 22.6823 40.5687 22.7225 40.4982 22.7489C40.4276 22.7753 40.3525 22.7875 40.2772 22.7848C39.7346 22.7946 39.192 22.7848 38.5986 22.7848C38.595 22.5843 38.5906 22.4203 38.5959 22.2555ZM9.509 22.7777C9.36831 22.7677 9.23677 22.7042 9.14134 22.6003C9.04592 22.4965 8.99387 22.3601 8.99582 22.219C8.99599 22.0728 9.05313 21.9324 9.15509 21.8276C9.25706 21.7228 9.39582 21.6618 9.54198 21.6577C9.92956 21.6434 10.3189 21.6443 10.7074 21.6577C10.7799 21.6559 10.8521 21.6687 10.9196 21.6953C10.9872 21.722 11.0486 21.7619 11.1004 21.8128C11.1521 21.8636 11.1932 21.9244 11.221 21.9914C11.2489 22.0584 11.263 22.1304 11.2625 22.203C11.2732 22.3874 11.2625 22.5727 11.2625 22.7848C10.6575 22.7839 10.0828 22.8008 9.509 22.7777ZM15.2345 38.2549C15.2166 38.5498 14.9779 38.7208 14.674 38.7217C13.353 38.7282 12.0317 38.7282 10.71 38.7217C10.6371 38.7256 10.5641 38.7146 10.4955 38.6896C10.4269 38.6646 10.364 38.6259 10.3107 38.576C10.2574 38.5261 10.2147 38.4659 10.1852 38.3991C10.1556 38.3323 10.1399 38.2602 10.139 38.1871C10.1202 37.624 10.1336 37.0591 10.1336 36.4649H15.2452C15.2452 37.0654 15.271 37.6615 15.2345 38.2549ZM39.7185 38.204C39.707 38.5168 39.4628 38.7199 39.1305 38.7217C37.8237 38.7288 36.5134 38.7288 35.1995 38.7217C34.8431 38.7217 34.6159 38.4936 34.6079 38.1354C34.5954 37.5928 34.6079 37.0493 34.6079 36.4684H39.7283C39.7248 37.0565 39.7408 37.6311 39.7185 38.204ZM40.8679 34.5386C40.8679 35.1257 40.679 35.3137 40.0865 35.3146H9.8761C9.14282 35.3146 8.99312 35.1667 8.99312 34.4397C8.99312 32.1169 8.99846 29.7941 8.98777 27.4704C8.98234 27.322 9.00936 27.1741 9.06691 27.0372C9.12446 26.9002 9.21118 26.7774 9.32102 26.6774C10.1781 25.8372 11.0139 24.9775 11.8764 24.1408C12.0078 24.0169 12.1789 23.9433 12.3593 23.9332C20.7398 23.9237 29.1203 23.9237 37.5009 23.9332C37.6814 23.9426 37.8528 24.0155 37.9847 24.1391C38.8525 24.9837 39.6998 25.8497 40.5632 26.6997C40.6646 26.7929 40.7448 26.907 40.7981 27.034C40.8515 27.161 40.8768 27.298 40.8724 27.4357C40.8617 29.803 40.8688 32.1713 40.8679 34.5386Z" fill="#566DED"/>
</svg>
